<svg id="Слой_1" data-name="Слой 1" xmlns="http://www.w3.org/2000/svg" viewBox="0 0 363.09 363.27"><defs><style>.cls-1,.cls-3{fill:none;stroke:#262424;stroke-miterlimit:10;}.cls-1{stroke-width:0.25px;}.cls-2{fill:#262424;}.cls-3{stroke-width:19px;}</style></defs><title>pul1.ai</title><line class="cls-1" x1="0.03" y1="113.57" x2="363.06" y2="22.81"/><line class="cls-1" x1="0.03" y1="158.95" x2="363.06" y2="68.19"/><line class="cls-1" x1="0.03" y1="204.33" x2="363.06" y2="113.57"/><line class="cls-1" x1="0.03" y1="249.71" x2="363.06" y2="158.95"/><line class="cls-1" x1="0.03" y1="295.08" x2="363.06" y2="204.33"/><line class="cls-1" x1="0.03" y1="340.46" x2="363.06" y2="249.71"/><line class="cls-1" x1="272.3" y1="363.15" x2="363.06" y2="340.46"/><line class="cls-1" x1="363.06" y1="113.57" x2="0.03" y2="22.81"/><line class="cls-1" x1="363.06" y1="158.95" x2="0.03" y2="68.19"/><line class="cls-1" x1="363.06" y1="204.33" x2="0.03" y2="113.57"/><line class="cls-1" x1="363.06" y1="249.71" x2="0.03" y2="158.95"/><line class="cls-1" x1="363.06" y1="295.08" x2="0.03" y2="204.33"/><line class="cls-1" x1="363.06" y1="340.46" x2="0.03" y2="249.71"/><line class="cls-1" x1="272.3" y1="363.15" x2="0.03" y2="295.08"/><line class="cls-1" x1="0.03" y1="340.46" x2="90.79" y2="363.15"/><line class="cls-1" x1="0.03" y1="0.12" x2="0.03" y2="363.15"/><line class="cls-1" x1="90.79" y1="22.81" x2="90.79" y2="363.15"/><line class="cls-1" x1="181.55" y1="0.12" x2="181.55" y2="363.15"/><line class="cls-1" x1="272.3" y1="0.12" x2="272.3" y2="363.15"/><line class="cls-1" x1="363.06" y1="0.12" x2="363.06" y2="363.15"/><line class="cls-1" x1="0.03" y1="363.15" x2="363.06" y2="363.15"/><line class="cls-1" x1="0.03" y1="340.46" x2="363.06" y2="340.46"/><line class="cls-1" x1="0.03" y1="317.77" x2="363.06" y2="317.77"/><line class="cls-1" x1="0.03" y1="295.08" x2="363.06" y2="295.08"/><line class="cls-1" x1="0.03" y1="272.4" x2="363.06" y2="272.4"/><line class="cls-1" x1="0.03" y1="272.4" x2="363.06" y2="272.4"/><line class="cls-1" x1="0.03" y1="227.02" x2="363.06" y2="227.02"/><line class="cls-1" x1="0.03" y1="204.33" x2="363.06" y2="204.33"/><line class="cls-1" x1="0.03" y1="181.64" x2="363.06" y2="181.64"/><line class="cls-1" x1="0.03" y1="158.95" x2="363.06" y2="158.95"/><line class="cls-1" x1="0.03" y1="136.26" x2="363.06" y2="136.26"/><line class="cls-1" x1="0.03" y1="113.57" x2="363.06" y2="113.57"/><line class="cls-1" x1="0.03" y1="90.88" x2="363.06" y2="90.88"/><line class="cls-1" x1="0.03" y1="68.19" x2="363.06" y2="68.19"/><line class="cls-1" x1="0.03" y1="45.5" x2="363.06" y2="45.5"/><line class="cls-1" x1="0.03" y1="22.81" x2="363.06" y2="22.81"/><line class="cls-1" x1="0.03" y1="0.12" x2="363.06" y2="0.12"/><line class="cls-1" x1="0.03" y1="68.19" x2="272.3" y2="0.12"/><line class="cls-1" x1="0.03" y1="22.81" x2="90.79" y2="0.12"/><line class="cls-1" x1="0.03" y1="113.57" x2="363.06" y2="22.81"/><line class="cls-1" x1="0.03" y1="158.95" x2="363.06" y2="68.19"/><line class="cls-1" x1="0.03" y1="204.33" x2="363.06" y2="113.57"/><line class="cls-1" x1="0.03" y1="249.71" x2="363.06" y2="158.95"/><line class="cls-1" x1="0.03" y1="295.08" x2="363.06" y2="204.33"/><line class="cls-1" x1="0.03" y1="340.46" x2="363.06" y2="249.71"/><line class="cls-1" x1="90.79" y1="363.15" x2="363.06" y2="295.08"/><line class="cls-1" x1="272.3" y1="340.46" x2="363.06" y2="340.46"/><line class="cls-1" x1="363.06" y1="68.19" x2="90.79" y2="0.12"/><line class="cls-1" x1="363.06" y1="22.81" x2="272.3" y2="0.12"/><line class="cls-1" x1="363.06" y1="113.57" x2="0.03" y2="22.81"/><line class="cls-1" x1="363.06" y1="158.95" x2="0.03" y2="68.19"/><line class="cls-1" x1="363.06" y1="204.33" x2="0.03" y2="113.57"/><line class="cls-1" x1="363.06" y1="249.71" x2="0.03" y2="158.95"/><line class="cls-1" x1="363.06" y1="295.08" x2="0.03" y2="204.33"/><line class="cls-1" x1="363.06" y1="340.46" x2="0.03" y2="249.71"/><line class="cls-1" x1="272.3" y1="295.08" x2="0.03" y2="295.08"/><line class="cls-1" x1="90.79" y1="340.46" x2="0.03" y2="340.46"/><line class="cls-1" x1="0.03" y1="22.81" x2="0.03" y2="363.15"/><line class="cls-1" x1="90.79" y1="0.12" x2="90.79" y2="363.15"/><line class="cls-1" x1="181.55" y1="0.12" x2="181.55" y2="363.15"/><line class="cls-1" x1="272.3" y1="0.12" x2="272.3" y2="363.15"/><line class="cls-1" x1="363.06" y1="0.12" x2="363.06" y2="363.15"/><line class="cls-1" x1="0.03" y1="363.15" x2="363.06" y2="363.15"/><line class="cls-1" x1="0.03" y1="340.46" x2="363.06" y2="340.46"/><line class="cls-1" x1="0.03" y1="317.77" x2="363.06" y2="317.77"/><line class="cls-1" x1="0.03" y1="295.08" x2="363.06" y2="295.08"/><line class="cls-1" x1="0.03" y1="272.4" x2="363.06" y2="272.4"/><line class="cls-1" x1="0.03" y1="249.71" x2="363.06" y2="249.71"/><line class="cls-1" x1="0.03" y1="227.02" x2="363.06" y2="227.02"/><line class="cls-1" x1="0.03" y1="204.33" x2="363.06" y2="204.33"/><line class="cls-1" x1="0.03" y1="181.64" x2="363.06" y2="181.64"/><line class="cls-1" x1="0.03" y1="158.95" x2="363.06" y2="158.95"/><line class="cls-1" x1="0.03" y1="136.26" x2="363.06" y2="136.26"/><line class="cls-1" x1="0.03" y1="113.57" x2="363.06" y2="113.57"/><line class="cls-1" x1="0.03" y1="90.88" x2="363.06" y2="90.88"/><line class="cls-1" x1="0.03" y1="68.19" x2="363.06" y2="68.19"/><line class="cls-1" x1="0.03" y1="45.5" x2="363.06" y2="45.5"/><line class="cls-1" x1="0.03" y1="22.81" x2="363.06" y2="22.81"/><line class="cls-1" x1="0.03" y1="0.12" x2="363.06" y2="0.12"/><polygon class="cls-2" points="89.98 362.55 0.13 340.31 -0.76 205.09 92.65 181.07 273.25 181.07 363.1 205.09 363.1 339.42 270.58 363.44 89.98 362.55"/><path class="cls-3" d="M92.65,195.3,90,90.32H271.47V201.53"/></svg>