<svg id="Слой_1" data-name="Слой 1" xmlns="http://www.w3.org/2000/svg" viewBox="0 0 793.75 192.03"><defs><style>.cls-1{fill:#262424;}</style></defs><title>pul1.ai</title><polyline class="cls-1" points="35.41 -0.5 0.3 -0.5 0.3 192.26 35.41 192.26 35.41 -0.5"/><path class="cls-1" d="M105.4-.5h-35V60.81h0V78.27h0v114h35.06L105.4-.5"/><polyline class="cls-1" points="70.53 47.02 35.56 71.2 35.34 95.51 70.41 71.15 70.43 58.82"/><polyline class="cls-1" points="70.48 60.8 70.43 60.81 70.43 78.28 70.48 78.27 70.48 60.8"/><polyline class="cls-1" points="723.57 -0.5 688.46 -0.5 688.46 192.26 723.57 192.26 723.57 -0.5"/><path class="cls-1" d="M793.56-.5h-35V60.81h.06V78.27h-.06v114h35.06L793.56-.5"/><polyline class="cls-1" points="758.69 47.02 723.72 71.2 723.5 95.51 758.57 71.15 758.59 58.82"/><polyline class="cls-1" points="758.65 60.8 758.59 60.81 758.59 78.28 758.65 78.27 758.65 60.8"/><path class="cls-1" d="M208.24,78.64q17.38-4.33,34.75-8.7c0-26.23.06-43.51.1-69.75h-35V69.93H173.34v-70h-35V192h35V87.42h34.73V192h35V87.48l-34.85-8.76Z"/><path class="cls-1" d="M620.77,78.64q17.38-4.33,34.75-8.7c0-26.23.06-43.51.1-69.75h-35V69.93H585.88v-70h-35V192h35V87.42H620.6V192h35V87.48l-34.85-8.76Z"/><path class="cls-1" d="M345.63.19h-69.7V183.27L310.79,192V192h69.68V9.07ZM310.79,174.4V17.71h34.83V174.4Z"/><path class="cls-1" d="M518,192,517.93,0H483V69.66H448.33V0h-35V192h35V87.1H483V192Z"/></svg>