<svg id="Слой_1" data-name="Слой 1" xmlns="http://www.w3.org/2000/svg" viewBox="0 0 427.56 427.78"><defs><style>.cls-1,.cls-2{fill:none;stroke-miterlimit:10;}.cls-1{stroke:#262424;stroke-width:0.25px;}.cls-2{stroke:#000;stroke-width:12px;}</style></defs><title>pul1.ai</title><line class="cls-1" x1="0.03" y1="66.92" x2="213.78" y2="13.48"/><line class="cls-1" x1="0.03" y1="93.64" x2="213.78" y2="40.2"/><line class="cls-1" x1="0.03" y1="120.36" x2="213.78" y2="66.92"/><line class="cls-1" x1="0.03" y1="147.08" x2="213.78" y2="93.64"/><line class="cls-1" x1="0.03" y1="173.79" x2="213.78" y2="120.36"/><line class="cls-1" x1="0.03" y1="200.51" x2="213.78" y2="147.08"/><line class="cls-1" x1="160.34" y1="213.87" x2="213.78" y2="200.51"/><line class="cls-1" x1="213.78" y1="66.92" x2="0.03" y2="13.48"/><line class="cls-1" x1="213.78" y1="93.64" x2="0.03" y2="40.2"/><line class="cls-1" x1="213.78" y1="120.36" x2="0.03" y2="66.92"/><line class="cls-1" x1="213.78" y1="147.08" x2="0.03" y2="93.64"/><line class="cls-1" x1="213.78" y1="173.79" x2="0.03" y2="120.36"/><line class="cls-1" x1="213.78" y1="200.51" x2="0.03" y2="147.08"/><line class="cls-1" x1="160.34" y1="213.87" x2="0.03" y2="173.79"/><line class="cls-1" x1="0.03" y1="200.51" x2="53.47" y2="213.87"/><line class="cls-1" x1="0.03" y1="0.12" x2="0.03" y2="213.87"/><line class="cls-1" x1="53.47" y1="13.48" x2="53.47" y2="213.87"/><line class="cls-1" x1="106.91" y1="0.12" x2="106.91" y2="213.87"/><line class="cls-1" x1="160.34" y1="0.12" x2="160.34" y2="213.87"/><line class="cls-1" x1="213.78" y1="0.12" x2="213.78" y2="213.87"/><line class="cls-1" x1="0.03" y1="213.87" x2="213.78" y2="213.87"/><line class="cls-1" x1="0.03" y1="200.51" x2="213.78" y2="200.51"/><line class="cls-1" x1="0.03" y1="187.15" x2="213.78" y2="187.15"/><line class="cls-1" x1="0.03" y1="173.79" x2="213.78" y2="173.79"/><line class="cls-1" x1="0.03" y1="160.43" x2="213.78" y2="160.43"/><line class="cls-1" x1="0.03" y1="160.43" x2="213.78" y2="160.43"/><line class="cls-1" x1="0.03" y1="133.72" x2="213.78" y2="133.72"/><line class="cls-1" x1="0.03" y1="120.36" x2="213.78" y2="120.36"/><line class="cls-1" x1="0.03" y1="107" x2="213.78" y2="107"/><line class="cls-1" x1="0.03" y1="93.64" x2="213.78" y2="93.64"/><line class="cls-1" x1="0.03" y1="80.28" x2="213.78" y2="80.28"/><line class="cls-1" x1="0.03" y1="66.92" x2="213.78" y2="66.92"/><line class="cls-1" x1="0.03" y1="53.56" x2="213.78" y2="53.56"/><line class="cls-1" x1="0.03" y1="40.2" x2="213.78" y2="40.2"/><line class="cls-1" x1="0.03" y1="26.84" x2="213.78" y2="26.84"/><line class="cls-1" x1="0.03" y1="13.48" x2="213.78" y2="13.48"/><line class="cls-1" x1="0.03" y1="0.12" x2="213.78" y2="0.12"/><line class="cls-1" x1="0.03" y1="40.2" x2="160.34" y2="0.12"/><line class="cls-1" x1="0.03" y1="13.48" x2="53.47" y2="0.12"/><line class="cls-1" x1="0.03" y1="66.92" x2="213.78" y2="13.48"/><line class="cls-1" x1="0.03" y1="93.64" x2="213.78" y2="40.2"/><line class="cls-1" x1="0.03" y1="120.36" x2="213.78" y2="66.92"/><line class="cls-1" x1="0.03" y1="147.08" x2="213.78" y2="93.64"/><line class="cls-1" x1="0.03" y1="173.79" x2="213.78" y2="120.36"/><line class="cls-1" x1="0.03" y1="200.51" x2="213.78" y2="147.08"/><line class="cls-1" x1="53.47" y1="213.87" x2="213.78" y2="173.79"/><line class="cls-1" x1="160.34" y1="200.51" x2="213.78" y2="200.51"/><line class="cls-1" x1="213.78" y1="40.2" x2="53.47" y2="0.12"/><line class="cls-1" x1="213.78" y1="13.48" x2="160.34" y2="0.12"/><line class="cls-1" x1="213.78" y1="66.92" x2="0.03" y2="13.48"/><line class="cls-1" x1="213.78" y1="93.64" x2="0.03" y2="40.2"/><line class="cls-1" x1="213.78" y1="120.36" x2="0.03" y2="66.92"/><line class="cls-1" x1="213.78" y1="147.08" x2="0.03" y2="93.64"/><line class="cls-1" x1="213.78" y1="173.79" x2="0.03" y2="120.36"/><line class="cls-1" x1="213.78" y1="200.51" x2="0.03" y2="147.08"/><line class="cls-1" x1="160.34" y1="173.79" x2="0.03" y2="173.79"/><line class="cls-1" x1="53.47" y1="200.51" x2="0.03" y2="200.51"/><line class="cls-1" x1="0.03" y1="13.48" x2="0.03" y2="213.87"/><line class="cls-1" x1="53.47" y1="0.12" x2="53.47" y2="213.87"/><line class="cls-1" x1="106.91" y1="0.12" x2="106.91" y2="213.87"/><line class="cls-1" x1="160.34" y1="0.12" x2="160.34" y2="213.87"/><line class="cls-1" x1="213.78" y1="0.12" x2="213.78" y2="213.87"/><line class="cls-1" x1="0.03" y1="213.87" x2="213.78" y2="213.87"/><line class="cls-1" x1="0.03" y1="200.51" x2="213.78" y2="200.51"/><line class="cls-1" x1="0.03" y1="187.15" x2="213.78" y2="187.15"/><line class="cls-1" x1="0.03" y1="173.79" x2="213.78" y2="173.79"/><line class="cls-1" x1="0.03" y1="160.43" x2="213.78" y2="160.43"/><line class="cls-1" x1="0.03" y1="147.08" x2="213.78" y2="147.08"/><line class="cls-1" x1="0.03" y1="133.72" x2="213.78" y2="133.72"/><line class="cls-1" x1="0.03" y1="120.36" x2="213.78" y2="120.36"/><line class="cls-1" x1="0.03" y1="107" x2="213.78" y2="107"/><line class="cls-1" x1="0.03" y1="93.64" x2="213.78" y2="93.64"/><line class="cls-1" x1="0.03" y1="80.28" x2="213.78" y2="80.28"/><line class="cls-1" x1="0.03" y1="66.92" x2="213.78" y2="66.92"/><line class="cls-1" x1="0.03" y1="53.56" x2="213.78" y2="53.56"/><line class="cls-1" x1="0.03" y1="40.2" x2="213.78" y2="40.2"/><line class="cls-1" x1="0.03" y1="26.84" x2="213.78" y2="26.84"/><line class="cls-1" x1="0.03" y1="13.48" x2="213.78" y2="13.48"/><line class="cls-1" x1="0.03" y1="0.12" x2="213.78" y2="0.12"/><line class="cls-1" x1="213.78" y1="66.92" x2="427.53" y2="13.48"/><line class="cls-1" x1="213.78" y1="93.64" x2="427.53" y2="40.2"/><line class="cls-1" x1="213.78" y1="120.36" x2="427.53" y2="66.92"/><line class="cls-1" x1="213.78" y1="147.08" x2="427.53" y2="93.64"/><line class="cls-1" x1="213.78" y1="173.79" x2="427.53" y2="120.36"/><line class="cls-1" x1="213.78" y1="200.51" x2="427.53" y2="147.08"/><line class="cls-1" x1="374.1" y1="213.87" x2="427.53" y2="200.51"/><line class="cls-1" x1="427.53" y1="66.92" x2="213.78" y2="13.48"/><line class="cls-1" x1="427.53" y1="93.64" x2="213.78" y2="40.2"/><line class="cls-1" x1="427.53" y1="120.36" x2="213.78" y2="66.92"/><line class="cls-1" x1="427.53" y1="147.08" x2="213.78" y2="93.64"/><line class="cls-1" x1="427.53" y1="173.79" x2="213.78" y2="120.36"/><line class="cls-1" x1="427.53" y1="200.51" x2="213.78" y2="147.08"/><line class="cls-1" x1="374.1" y1="213.87" x2="213.78" y2="173.79"/><line class="cls-1" x1="213.78" y1="200.51" x2="267.22" y2="213.87"/><line class="cls-1" x1="213.78" y1="0.12" x2="213.78" y2="213.87"/><line class="cls-1" x1="267.22" y1="13.48" x2="267.22" y2="213.87"/><line class="cls-1" x1="320.66" y1="0.12" x2="320.66" y2="213.87"/><line class="cls-1" x1="374.1" y1="0.12" x2="374.1" y2="213.87"/><line class="cls-1" x1="427.53" y1="0.12" x2="427.53" y2="213.87"/><line class="cls-1" x1="213.78" y1="213.87" x2="427.53" y2="213.87"/><line class="cls-1" x1="213.78" y1="200.51" x2="427.53" y2="200.51"/><line class="cls-1" x1="213.78" y1="187.15" x2="427.53" y2="187.15"/><line class="cls-1" x1="213.78" y1="173.79" x2="427.53" y2="173.79"/><line class="cls-1" x1="213.78" y1="160.43" x2="427.53" y2="160.43"/><line class="cls-1" x1="213.78" y1="160.43" x2="427.53" y2="160.43"/><line class="cls-1" x1="213.78" y1="133.72" x2="427.53" y2="133.72"/><line class="cls-1" x1="213.78" y1="120.36" x2="427.53" y2="120.36"/><line class="cls-1" x1="213.78" y1="107" x2="427.53" y2="107"/><line class="cls-1" x1="213.78" y1="93.64" x2="427.53" y2="93.64"/><line class="cls-1" x1="213.78" y1="80.28" x2="427.53" y2="80.28"/><line class="cls-1" x1="213.78" y1="66.92" x2="427.53" y2="66.92"/><line class="cls-1" x1="213.78" y1="53.56" x2="427.53" y2="53.56"/><line class="cls-1" x1="213.78" y1="40.2" x2="427.53" y2="40.2"/><line class="cls-1" x1="213.78" y1="26.84" x2="427.53" y2="26.84"/><line class="cls-1" x1="213.78" y1="13.48" x2="427.53" y2="13.48"/><line class="cls-1" x1="213.78" y1="0.12" x2="427.53" y2="0.12"/><line class="cls-1" x1="213.78" y1="40.2" x2="374.1" y2="0.12"/><line class="cls-1" x1="213.78" y1="13.48" x2="267.22" y2="0.12"/><line class="cls-1" x1="213.78" y1="66.92" x2="427.53" y2="13.48"/><line class="cls-1" x1="213.78" y1="93.64" x2="427.53" y2="40.2"/><line class="cls-1" x1="213.78" y1="120.36" x2="427.53" y2="66.92"/><line class="cls-1" x1="213.78" y1="147.08" x2="427.53" y2="93.64"/><line class="cls-1" x1="213.78" y1="173.79" x2="427.53" y2="120.36"/><line class="cls-1" x1="213.78" y1="200.51" x2="427.53" y2="147.08"/><line class="cls-1" x1="267.22" y1="213.87" x2="427.53" y2="173.79"/><line class="cls-1" x1="374.1" y1="200.51" x2="427.53" y2="200.51"/><line class="cls-1" x1="427.53" y1="40.2" x2="267.22" y2="0.12"/><line class="cls-1" x1="427.53" y1="13.48" x2="374.1" y2="0.12"/><line class="cls-1" x1="427.53" y1="66.92" x2="213.78" y2="13.48"/><line class="cls-1" x1="427.53" y1="93.64" x2="213.78" y2="40.2"/><line class="cls-1" x1="427.53" y1="120.36" x2="213.78" y2="66.92"/><line class="cls-1" x1="427.53" y1="147.08" x2="213.78" y2="93.64"/><line class="cls-1" x1="427.53" y1="173.79" x2="213.78" y2="120.36"/><line class="cls-1" x1="427.53" y1="200.51" x2="213.78" y2="147.08"/><line class="cls-1" x1="374.1" y1="173.79" x2="213.78" y2="173.79"/><line class="cls-1" x1="267.22" y1="200.51" x2="213.78" y2="200.51"/><line class="cls-1" x1="213.78" y1="13.48" x2="213.78" y2="213.87"/><line class="cls-1" x1="267.22" y1="0.12" x2="267.22" y2="213.87"/><line class="cls-1" x1="320.66" y1="0.12" x2="320.66" y2="213.87"/><line class="cls-1" x1="374.1" y1="0.12" x2="374.1" y2="213.87"/><line class="cls-1" x1="427.53" y1="0.12" x2="427.53" y2="213.87"/><line class="cls-1" x1="213.78" y1="213.87" x2="427.53" y2="213.87"/><line class="cls-1" x1="213.78" y1="200.51" x2="427.53" y2="200.51"/><line class="cls-1" x1="213.78" y1="187.15" x2="427.53" y2="187.15"/><line class="cls-1" x1="213.78" y1="173.79" x2="427.53" y2="173.79"/><line class="cls-1" x1="213.78" y1="160.43" x2="427.53" y2="160.43"/><line class="cls-1" x1="213.78" y1="147.08" x2="427.53" y2="147.08"/><line class="cls-1" x1="213.78" y1="133.72" x2="427.53" y2="133.72"/><line class="cls-1" x1="213.78" y1="120.36" x2="427.53" y2="120.36"/><line class="cls-1" x1="213.78" y1="107" x2="427.53" y2="107"/><line class="cls-1" x1="213.78" y1="93.64" x2="427.53" y2="93.64"/><line class="cls-1" x1="213.78" y1="80.28" x2="427.53" y2="80.28"/><line class="cls-1" x1="213.78" y1="66.92" x2="427.53" y2="66.92"/><line class="cls-1" x1="213.78" y1="53.56" x2="427.53" y2="53.56"/><line class="cls-1" x1="213.78" y1="40.2" x2="427.53" y2="40.2"/><line class="cls-1" x1="213.78" y1="26.84" x2="427.53" y2="26.84"/><line class="cls-1" x1="213.78" y1="13.48" x2="427.53" y2="13.48"/><line class="cls-1" x1="213.78" y1="0.12" x2="427.53" y2="0.12"/><line class="cls-1" x1="0.1" y1="280.71" x2="213.85" y2="227.27"/><line class="cls-1" x1="0.1" y1="307.43" x2="213.85" y2="253.99"/><line class="cls-1" x1="0.1" y1="334.14" x2="213.85" y2="280.71"/><line class="cls-1" x1="0.1" y1="360.86" x2="213.85" y2="307.43"/><line class="cls-1" x1="0.1" y1="387.58" x2="213.85" y2="334.14"/><line class="cls-1" x1="0.1" y1="414.3" x2="213.85" y2="360.86"/><line class="cls-1" x1="160.41" y1="427.66" x2="213.85" y2="414.3"/><line class="cls-1" x1="213.85" y1="280.71" x2="0.1" y2="227.27"/><line class="cls-1" x1="213.85" y1="307.43" x2="0.1" y2="253.99"/><line class="cls-1" x1="213.85" y1="334.14" x2="0.1" y2="280.71"/><line class="cls-1" x1="213.85" y1="360.86" x2="0.1" y2="307.43"/><line class="cls-1" x1="213.85" y1="387.58" x2="0.1" y2="334.14"/><line class="cls-1" x1="213.85" y1="414.3" x2="0.1" y2="360.86"/><line class="cls-1" x1="160.41" y1="427.66" x2="0.1" y2="387.58"/><line class="cls-1" x1="0.1" y1="414.3" x2="53.53" y2="427.66"/><line class="cls-1" x1="0.1" y1="213.91" x2="0.1" y2="427.66"/><line class="cls-1" x1="53.53" y1="227.27" x2="53.53" y2="427.66"/><line class="cls-1" x1="106.97" y1="213.91" x2="106.97" y2="427.66"/><line class="cls-1" x1="160.41" y1="213.91" x2="160.41" y2="427.66"/><line class="cls-1" x1="213.85" y1="213.91" x2="213.85" y2="427.66"/><line class="cls-1" x1="0.1" y1="427.66" x2="213.85" y2="427.66"/><line class="cls-1" x1="0.1" y1="414.3" x2="213.85" y2="414.3"/><line class="cls-1" x1="0.1" y1="400.94" x2="213.85" y2="400.94"/><line class="cls-1" x1="0.1" y1="387.58" x2="213.85" y2="387.58"/><line class="cls-1" x1="0.1" y1="374.22" x2="213.85" y2="374.22"/><line class="cls-1" x1="0.1" y1="374.22" x2="213.85" y2="374.22"/><line class="cls-1" x1="0.1" y1="347.5" x2="213.85" y2="347.5"/><line class="cls-1" x1="0.1" y1="334.14" x2="213.85" y2="334.14"/><line class="cls-1" x1="0.1" y1="320.79" x2="213.85" y2="320.79"/><line class="cls-1" x1="0.1" y1="307.43" x2="213.85" y2="307.43"/><line class="cls-1" x1="0.1" y1="294.07" x2="213.85" y2="294.07"/><line class="cls-1" x1="0.1" y1="280.71" x2="213.85" y2="280.71"/><line class="cls-1" x1="0.1" y1="267.35" x2="213.85" y2="267.35"/><line class="cls-1" x1="0.1" y1="253.99" x2="213.85" y2="253.99"/><line class="cls-1" x1="0.1" y1="240.63" x2="213.85" y2="240.63"/><line class="cls-1" x1="0.1" y1="227.27" x2="213.85" y2="227.27"/><line class="cls-1" x1="0.1" y1="213.91" x2="213.85" y2="213.91"/><line class="cls-1" x1="0.1" y1="253.99" x2="160.41" y2="213.91"/><line class="cls-1" x1="0.1" y1="227.27" x2="53.53" y2="213.91"/><line class="cls-1" x1="0.1" y1="280.71" x2="213.85" y2="227.27"/><line class="cls-1" x1="0.1" y1="307.43" x2="213.85" y2="253.99"/><line class="cls-1" x1="0.1" y1="334.14" x2="213.85" y2="280.71"/><line class="cls-1" x1="0.1" y1="360.86" x2="213.85" y2="307.43"/><line class="cls-1" x1="0.1" y1="387.58" x2="213.85" y2="334.14"/><line class="cls-1" x1="0.1" y1="414.3" x2="213.85" y2="360.86"/><line class="cls-1" x1="53.53" y1="427.66" x2="213.85" y2="387.58"/><line class="cls-1" x1="160.41" y1="414.3" x2="213.85" y2="414.3"/><line class="cls-1" x1="213.85" y1="253.99" x2="53.53" y2="213.91"/><line class="cls-1" x1="213.85" y1="227.27" x2="160.41" y2="213.91"/><line class="cls-1" x1="213.85" y1="280.71" x2="0.1" y2="227.27"/><line class="cls-1" x1="213.85" y1="307.43" x2="0.1" y2="253.99"/><line class="cls-1" x1="213.85" y1="334.14" x2="0.1" y2="280.71"/><line class="cls-1" x1="213.85" y1="360.86" x2="0.1" y2="307.43"/><line class="cls-1" x1="213.85" y1="387.58" x2="0.1" y2="334.14"/><line class="cls-1" x1="213.85" y1="414.3" x2="0.1" y2="360.86"/><line class="cls-1" x1="160.41" y1="387.58" x2="0.1" y2="387.58"/><line class="cls-1" x1="53.53" y1="414.3" x2="0.1" y2="414.3"/><line class="cls-1" x1="0.1" y1="227.27" x2="0.1" y2="427.66"/><line class="cls-1" x1="53.53" y1="213.91" x2="53.53" y2="427.66"/><line class="cls-1" x1="106.97" y1="213.91" x2="106.97" y2="427.66"/><line class="cls-1" x1="160.41" y1="213.91" x2="160.41" y2="427.66"/><line class="cls-1" x1="213.85" y1="213.91" x2="213.85" y2="427.66"/><line class="cls-1" x1="0.1" y1="427.66" x2="213.85" y2="427.66"/><line class="cls-1" x1="0.1" y1="414.3" x2="213.85" y2="414.3"/><line class="cls-1" x1="0.1" y1="400.94" x2="213.85" y2="400.94"/><line class="cls-1" x1="0.1" y1="387.58" x2="213.85" y2="387.58"/><line class="cls-1" x1="0.1" y1="374.22" x2="213.85" y2="374.22"/><line class="cls-1" x1="0.1" y1="360.86" x2="213.85" y2="360.86"/><line class="cls-1" x1="0.1" y1="347.5" x2="213.85" y2="347.5"/><line class="cls-1" x1="0.1" y1="334.14" x2="213.85" y2="334.14"/><line class="cls-1" x1="0.1" y1="320.79" x2="213.85" y2="320.79"/><line class="cls-1" x1="0.1" y1="307.43" x2="213.85" y2="307.43"/><line class="cls-1" x1="0.1" y1="294.07" x2="213.85" y2="294.07"/><line class="cls-1" x1="0.1" y1="280.71" x2="213.85" y2="280.71"/><line class="cls-1" x1="0.1" y1="267.35" x2="213.85" y2="267.35"/><line class="cls-1" x1="0.1" y1="253.99" x2="213.85" y2="253.99"/><line class="cls-1" x1="0.1" y1="240.63" x2="213.85" y2="240.63"/><line class="cls-1" x1="0.1" y1="227.27" x2="213.85" y2="227.27"/><line class="cls-1" x1="0.1" y1="213.91" x2="213.85" y2="213.91"/><line class="cls-1" x1="213.78" y1="280.67" x2="427.53" y2="227.24"/><line class="cls-1" x1="213.78" y1="307.39" x2="427.53" y2="253.95"/><line class="cls-1" x1="213.78" y1="334.11" x2="427.53" y2="280.67"/><line class="cls-1" x1="213.78" y1="360.83" x2="427.53" y2="307.39"/><line class="cls-1" x1="213.78" y1="387.55" x2="427.53" y2="334.11"/><line class="cls-1" x1="213.78" y1="414.27" x2="427.53" y2="360.83"/><line class="cls-1" x1="374.1" y1="427.63" x2="427.53" y2="414.27"/><line class="cls-1" x1="427.53" y1="280.67" x2="213.78" y2="227.24"/><line class="cls-1" x1="427.53" y1="307.39" x2="213.78" y2="253.95"/><line class="cls-1" x1="427.53" y1="334.11" x2="213.78" y2="280.67"/><line class="cls-1" x1="427.53" y1="360.83" x2="213.78" y2="307.39"/><line class="cls-1" x1="427.53" y1="387.55" x2="213.78" y2="334.11"/><line class="cls-1" x1="427.53" y1="414.27" x2="213.78" y2="360.83"/><line class="cls-1" x1="374.1" y1="427.63" x2="213.78" y2="387.55"/><line class="cls-1" x1="213.78" y1="414.27" x2="267.22" y2="427.63"/><line class="cls-1" x1="213.78" y1="213.88" x2="213.78" y2="427.63"/><line class="cls-1" x1="267.22" y1="227.24" x2="267.22" y2="427.63"/><line class="cls-1" x1="320.66" y1="213.88" x2="320.66" y2="427.63"/><line class="cls-1" x1="374.1" y1="213.88" x2="374.1" y2="427.63"/><line class="cls-1" x1="427.53" y1="213.88" x2="427.53" y2="427.63"/><line class="cls-1" x1="213.78" y1="427.63" x2="427.53" y2="427.63"/><line class="cls-1" x1="213.78" y1="414.27" x2="427.53" y2="414.27"/><line class="cls-1" x1="213.78" y1="400.91" x2="427.53" y2="400.91"/><line class="cls-1" x1="213.78" y1="387.55" x2="427.53" y2="387.55"/><line class="cls-1" x1="213.78" y1="374.19" x2="427.53" y2="374.19"/><line class="cls-1" x1="213.78" y1="374.19" x2="427.53" y2="374.19"/><line class="cls-1" x1="213.78" y1="347.47" x2="427.53" y2="347.47"/><line class="cls-1" x1="213.78" y1="334.11" x2="427.53" y2="334.11"/><line class="cls-1" x1="213.78" y1="320.75" x2="427.53" y2="320.75"/><line class="cls-1" x1="213.78" y1="307.39" x2="427.53" y2="307.39"/><line class="cls-1" x1="213.78" y1="294.03" x2="427.53" y2="294.03"/><line class="cls-1" x1="213.78" y1="280.67" x2="427.53" y2="280.67"/><line class="cls-1" x1="213.78" y1="267.31" x2="427.53" y2="267.31"/><line class="cls-1" x1="213.78" y1="253.95" x2="427.53" y2="253.95"/><line class="cls-1" x1="213.78" y1="240.59" x2="427.53" y2="240.59"/><line class="cls-1" x1="213.78" y1="227.24" x2="427.53" y2="227.24"/><line class="cls-1" x1="213.78" y1="213.88" x2="427.53" y2="213.88"/><line class="cls-1" x1="213.78" y1="253.95" x2="374.1" y2="213.88"/><line class="cls-1" x1="213.78" y1="227.24" x2="267.22" y2="213.88"/><line class="cls-1" x1="213.78" y1="280.67" x2="427.53" y2="227.24"/><line class="cls-1" x1="213.78" y1="307.39" x2="427.53" y2="253.95"/><line class="cls-1" x1="213.78" y1="334.11" x2="427.53" y2="280.67"/><line class="cls-1" x1="213.78" y1="360.83" x2="427.53" y2="307.39"/><line class="cls-1" x1="213.78" y1="387.55" x2="427.53" y2="334.11"/><line class="cls-1" x1="213.78" y1="414.27" x2="427.53" y2="360.83"/><line class="cls-1" x1="267.22" y1="427.63" x2="427.53" y2="387.55"/><line class="cls-1" x1="374.1" y1="414.27" x2="427.53" y2="414.27"/><line class="cls-1" x1="427.53" y1="253.95" x2="267.22" y2="213.88"/><line class="cls-1" x1="427.53" y1="227.24" x2="374.1" y2="213.88"/><line class="cls-1" x1="427.53" y1="280.67" x2="213.78" y2="227.24"/><line class="cls-1" x1="427.53" y1="307.39" x2="213.78" y2="253.95"/><line class="cls-1" x1="427.53" y1="334.11" x2="213.78" y2="280.67"/><line class="cls-1" x1="427.53" y1="360.83" x2="213.78" y2="307.39"/><line class="cls-1" x1="427.53" y1="387.55" x2="213.78" y2="334.11"/><line class="cls-1" x1="427.53" y1="414.27" x2="213.78" y2="360.83"/><line class="cls-1" x1="374.1" y1="387.55" x2="213.78" y2="387.55"/><line class="cls-1" x1="267.22" y1="414.27" x2="213.78" y2="414.27"/><line class="cls-1" x1="213.78" y1="227.24" x2="213.78" y2="427.63"/><line class="cls-1" x1="267.22" y1="213.88" x2="267.22" y2="427.63"/><line class="cls-1" x1="320.66" y1="213.88" x2="320.66" y2="427.63"/><line class="cls-1" x1="374.1" y1="213.88" x2="374.1" y2="427.63"/><line class="cls-1" x1="427.53" y1="213.88" x2="427.53" y2="427.63"/><line class="cls-1" x1="213.78" y1="427.63" x2="427.53" y2="427.63"/><line class="cls-1" x1="213.78" y1="414.27" x2="427.53" y2="414.27"/><line class="cls-1" x1="213.78" y1="400.91" x2="427.53" y2="400.91"/><line class="cls-1" x1="213.78" y1="387.55" x2="427.53" y2="387.55"/><line class="cls-1" x1="213.78" y1="374.19" x2="427.53" y2="374.19"/><line class="cls-1" x1="213.78" y1="360.83" x2="427.53" y2="360.83"/><line class="cls-1" x1="213.78" y1="347.47" x2="427.53" y2="347.47"/><line class="cls-1" x1="213.78" y1="334.11" x2="427.53" y2="334.11"/><line class="cls-1" x1="427.53" y1="320.75" x2="213.78" y2="320.75"/><line class="cls-1" x1="427.53" y1="307.39" x2="213.78" y2="307.39"/><line class="cls-1" x1="213.78" y1="294.03" x2="427.53" y2="294.03"/><line class="cls-1" x1="213.78" y1="280.67" x2="427.53" y2="280.67"/><line class="cls-1" x1="213.78" y1="267.31" x2="427.53" y2="267.31"/><line class="cls-1" x1="213.78" y1="253.95" x2="427.53" y2="253.95"/><line class="cls-1" x1="213.78" y1="240.59" x2="427.53" y2="240.59"/><line class="cls-1" x1="213.78" y1="227.24" x2="427.53" y2="227.24"/><line class="cls-1" x1="213.78" y1="213.88" x2="427.53" y2="213.88"/><path class="cls-2" d="M213.76,38.87l53.47.05,53.43,13.34c0,35.63,0,59.18,0,94.8L269,161.52,267.22,294h53.5l-.12,26.76H267.16l.06,26.69,53.43-.05,0,26.86-34.35,0-19.43,0-18.61,0-34.35,0-.15-213.81L160.32,147c0-35.62,0-59.17,0-94.79Z"/><rect class="cls-2" x="213.78" y="65.56" width="52.8" height="25.99"/></svg>