<?xml version="1.0" encoding="utf-8"?>
<!-- Generator: Adobe Illustrator 23.0.2, SVG Export Plug-In . SVG Version: 6.00 Build 0)  -->
<svg version="1.1" id="Слой_1" xmlns="http://www.w3.org/2000/svg" xmlns:xlink="http://www.w3.org/1999/xlink" x="0px" y="0px"
	 viewBox="0 0 370.17 77.4" style="enable-background:new 0 0 370.17 77.4;" xml:space="preserve">
<style type="text/css">
	.st0{fill:none;stroke:#262424;stroke-width:0.25;stroke-miterlimit:10;}
	.st1{fill:none;stroke:#000000;stroke-width:0.25;stroke-miterlimit:10;}
	.st2{fill:none;stroke:#262424;stroke-width:0.5;stroke-miterlimit:10;}
	.st3{fill:none;stroke:#CC2128;stroke-width:0.5;stroke-miterlimit:10;}
	.st4{opacity:0.6;}
	.st5{fill:none;stroke:#000000;stroke-miterlimit:10;}
	.st6{fill:#CC2532;stroke:#262424;stroke-width:0.25;stroke-miterlimit:10;}
	.st7{fill:none;stroke:#CC2128;stroke-width:0.25;stroke-miterlimit:10;}
	.st8{fill:#CC2532;stroke:#CC2128;stroke-width:0.25;stroke-miterlimit:10;}
	.st9{opacity:0.6;fill:#CC2532;}
	.st10{fill:none;stroke:#CC2128;stroke-width:0.1;stroke-miterlimit:10;}
	.st11{fill:#CC2532;}
	.st12{fill:#CC2128;}
	.st13{opacity:0.6;fill:#CC2128;}
	.st14{fill:#262424;}
	.st15{fill:none;stroke:#262424;stroke-width:19;stroke-miterlimit:10;}
	.st16{fill:#FFFFFF;}
	.st17{fill:none;stroke:#000000;stroke-width:12;stroke-miterlimit:10;}
	.st18{fill:none;stroke:#FFFFFF;stroke-width:4;stroke-miterlimit:10;}
	.st19{fill:none;stroke:#000000;stroke-width:12;stroke-linejoin:bevel;stroke-miterlimit:10;}
	.st20{opacity:0.67;}
	.st21{opacity:0.45;fill:#262424;}
</style>
<path class="st14" d="M27.68,0H13.81H0v76.04h13.81V6.91h13.8v69.13h13.83c0-24.2,0-48.39,0-72.59c-4.59-1.14-9.17-2.29-13.76-3.43
	V0z"/>
<path class="st14" d="M356.19,1.13v0.04h-13.75V1.13h-13.88c0,24.22,0,48.44,0,72.67c4.6,1.15,9.21,2.31,13.81,3.46v0.02h0.07h13.75
	h0.07h13.82c0-24.2,0-48.41,0-72.62C365.45,3.48,360.82,2.31,356.19,1.13z M342.45,70.28V8.16h13.75v62.13H342.45z"/>
<path class="st14" d="M246.82,1.17h-13.75V1.13h-13.88c0,24.22,0,48.44,0,72.67c4.6,1.15,9.21,2.31,13.81,3.46v0.02h13.81h0.07
	h13.81c0-24.21,0-48.41,0-72.62c-4.63-1.18-9.26-2.35-13.88-3.53V1.17z M233.08,70.28V8.16h13.75v62.13H233.08z"/>
<path class="st14" d="M204.47,27.64c0.01-10.4,0.03-17.25,0.04-27.66h-13.88v27.65h-13.77V-0.13h-13.88v76.14h13.88V34.57h13.77
	v41.47h13.88c0-12.68,0-28.77,0-41.45c-4.6-1.16-9.21-2.32-13.81-3.47v-0.03C195.29,29.94,199.88,28.79,204.47,27.64z"/>
<path class="st14" d="M80.64,28.88H66.87V1.26H52.99c0.01,10.4,0.03,20.68,0.04,31.09c4.59,1.15,9.18,2.3,13.78,3.45v0.03h13.84
	v34.49H53.03v6.94h27.61v0.02h13.88V1.13H80.64V28.88z"/>
<path class="st14" d="M288.05-0.13L288.05-0.13l-13.8,3.45V75.9h13.8v0.02h13.81V75.9h13.81V34.29l-13.79-3.45
	c4.6-1.15,9.2-2.3,13.79-3.45c0-5.72,0-14.84,0-20.6V6.67c0-1.11,0-2.22,0-3.34c-4.59-1.15-9.19-2.31-13.78-3.46
	C297.28-0.13,292.67-0.13,288.05-0.13z M301.87,30.84v0.01v38.1h-13.81V34.42h13.78V27.5h-13.78V6.79h13.81V30.84z"/>
<path class="st14" d="M126.8,0.23c-6.38,4.79-12.76,9.57-19.14,14.36c0,20.49,0.01,40.98,0.01,61.47c4.66,0,9.32,0,13.98,0
	c0.01-19.16,0.03-40,0.04-59.16c4.6-3.27,9.2-6.53,13.8-9.8c0,23.11,0,45.85,0,68.96h13.98V0.16h-13.98L126.8,0.23z"/>
</svg>
