<svg id="Слой_1" data-name="Слой 1" xmlns="http://www.w3.org/2000/svg" viewBox="0 0 427.56 442.63"><defs><style>.cls-1,.cls-2{fill:none;stroke-miterlimit:10;}.cls-1{stroke:#262424;stroke-width:0.25px;}.cls-2{stroke:#000;stroke-width:12px;}</style></defs><title>pul1.ai</title><line class="cls-1" x1="0.03" y1="73.08" x2="213.78" y2="19.64"/><line class="cls-1" x1="0.03" y1="99.8" x2="213.78" y2="46.36"/><line class="cls-1" x1="0.03" y1="126.52" x2="213.78" y2="73.08"/><line class="cls-1" x1="0.03" y1="153.24" x2="213.78" y2="99.8"/><line class="cls-1" x1="0.03" y1="179.96" x2="213.78" y2="126.52"/><line class="cls-1" x1="0.03" y1="206.67" x2="213.78" y2="153.24"/><line class="cls-1" x1="160.34" y1="220.03" x2="213.78" y2="206.67"/><line class="cls-1" x1="213.78" y1="73.08" x2="0.03" y2="19.64"/><line class="cls-1" x1="213.78" y1="99.8" x2="0.03" y2="46.36"/><line class="cls-1" x1="213.78" y1="126.52" x2="0.03" y2="73.08"/><line class="cls-1" x1="213.78" y1="153.24" x2="0.03" y2="99.8"/><line class="cls-1" x1="213.78" y1="179.96" x2="0.03" y2="126.52"/><line class="cls-1" x1="213.78" y1="206.67" x2="0.03" y2="153.24"/><line class="cls-1" x1="160.34" y1="220.03" x2="0.03" y2="179.96"/><line class="cls-1" x1="0.03" y1="206.67" x2="53.47" y2="220.03"/><line class="cls-1" x1="0.03" y1="6.28" x2="0.03" y2="220.03"/><line class="cls-1" x1="53.47" y1="19.64" x2="53.47" y2="220.03"/><line class="cls-1" x1="106.91" y1="6.28" x2="106.91" y2="220.03"/><line class="cls-1" x1="160.34" y1="6.28" x2="160.34" y2="220.03"/><line class="cls-1" x1="213.78" y1="6.28" x2="213.78" y2="220.03"/><line class="cls-1" x1="0.03" y1="220.03" x2="213.78" y2="220.03"/><line class="cls-1" x1="0.03" y1="206.67" x2="213.78" y2="206.67"/><line class="cls-1" x1="0.03" y1="193.31" x2="213.78" y2="193.31"/><line class="cls-1" x1="0.03" y1="179.96" x2="213.78" y2="179.96"/><line class="cls-1" x1="0.03" y1="166.6" x2="213.78" y2="166.6"/><line class="cls-1" x1="0.03" y1="166.6" x2="213.78" y2="166.6"/><line class="cls-1" x1="0.03" y1="139.88" x2="213.78" y2="139.88"/><line class="cls-1" x1="0.03" y1="126.52" x2="213.78" y2="126.52"/><line class="cls-1" x1="0.03" y1="113.16" x2="213.78" y2="113.16"/><line class="cls-1" x1="0.03" y1="99.8" x2="213.78" y2="99.8"/><line class="cls-1" x1="0.03" y1="86.44" x2="213.78" y2="86.44"/><line class="cls-1" x1="0.03" y1="73.08" x2="213.78" y2="73.08"/><line class="cls-1" x1="0.03" y1="59.72" x2="213.78" y2="59.72"/><line class="cls-1" x1="0.03" y1="46.36" x2="213.78" y2="46.36"/><line class="cls-1" x1="0.03" y1="33" x2="213.78" y2="33"/><line class="cls-1" x1="0.03" y1="19.64" x2="213.78" y2="19.64"/><line class="cls-1" x1="0.03" y1="6.28" x2="213.78" y2="6.28"/><line class="cls-1" x1="0.03" y1="46.36" x2="160.34" y2="6.28"/><line class="cls-1" x1="0.03" y1="19.64" x2="53.47" y2="6.28"/><line class="cls-1" x1="0.03" y1="73.08" x2="213.78" y2="19.64"/><line class="cls-1" x1="0.03" y1="99.8" x2="213.78" y2="46.36"/><line class="cls-1" x1="0.03" y1="126.52" x2="213.78" y2="73.08"/><line class="cls-1" x1="0.03" y1="153.24" x2="213.78" y2="99.8"/><line class="cls-1" x1="0.03" y1="179.96" x2="213.78" y2="126.52"/><line class="cls-1" x1="0.03" y1="206.67" x2="213.78" y2="153.24"/><line class="cls-1" x1="53.47" y1="220.03" x2="213.78" y2="179.96"/><line class="cls-1" x1="160.34" y1="206.67" x2="213.78" y2="206.67"/><line class="cls-1" x1="213.78" y1="46.36" x2="53.47" y2="6.28"/><line class="cls-1" x1="213.78" y1="19.64" x2="160.34" y2="6.28"/><line class="cls-1" x1="213.78" y1="73.08" x2="0.03" y2="19.64"/><line class="cls-1" x1="213.78" y1="99.8" x2="0.03" y2="46.36"/><line class="cls-1" x1="213.78" y1="126.52" x2="0.03" y2="73.08"/><line class="cls-1" x1="213.78" y1="153.24" x2="0.03" y2="99.8"/><line class="cls-1" x1="213.78" y1="179.96" x2="0.03" y2="126.52"/><line class="cls-1" x1="213.78" y1="206.67" x2="0.03" y2="153.24"/><line class="cls-1" x1="160.34" y1="179.96" x2="0.03" y2="179.96"/><line class="cls-1" x1="53.47" y1="206.67" x2="0.03" y2="206.67"/><line class="cls-1" x1="0.03" y1="19.64" x2="0.03" y2="220.03"/><line class="cls-1" x1="53.47" y1="6.28" x2="53.47" y2="220.03"/><line class="cls-1" x1="106.91" y1="6.28" x2="106.91" y2="220.03"/><line class="cls-1" x1="160.34" y1="6.28" x2="160.34" y2="220.03"/><line class="cls-1" x1="213.78" y1="6.28" x2="213.78" y2="220.03"/><line class="cls-1" x1="0.03" y1="220.03" x2="213.78" y2="220.03"/><line class="cls-1" x1="0.03" y1="206.67" x2="213.78" y2="206.67"/><line class="cls-1" x1="0.03" y1="193.31" x2="213.78" y2="193.31"/><line class="cls-1" x1="0.03" y1="179.96" x2="213.78" y2="179.96"/><line class="cls-1" x1="0.03" y1="166.6" x2="213.78" y2="166.6"/><line class="cls-1" x1="0.03" y1="153.24" x2="213.78" y2="153.24"/><line class="cls-1" x1="0.03" y1="139.88" x2="213.78" y2="139.88"/><line class="cls-1" x1="0.03" y1="126.52" x2="213.78" y2="126.52"/><line class="cls-1" x1="0.03" y1="113.16" x2="213.78" y2="113.16"/><line class="cls-1" x1="0.03" y1="99.8" x2="213.78" y2="99.8"/><line class="cls-1" x1="0.03" y1="86.44" x2="213.78" y2="86.44"/><line class="cls-1" x1="0.03" y1="73.08" x2="213.78" y2="73.08"/><line class="cls-1" x1="0.03" y1="59.72" x2="213.78" y2="59.72"/><line class="cls-1" x1="0.03" y1="46.36" x2="213.78" y2="46.36"/><line class="cls-1" x1="0.03" y1="33" x2="213.78" y2="33"/><line class="cls-1" x1="0.03" y1="19.64" x2="213.78" y2="19.64"/><line class="cls-1" x1="0.03" y1="6.28" x2="213.78" y2="6.28"/><line class="cls-1" x1="213.78" y1="73.08" x2="427.53" y2="19.64"/><line class="cls-1" x1="213.78" y1="99.8" x2="427.53" y2="46.36"/><line class="cls-1" x1="213.78" y1="126.52" x2="427.53" y2="73.08"/><line class="cls-1" x1="213.78" y1="153.24" x2="427.53" y2="99.8"/><line class="cls-1" x1="213.78" y1="179.96" x2="427.53" y2="126.52"/><line class="cls-1" x1="213.78" y1="206.67" x2="427.53" y2="153.24"/><line class="cls-1" x1="374.1" y1="220.03" x2="427.53" y2="206.67"/><line class="cls-1" x1="427.53" y1="73.08" x2="213.78" y2="19.64"/><line class="cls-1" x1="427.53" y1="99.8" x2="213.78" y2="46.36"/><line class="cls-1" x1="427.53" y1="126.52" x2="213.78" y2="73.08"/><line class="cls-1" x1="427.53" y1="153.24" x2="213.78" y2="99.8"/><line class="cls-1" x1="427.53" y1="179.96" x2="213.78" y2="126.52"/><line class="cls-1" x1="427.53" y1="206.67" x2="213.78" y2="153.24"/><line class="cls-1" x1="374.1" y1="220.03" x2="213.78" y2="179.96"/><line class="cls-1" x1="213.78" y1="206.67" x2="267.22" y2="220.03"/><line class="cls-1" x1="213.78" y1="6.28" x2="213.78" y2="220.03"/><line class="cls-1" x1="267.22" y1="19.64" x2="267.22" y2="220.03"/><line class="cls-1" x1="320.66" y1="6.28" x2="320.66" y2="220.03"/><line class="cls-1" x1="374.1" y1="6.28" x2="374.1" y2="220.03"/><line class="cls-1" x1="427.53" y1="6.28" x2="427.53" y2="220.03"/><line class="cls-1" x1="213.78" y1="220.03" x2="427.53" y2="220.03"/><line class="cls-1" x1="213.78" y1="206.67" x2="427.53" y2="206.67"/><line class="cls-1" x1="213.78" y1="193.31" x2="427.53" y2="193.31"/><line class="cls-1" x1="213.78" y1="179.96" x2="427.53" y2="179.96"/><line class="cls-1" x1="213.78" y1="166.6" x2="427.53" y2="166.6"/><line class="cls-1" x1="213.78" y1="166.6" x2="427.53" y2="166.6"/><line class="cls-1" x1="213.78" y1="139.88" x2="427.53" y2="139.88"/><line class="cls-1" x1="213.78" y1="126.52" x2="427.53" y2="126.52"/><line class="cls-1" x1="213.78" y1="113.16" x2="427.53" y2="113.16"/><line class="cls-1" x1="213.78" y1="99.8" x2="427.53" y2="99.8"/><line class="cls-1" x1="213.78" y1="86.44" x2="427.53" y2="86.44"/><line class="cls-1" x1="213.78" y1="73.08" x2="427.53" y2="73.08"/><line class="cls-1" x1="213.78" y1="59.72" x2="427.53" y2="59.72"/><line class="cls-1" x1="213.78" y1="46.36" x2="427.53" y2="46.36"/><line class="cls-1" x1="213.78" y1="33" x2="427.53" y2="33"/><line class="cls-1" x1="213.78" y1="19.64" x2="427.53" y2="19.64"/><line class="cls-1" x1="213.78" y1="6.28" x2="427.53" y2="6.28"/><line class="cls-1" x1="213.78" y1="46.36" x2="374.1" y2="6.28"/><line class="cls-1" x1="213.78" y1="19.64" x2="267.22" y2="6.28"/><line class="cls-1" x1="213.78" y1="73.08" x2="427.53" y2="19.64"/><line class="cls-1" x1="213.78" y1="99.8" x2="427.53" y2="46.36"/><line class="cls-1" x1="213.78" y1="126.52" x2="427.53" y2="73.08"/><line class="cls-1" x1="213.78" y1="153.24" x2="427.53" y2="99.8"/><line class="cls-1" x1="213.78" y1="179.96" x2="427.53" y2="126.52"/><line class="cls-1" x1="213.78" y1="206.67" x2="427.53" y2="153.24"/><line class="cls-1" x1="267.22" y1="220.03" x2="427.53" y2="179.96"/><line class="cls-1" x1="374.1" y1="206.67" x2="427.53" y2="206.67"/><line class="cls-1" x1="427.53" y1="46.36" x2="267.22" y2="6.28"/><line class="cls-1" x1="427.53" y1="19.64" x2="374.1" y2="6.28"/><line class="cls-1" x1="427.53" y1="73.08" x2="213.78" y2="19.64"/><line class="cls-1" x1="427.53" y1="99.8" x2="213.78" y2="46.36"/><line class="cls-1" x1="427.53" y1="126.52" x2="213.78" y2="73.08"/><line class="cls-1" x1="427.53" y1="153.24" x2="213.78" y2="99.8"/><line class="cls-1" x1="427.53" y1="179.96" x2="213.78" y2="126.52"/><line class="cls-1" x1="427.53" y1="206.67" x2="213.78" y2="153.24"/><line class="cls-1" x1="374.1" y1="179.96" x2="213.78" y2="179.96"/><line class="cls-1" x1="267.22" y1="206.67" x2="213.78" y2="206.67"/><line class="cls-1" x1="213.78" y1="19.64" x2="213.78" y2="220.03"/><line class="cls-1" x1="267.22" y1="6.28" x2="267.22" y2="220.03"/><line class="cls-1" x1="320.66" y1="6.28" x2="320.66" y2="220.03"/><line class="cls-1" x1="374.1" y1="6.28" x2="374.1" y2="220.03"/><line class="cls-1" x1="427.53" y1="6.28" x2="427.53" y2="220.03"/><line class="cls-1" x1="213.78" y1="220.03" x2="427.53" y2="220.03"/><line class="cls-1" x1="213.78" y1="206.67" x2="427.53" y2="206.67"/><line class="cls-1" x1="213.78" y1="193.31" x2="427.53" y2="193.31"/><line class="cls-1" x1="213.78" y1="179.96" x2="427.53" y2="179.96"/><line class="cls-1" x1="213.78" y1="166.6" x2="427.53" y2="166.6"/><line class="cls-1" x1="213.78" y1="153.24" x2="427.53" y2="153.24"/><line class="cls-1" x1="213.78" y1="139.88" x2="427.53" y2="139.88"/><line class="cls-1" x1="213.78" y1="126.52" x2="427.53" y2="126.52"/><line class="cls-1" x1="213.78" y1="113.16" x2="427.53" y2="113.16"/><line class="cls-1" x1="213.78" y1="99.8" x2="427.53" y2="99.8"/><line class="cls-1" x1="213.78" y1="86.44" x2="427.53" y2="86.44"/><line class="cls-1" x1="213.78" y1="73.08" x2="427.53" y2="73.08"/><line class="cls-1" x1="213.78" y1="59.72" x2="427.53" y2="59.72"/><line class="cls-1" x1="213.78" y1="46.36" x2="427.53" y2="46.36"/><line class="cls-1" x1="213.78" y1="33" x2="427.53" y2="33"/><line class="cls-1" x1="213.78" y1="19.64" x2="427.53" y2="19.64"/><line class="cls-1" x1="213.78" y1="6.28" x2="427.53" y2="6.28"/><line class="cls-1" x1="0.1" y1="286.87" x2="213.85" y2="233.43"/><line class="cls-1" x1="0.1" y1="313.59" x2="213.85" y2="260.15"/><line class="cls-1" x1="0.1" y1="340.31" x2="213.85" y2="286.87"/><line class="cls-1" x1="0.1" y1="367.02" x2="213.85" y2="313.59"/><line class="cls-1" x1="0.1" y1="393.74" x2="213.85" y2="340.31"/><line class="cls-1" x1="0.1" y1="420.46" x2="213.85" y2="367.02"/><line class="cls-1" x1="160.41" y1="433.82" x2="213.85" y2="420.46"/><line class="cls-1" x1="213.85" y1="286.87" x2="0.1" y2="233.43"/><line class="cls-1" x1="213.85" y1="313.59" x2="0.1" y2="260.15"/><line class="cls-1" x1="213.85" y1="340.31" x2="0.1" y2="286.87"/><line class="cls-1" x1="213.85" y1="367.02" x2="0.1" y2="313.59"/><line class="cls-1" x1="213.85" y1="393.74" x2="0.1" y2="340.31"/><line class="cls-1" x1="213.85" y1="420.46" x2="0.1" y2="367.02"/><line class="cls-1" x1="160.41" y1="433.82" x2="0.1" y2="393.74"/><line class="cls-1" x1="0.1" y1="420.46" x2="53.53" y2="433.82"/><line class="cls-1" x1="0.1" y1="220.07" x2="0.1" y2="433.82"/><line class="cls-1" x1="53.53" y1="233.43" x2="53.53" y2="433.82"/><line class="cls-1" x1="106.97" y1="220.07" x2="106.97" y2="433.82"/><line class="cls-1" x1="160.41" y1="220.07" x2="160.41" y2="433.82"/><line class="cls-1" x1="213.85" y1="220.07" x2="213.85" y2="433.82"/><line class="cls-1" x1="0.1" y1="433.82" x2="213.85" y2="433.82"/><line class="cls-1" x1="0.1" y1="420.46" x2="213.85" y2="420.46"/><line class="cls-1" x1="0.1" y1="407.1" x2="213.85" y2="407.1"/><line class="cls-1" x1="0.1" y1="393.74" x2="213.85" y2="393.74"/><line class="cls-1" x1="0.1" y1="380.38" x2="213.85" y2="380.38"/><line class="cls-1" x1="0.1" y1="380.38" x2="213.85" y2="380.38"/><line class="cls-1" x1="0.1" y1="353.67" x2="213.85" y2="353.67"/><line class="cls-1" x1="0.1" y1="340.31" x2="213.85" y2="340.31"/><line class="cls-1" x1="0.1" y1="326.95" x2="213.85" y2="326.95"/><line class="cls-1" x1="0.1" y1="313.59" x2="213.85" y2="313.59"/><line class="cls-1" x1="0.1" y1="300.23" x2="213.85" y2="300.23"/><line class="cls-1" x1="0.1" y1="286.87" x2="213.85" y2="286.87"/><line class="cls-1" x1="0.1" y1="273.51" x2="213.85" y2="273.51"/><line class="cls-1" x1="0.1" y1="260.15" x2="213.85" y2="260.15"/><line class="cls-1" x1="0.1" y1="246.79" x2="213.85" y2="246.79"/><line class="cls-1" x1="0.1" y1="233.43" x2="213.85" y2="233.43"/><line class="cls-1" x1="0.1" y1="220.07" x2="213.85" y2="220.07"/><line class="cls-1" x1="0.1" y1="260.15" x2="160.41" y2="220.07"/><line class="cls-1" x1="0.1" y1="233.43" x2="53.53" y2="220.07"/><line class="cls-1" x1="0.1" y1="286.87" x2="213.85" y2="233.43"/><line class="cls-1" x1="0.1" y1="313.59" x2="213.85" y2="260.15"/><line class="cls-1" x1="0.1" y1="340.31" x2="213.85" y2="286.87"/><line class="cls-1" x1="0.1" y1="367.02" x2="213.85" y2="313.59"/><line class="cls-1" x1="0.1" y1="393.74" x2="213.85" y2="340.31"/><line class="cls-1" x1="0.1" y1="420.46" x2="213.85" y2="367.02"/><line class="cls-1" x1="53.53" y1="433.82" x2="213.85" y2="393.74"/><line class="cls-1" x1="160.41" y1="420.46" x2="213.85" y2="420.46"/><line class="cls-1" x1="213.85" y1="260.15" x2="53.53" y2="220.07"/><line class="cls-1" x1="213.85" y1="233.43" x2="160.41" y2="220.07"/><line class="cls-1" x1="213.85" y1="286.87" x2="0.1" y2="233.43"/><line class="cls-1" x1="213.85" y1="313.59" x2="0.1" y2="260.15"/><line class="cls-1" x1="213.85" y1="340.31" x2="0.1" y2="286.87"/><line class="cls-1" x1="213.85" y1="367.02" x2="0.1" y2="313.59"/><line class="cls-1" x1="213.85" y1="393.74" x2="0.1" y2="340.31"/><line class="cls-1" x1="213.85" y1="420.46" x2="0.1" y2="367.02"/><line class="cls-1" x1="160.41" y1="393.74" x2="0.1" y2="393.74"/><line class="cls-1" x1="53.53" y1="420.46" x2="0.1" y2="420.46"/><line class="cls-1" x1="0.1" y1="233.43" x2="0.1" y2="433.82"/><line class="cls-1" x1="53.53" y1="220.07" x2="53.53" y2="433.82"/><line class="cls-1" x1="106.97" y1="220.07" x2="106.97" y2="433.82"/><line class="cls-1" x1="160.41" y1="220.07" x2="160.41" y2="433.82"/><line class="cls-1" x1="213.85" y1="220.07" x2="213.85" y2="433.82"/><line class="cls-1" x1="0.1" y1="433.82" x2="213.85" y2="433.82"/><line class="cls-1" x1="0.1" y1="420.46" x2="213.85" y2="420.46"/><line class="cls-1" x1="0.1" y1="407.1" x2="213.85" y2="407.1"/><line class="cls-1" x1="0.1" y1="393.74" x2="213.85" y2="393.74"/><line class="cls-1" x1="0.1" y1="380.38" x2="213.85" y2="380.38"/><line class="cls-1" x1="0.1" y1="367.02" x2="213.85" y2="367.02"/><line class="cls-1" x1="0.1" y1="353.67" x2="213.85" y2="353.67"/><line class="cls-1" x1="0.1" y1="340.31" x2="213.85" y2="340.31"/><line class="cls-1" x1="0.1" y1="326.95" x2="213.85" y2="326.95"/><line class="cls-1" x1="0.1" y1="313.59" x2="213.85" y2="313.59"/><line class="cls-1" x1="0.1" y1="300.23" x2="213.85" y2="300.23"/><line class="cls-1" x1="0.1" y1="286.87" x2="213.85" y2="286.87"/><line class="cls-1" x1="0.1" y1="273.51" x2="213.85" y2="273.51"/><line class="cls-1" x1="0.1" y1="260.15" x2="213.85" y2="260.15"/><line class="cls-1" x1="0.1" y1="246.79" x2="213.85" y2="246.79"/><line class="cls-1" x1="0.1" y1="233.43" x2="213.85" y2="233.43"/><line class="cls-1" x1="0.1" y1="220.07" x2="213.85" y2="220.07"/><line class="cls-1" x1="213.78" y1="286.83" x2="427.53" y2="233.4"/><line class="cls-1" x1="213.78" y1="313.55" x2="427.53" y2="260.12"/><line class="cls-1" x1="213.78" y1="340.27" x2="427.53" y2="286.83"/><line class="cls-1" x1="213.78" y1="366.99" x2="427.53" y2="313.55"/><line class="cls-1" x1="213.78" y1="393.71" x2="427.53" y2="340.27"/><line class="cls-1" x1="213.78" y1="420.43" x2="427.53" y2="366.99"/><line class="cls-1" x1="374.1" y1="433.79" x2="427.53" y2="420.43"/><line class="cls-1" x1="427.53" y1="286.83" x2="213.78" y2="233.4"/><line class="cls-1" x1="427.53" y1="313.55" x2="213.78" y2="260.12"/><line class="cls-1" x1="427.53" y1="340.27" x2="213.78" y2="286.83"/><line class="cls-1" x1="427.53" y1="366.99" x2="213.78" y2="313.55"/><line class="cls-1" x1="427.53" y1="393.71" x2="213.78" y2="340.27"/><line class="cls-1" x1="427.53" y1="420.43" x2="213.78" y2="366.99"/><line class="cls-1" x1="374.1" y1="433.79" x2="213.78" y2="393.71"/><line class="cls-1" x1="213.78" y1="420.43" x2="267.22" y2="433.79"/><line class="cls-1" x1="213.78" y1="220.04" x2="213.78" y2="433.79"/><line class="cls-1" x1="267.22" y1="233.4" x2="267.22" y2="433.79"/><line class="cls-1" x1="320.66" y1="220.04" x2="320.66" y2="433.79"/><line class="cls-1" x1="374.1" y1="220.04" x2="374.1" y2="433.79"/><line class="cls-1" x1="427.53" y1="220.04" x2="427.53" y2="433.79"/><line class="cls-1" x1="213.78" y1="433.79" x2="427.53" y2="433.79"/><line class="cls-1" x1="213.78" y1="420.43" x2="427.53" y2="420.43"/><line class="cls-1" x1="213.78" y1="407.07" x2="427.53" y2="407.07"/><line class="cls-1" x1="213.78" y1="393.71" x2="427.53" y2="393.71"/><line class="cls-1" x1="213.78" y1="380.35" x2="427.53" y2="380.35"/><line class="cls-1" x1="213.78" y1="380.35" x2="427.53" y2="380.35"/><line class="cls-1" x1="213.78" y1="353.63" x2="427.53" y2="353.63"/><line class="cls-1" x1="213.78" y1="340.27" x2="427.53" y2="340.27"/><line class="cls-1" x1="213.78" y1="326.91" x2="427.53" y2="326.91"/><line class="cls-1" x1="213.78" y1="313.55" x2="427.53" y2="313.55"/><line class="cls-1" x1="213.78" y1="300.19" x2="427.53" y2="300.19"/><line class="cls-1" x1="213.78" y1="286.83" x2="427.53" y2="286.83"/><line class="cls-1" x1="213.78" y1="273.47" x2="427.53" y2="273.47"/><line class="cls-1" x1="213.78" y1="260.12" x2="427.53" y2="260.12"/><line class="cls-1" x1="213.78" y1="246.76" x2="427.53" y2="246.76"/><line class="cls-1" x1="213.78" y1="233.4" x2="427.53" y2="233.4"/><line class="cls-1" x1="213.78" y1="220.04" x2="427.53" y2="220.04"/><line class="cls-1" x1="213.78" y1="260.12" x2="374.1" y2="220.04"/><line class="cls-1" x1="213.78" y1="233.4" x2="267.22" y2="220.04"/><line class="cls-1" x1="213.78" y1="286.83" x2="427.53" y2="233.4"/><line class="cls-1" x1="213.78" y1="313.55" x2="427.53" y2="260.12"/><line class="cls-1" x1="213.78" y1="340.27" x2="427.53" y2="286.83"/><line class="cls-1" x1="213.78" y1="366.99" x2="427.53" y2="313.55"/><line class="cls-1" x1="213.78" y1="393.71" x2="427.53" y2="340.27"/><line class="cls-1" x1="213.78" y1="420.43" x2="427.53" y2="366.99"/><line class="cls-1" x1="267.22" y1="433.79" x2="427.53" y2="393.71"/><line class="cls-1" x1="374.1" y1="420.43" x2="427.53" y2="420.43"/><line class="cls-1" x1="427.53" y1="260.12" x2="267.22" y2="220.04"/><line class="cls-1" x1="427.53" y1="233.4" x2="374.1" y2="220.04"/><line class="cls-1" x1="427.53" y1="286.83" x2="213.78" y2="233.4"/><line class="cls-1" x1="427.53" y1="313.55" x2="213.78" y2="260.12"/><line class="cls-1" x1="427.53" y1="340.27" x2="213.78" y2="286.83"/><line class="cls-1" x1="427.53" y1="366.99" x2="213.78" y2="313.55"/><line class="cls-1" x1="427.53" y1="393.71" x2="213.78" y2="340.27"/><line class="cls-1" x1="427.53" y1="420.43" x2="213.78" y2="366.99"/><line class="cls-1" x1="374.1" y1="393.71" x2="213.78" y2="393.71"/><line class="cls-1" x1="267.22" y1="420.43" x2="213.78" y2="420.43"/><line class="cls-1" x1="213.78" y1="233.4" x2="213.78" y2="433.79"/><line class="cls-1" x1="267.22" y1="220.04" x2="267.22" y2="433.79"/><line class="cls-1" x1="320.66" y1="220.04" x2="320.66" y2="433.79"/><line class="cls-1" x1="374.1" y1="220.04" x2="374.1" y2="433.79"/><line class="cls-1" x1="427.53" y1="220.04" x2="427.53" y2="433.79"/><line class="cls-1" x1="213.78" y1="433.79" x2="427.53" y2="433.79"/><line class="cls-1" x1="213.78" y1="420.43" x2="427.53" y2="420.43"/><line class="cls-1" x1="213.78" y1="407.07" x2="427.53" y2="407.07"/><line class="cls-1" x1="213.78" y1="393.71" x2="427.53" y2="393.71"/><line class="cls-1" x1="213.78" y1="380.35" x2="427.53" y2="380.35"/><line class="cls-1" x1="213.78" y1="366.99" x2="427.53" y2="366.99"/><line class="cls-1" x1="213.78" y1="353.63" x2="427.53" y2="353.63"/><line class="cls-1" x1="213.78" y1="340.27" x2="427.53" y2="340.27"/><line class="cls-1" x1="427.53" y1="326.91" x2="213.78" y2="326.91"/><line class="cls-1" x1="427.53" y1="313.55" x2="213.78" y2="313.55"/><line class="cls-1" x1="213.78" y1="300.19" x2="427.53" y2="300.19"/><line class="cls-1" x1="213.78" y1="286.83" x2="427.53" y2="286.83"/><line class="cls-1" x1="213.78" y1="273.47" x2="427.53" y2="273.47"/><line class="cls-1" x1="213.78" y1="260.12" x2="427.53" y2="260.12"/><line class="cls-1" x1="213.78" y1="246.76" x2="427.53" y2="246.76"/><line class="cls-1" x1="213.78" y1="233.4" x2="427.53" y2="233.4"/><line class="cls-1" x1="213.78" y1="220.04" x2="427.53" y2="220.04"/><path class="cls-2" d="M128.23,434.68l31.36-201.62c.32-75.17.63-123.75.94-198.93L282.18,6.06c17.47,4.68,21.84,8.42,39.31,13.1.31,27.14.62,92.64.93,119.78L350,145.55c-.31,35.87-2,78.53-2.27,114.4l-27.14,12.81V392.51Z"/><line class="cls-2" x1="197.24" y1="26.32" x2="197.24" y2="172.89"/><line class="cls-2" x1="241.23" y1="16.91" x2="241.23" y2="142.01"/><line class="cls-2" x1="284.27" y1="6.31" x2="284.27" y2="137.33"/><line class="cls-2" x1="321.49" y1="15.25" x2="320.35" y2="205.95"/><line class="cls-2" x1="137.01" y1="377.65" x2="320.55" y2="352.27"/></svg>