<svg id="Слой_1" data-name="Слой 1" xmlns="http://www.w3.org/2000/svg" viewBox="0 0 427.56 439.06"><defs><style>.cls-1,.cls-2{fill:none;stroke-miterlimit:10;}.cls-1{stroke:#262424;stroke-width:0.25px;}.cls-2{stroke:#000;stroke-width:12px;}</style></defs><title>pul1.ai</title><line class="cls-1" x1="0.03" y1="72.6" x2="213.78" y2="19.16"/><line class="cls-1" x1="0.03" y1="99.32" x2="213.78" y2="45.88"/><line class="cls-1" x1="0.03" y1="126.04" x2="213.78" y2="72.6"/><line class="cls-1" x1="0.03" y1="152.76" x2="213.78" y2="99.32"/><line class="cls-1" x1="0.03" y1="179.48" x2="213.78" y2="126.04"/><line class="cls-1" x1="0.03" y1="206.2" x2="213.78" y2="152.76"/><line class="cls-1" x1="160.34" y1="219.56" x2="213.78" y2="206.2"/><line class="cls-1" x1="213.78" y1="72.6" x2="0.03" y2="19.16"/><line class="cls-1" x1="213.78" y1="99.32" x2="0.03" y2="45.88"/><line class="cls-1" x1="213.78" y1="126.04" x2="0.03" y2="72.6"/><line class="cls-1" x1="213.78" y1="152.76" x2="0.03" y2="99.32"/><line class="cls-1" x1="213.78" y1="179.48" x2="0.03" y2="126.04"/><line class="cls-1" x1="213.78" y1="206.2" x2="0.03" y2="152.76"/><line class="cls-1" x1="160.34" y1="219.56" x2="0.03" y2="179.48"/><line class="cls-1" x1="0.03" y1="206.2" x2="53.47" y2="219.56"/><line class="cls-1" x1="0.03" y1="5.8" x2="0.03" y2="219.56"/><line class="cls-1" x1="53.47" y1="19.16" x2="53.47" y2="219.56"/><line class="cls-1" x1="106.91" y1="5.8" x2="106.91" y2="219.56"/><line class="cls-1" x1="160.34" y1="5.8" x2="160.34" y2="219.56"/><line class="cls-1" x1="213.78" y1="5.8" x2="213.78" y2="219.56"/><line class="cls-1" x1="0.03" y1="219.56" x2="213.78" y2="219.56"/><line class="cls-1" x1="0.03" y1="206.2" x2="213.78" y2="206.2"/><line class="cls-1" x1="0.03" y1="192.84" x2="213.78" y2="192.84"/><line class="cls-1" x1="0.03" y1="179.48" x2="213.78" y2="179.48"/><line class="cls-1" x1="0.03" y1="166.12" x2="213.78" y2="166.12"/><line class="cls-1" x1="0.03" y1="166.12" x2="213.78" y2="166.12"/><line class="cls-1" x1="0.03" y1="139.4" x2="213.78" y2="139.4"/><line class="cls-1" x1="0.03" y1="126.04" x2="213.78" y2="126.04"/><line class="cls-1" x1="0.03" y1="112.68" x2="213.78" y2="112.68"/><line class="cls-1" x1="0.03" y1="99.32" x2="213.78" y2="99.32"/><line class="cls-1" x1="0.03" y1="85.96" x2="213.78" y2="85.96"/><line class="cls-1" x1="0.03" y1="72.6" x2="213.78" y2="72.6"/><line class="cls-1" x1="0.03" y1="59.24" x2="213.78" y2="59.24"/><line class="cls-1" x1="0.03" y1="45.88" x2="213.78" y2="45.88"/><line class="cls-1" x1="0.03" y1="32.52" x2="213.78" y2="32.52"/><line class="cls-1" x1="0.03" y1="19.16" x2="213.78" y2="19.16"/><line class="cls-1" x1="0.03" y1="5.8" x2="213.78" y2="5.8"/><line class="cls-1" x1="0.03" y1="45.88" x2="160.34" y2="5.8"/><line class="cls-1" x1="0.03" y1="19.16" x2="53.47" y2="5.8"/><line class="cls-1" x1="0.03" y1="72.6" x2="213.78" y2="19.16"/><line class="cls-1" x1="0.03" y1="99.32" x2="213.78" y2="45.88"/><line class="cls-1" x1="0.03" y1="126.04" x2="213.78" y2="72.6"/><line class="cls-1" x1="0.03" y1="152.76" x2="213.78" y2="99.32"/><line class="cls-1" x1="0.03" y1="179.48" x2="213.78" y2="126.04"/><line class="cls-1" x1="0.03" y1="206.2" x2="213.78" y2="152.76"/><line class="cls-1" x1="53.47" y1="219.56" x2="213.78" y2="179.48"/><line class="cls-1" x1="160.34" y1="206.2" x2="213.78" y2="206.2"/><line class="cls-1" x1="213.78" y1="45.88" x2="53.47" y2="5.8"/><line class="cls-1" x1="213.78" y1="19.16" x2="160.34" y2="5.8"/><line class="cls-1" x1="213.78" y1="72.6" x2="0.03" y2="19.16"/><line class="cls-1" x1="213.78" y1="99.32" x2="0.03" y2="45.88"/><line class="cls-1" x1="213.78" y1="126.04" x2="0.03" y2="72.6"/><line class="cls-1" x1="213.78" y1="152.76" x2="0.03" y2="99.32"/><line class="cls-1" x1="213.78" y1="179.48" x2="0.03" y2="126.04"/><line class="cls-1" x1="213.78" y1="206.2" x2="0.03" y2="152.76"/><line class="cls-1" x1="160.34" y1="179.48" x2="0.03" y2="179.48"/><line class="cls-1" x1="53.47" y1="206.2" x2="0.03" y2="206.2"/><line class="cls-1" x1="0.03" y1="19.16" x2="0.03" y2="219.56"/><line class="cls-1" x1="53.47" y1="5.8" x2="53.47" y2="219.56"/><line class="cls-1" x1="106.91" y1="5.8" x2="106.91" y2="219.56"/><line class="cls-1" x1="160.34" y1="5.8" x2="160.34" y2="219.56"/><line class="cls-1" x1="213.78" y1="5.8" x2="213.78" y2="219.56"/><line class="cls-1" x1="0.03" y1="219.56" x2="213.78" y2="219.56"/><line class="cls-1" x1="0.03" y1="206.2" x2="213.78" y2="206.2"/><line class="cls-1" x1="0.03" y1="192.84" x2="213.78" y2="192.84"/><line class="cls-1" x1="0.03" y1="179.48" x2="213.78" y2="179.48"/><line class="cls-1" x1="0.03" y1="166.12" x2="213.78" y2="166.12"/><line class="cls-1" x1="0.03" y1="152.76" x2="213.78" y2="152.76"/><line class="cls-1" x1="0.03" y1="139.4" x2="213.78" y2="139.4"/><line class="cls-1" x1="0.03" y1="126.04" x2="213.78" y2="126.04"/><line class="cls-1" x1="0.03" y1="112.68" x2="213.78" y2="112.68"/><line class="cls-1" x1="0.03" y1="99.32" x2="213.78" y2="99.32"/><line class="cls-1" x1="0.03" y1="85.96" x2="213.78" y2="85.96"/><line class="cls-1" x1="0.03" y1="72.6" x2="213.78" y2="72.6"/><line class="cls-1" x1="0.03" y1="59.24" x2="213.78" y2="59.24"/><line class="cls-1" x1="0.03" y1="45.88" x2="213.78" y2="45.88"/><line class="cls-1" x1="0.03" y1="32.52" x2="213.78" y2="32.52"/><line class="cls-1" x1="0.03" y1="19.16" x2="213.78" y2="19.16"/><line class="cls-1" x1="0.03" y1="5.8" x2="213.78" y2="5.8"/><line class="cls-1" x1="213.78" y1="72.6" x2="427.53" y2="19.16"/><line class="cls-1" x1="213.78" y1="99.32" x2="427.53" y2="45.88"/><line class="cls-1" x1="213.78" y1="126.04" x2="427.53" y2="72.6"/><line class="cls-1" x1="213.78" y1="152.76" x2="427.53" y2="99.32"/><line class="cls-1" x1="213.78" y1="179.48" x2="427.53" y2="126.04"/><line class="cls-1" x1="213.78" y1="206.2" x2="427.53" y2="152.76"/><line class="cls-1" x1="374.1" y1="219.56" x2="427.53" y2="206.2"/><line class="cls-1" x1="427.53" y1="72.6" x2="213.78" y2="19.16"/><line class="cls-1" x1="427.53" y1="99.32" x2="213.78" y2="45.88"/><line class="cls-1" x1="427.53" y1="126.04" x2="213.78" y2="72.6"/><line class="cls-1" x1="427.53" y1="152.76" x2="213.78" y2="99.32"/><line class="cls-1" x1="427.53" y1="179.48" x2="213.78" y2="126.04"/><line class="cls-1" x1="427.53" y1="206.2" x2="213.78" y2="152.76"/><line class="cls-1" x1="374.1" y1="219.56" x2="213.78" y2="179.48"/><line class="cls-1" x1="213.78" y1="206.2" x2="267.22" y2="219.56"/><line class="cls-1" x1="213.78" y1="5.8" x2="213.78" y2="219.56"/><line class="cls-1" x1="267.22" y1="19.16" x2="267.22" y2="219.56"/><line class="cls-1" x1="320.66" y1="5.8" x2="320.66" y2="219.56"/><line class="cls-1" x1="374.1" y1="5.8" x2="374.1" y2="219.56"/><line class="cls-1" x1="427.53" y1="5.8" x2="427.53" y2="219.56"/><line class="cls-1" x1="213.78" y1="219.56" x2="427.53" y2="219.56"/><line class="cls-1" x1="213.78" y1="206.2" x2="427.53" y2="206.2"/><line class="cls-1" x1="213.78" y1="192.84" x2="427.53" y2="192.84"/><line class="cls-1" x1="213.78" y1="179.48" x2="427.53" y2="179.48"/><line class="cls-1" x1="213.78" y1="166.12" x2="427.53" y2="166.12"/><line class="cls-1" x1="213.78" y1="166.12" x2="427.53" y2="166.12"/><line class="cls-1" x1="213.78" y1="139.4" x2="427.53" y2="139.4"/><line class="cls-1" x1="213.78" y1="126.04" x2="427.53" y2="126.04"/><line class="cls-1" x1="213.78" y1="112.68" x2="427.53" y2="112.68"/><line class="cls-1" x1="213.78" y1="99.32" x2="427.53" y2="99.32"/><line class="cls-1" x1="213.78" y1="85.96" x2="427.53" y2="85.96"/><line class="cls-1" x1="213.78" y1="72.6" x2="427.53" y2="72.6"/><line class="cls-1" x1="213.78" y1="59.24" x2="427.53" y2="59.24"/><line class="cls-1" x1="213.78" y1="45.88" x2="427.53" y2="45.88"/><line class="cls-1" x1="213.78" y1="32.52" x2="427.53" y2="32.52"/><line class="cls-1" x1="213.78" y1="19.16" x2="427.53" y2="19.16"/><line class="cls-1" x1="213.78" y1="5.8" x2="427.53" y2="5.8"/><line class="cls-1" x1="213.78" y1="45.88" x2="374.1" y2="5.8"/><line class="cls-1" x1="213.78" y1="19.16" x2="267.22" y2="5.8"/><line class="cls-1" x1="213.78" y1="72.6" x2="427.53" y2="19.16"/><line class="cls-1" x1="213.78" y1="99.32" x2="427.53" y2="45.88"/><line class="cls-1" x1="213.78" y1="126.04" x2="427.53" y2="72.6"/><line class="cls-1" x1="213.78" y1="152.76" x2="427.53" y2="99.32"/><line class="cls-1" x1="213.78" y1="179.48" x2="427.53" y2="126.04"/><line class="cls-1" x1="213.78" y1="206.2" x2="427.53" y2="152.76"/><line class="cls-1" x1="267.22" y1="219.56" x2="427.53" y2="179.48"/><line class="cls-1" x1="374.1" y1="206.2" x2="427.53" y2="206.2"/><line class="cls-1" x1="427.53" y1="45.88" x2="267.22" y2="5.8"/><line class="cls-1" x1="427.53" y1="19.16" x2="374.1" y2="5.8"/><line class="cls-1" x1="427.53" y1="72.6" x2="213.78" y2="19.16"/><line class="cls-1" x1="427.53" y1="99.32" x2="213.78" y2="45.88"/><line class="cls-1" x1="427.53" y1="126.04" x2="213.78" y2="72.6"/><line class="cls-1" x1="427.53" y1="152.76" x2="213.78" y2="99.32"/><line class="cls-1" x1="427.53" y1="179.48" x2="213.78" y2="126.04"/><line class="cls-1" x1="427.53" y1="206.2" x2="213.78" y2="152.76"/><line class="cls-1" x1="374.1" y1="179.48" x2="213.78" y2="179.48"/><line class="cls-1" x1="267.22" y1="206.2" x2="213.78" y2="206.2"/><line class="cls-1" x1="213.78" y1="19.16" x2="213.78" y2="219.56"/><line class="cls-1" x1="267.22" y1="5.8" x2="267.22" y2="219.56"/><line class="cls-1" x1="320.66" y1="5.8" x2="320.66" y2="219.56"/><line class="cls-1" x1="374.1" y1="5.8" x2="374.1" y2="219.56"/><line class="cls-1" x1="427.53" y1="5.8" x2="427.53" y2="219.56"/><line class="cls-1" x1="213.78" y1="219.56" x2="427.53" y2="219.56"/><line class="cls-1" x1="213.78" y1="206.2" x2="427.53" y2="206.2"/><line class="cls-1" x1="213.78" y1="192.84" x2="427.53" y2="192.84"/><line class="cls-1" x1="213.78" y1="179.48" x2="427.53" y2="179.48"/><line class="cls-1" x1="213.78" y1="166.12" x2="427.53" y2="166.12"/><line class="cls-1" x1="213.78" y1="152.76" x2="427.53" y2="152.76"/><line class="cls-1" x1="213.78" y1="139.4" x2="427.53" y2="139.4"/><line class="cls-1" x1="213.78" y1="126.04" x2="427.53" y2="126.04"/><line class="cls-1" x1="213.78" y1="112.68" x2="427.53" y2="112.68"/><line class="cls-1" x1="213.78" y1="99.32" x2="427.53" y2="99.32"/><line class="cls-1" x1="213.78" y1="85.96" x2="427.53" y2="85.96"/><line class="cls-1" x1="213.78" y1="72.6" x2="427.53" y2="72.6"/><line class="cls-1" x1="213.78" y1="59.24" x2="427.53" y2="59.24"/><line class="cls-1" x1="213.78" y1="45.88" x2="427.53" y2="45.88"/><line class="cls-1" x1="213.78" y1="32.52" x2="427.53" y2="32.52"/><line class="cls-1" x1="213.78" y1="19.16" x2="427.53" y2="19.16"/><line class="cls-1" x1="213.78" y1="5.8" x2="427.53" y2="5.8"/><line class="cls-1" x1="0.1" y1="286.39" x2="213.85" y2="232.95"/><line class="cls-1" x1="0.1" y1="313.11" x2="213.85" y2="259.67"/><line class="cls-1" x1="0.1" y1="339.83" x2="213.85" y2="286.39"/><line class="cls-1" x1="0.1" y1="366.55" x2="213.85" y2="313.11"/><line class="cls-1" x1="0.1" y1="393.27" x2="213.85" y2="339.83"/><line class="cls-1" x1="0.1" y1="419.98" x2="213.85" y2="366.55"/><line class="cls-1" x1="160.41" y1="433.34" x2="213.85" y2="419.98"/><line class="cls-1" x1="213.85" y1="286.39" x2="0.1" y2="232.95"/><line class="cls-1" x1="213.85" y1="313.11" x2="0.1" y2="259.67"/><line class="cls-1" x1="213.85" y1="339.83" x2="0.1" y2="286.39"/><line class="cls-1" x1="213.85" y1="366.55" x2="0.1" y2="313.11"/><line class="cls-1" x1="213.85" y1="393.27" x2="0.1" y2="339.83"/><line class="cls-1" x1="213.85" y1="419.98" x2="0.1" y2="366.55"/><line class="cls-1" x1="160.41" y1="433.34" x2="0.1" y2="393.27"/><line class="cls-1" x1="0.1" y1="419.98" x2="53.53" y2="433.34"/><line class="cls-1" x1="0.1" y1="219.59" x2="0.1" y2="433.34"/><line class="cls-1" x1="53.53" y1="232.95" x2="53.53" y2="433.34"/><line class="cls-1" x1="106.97" y1="219.59" x2="106.97" y2="433.34"/><line class="cls-1" x1="160.41" y1="219.59" x2="160.41" y2="433.34"/><line class="cls-1" x1="213.85" y1="219.59" x2="213.85" y2="433.34"/><line class="cls-1" x1="0.1" y1="433.34" x2="213.85" y2="433.34"/><line class="cls-1" x1="0.1" y1="419.98" x2="213.85" y2="419.98"/><line class="cls-1" x1="0.1" y1="406.63" x2="213.85" y2="406.63"/><line class="cls-1" x1="0.1" y1="393.27" x2="213.85" y2="393.27"/><line class="cls-1" x1="0.1" y1="379.91" x2="213.85" y2="379.91"/><line class="cls-1" x1="0.1" y1="379.91" x2="213.85" y2="379.91"/><line class="cls-1" x1="0.1" y1="353.19" x2="213.85" y2="353.19"/><line class="cls-1" x1="0.1" y1="339.83" x2="213.85" y2="339.83"/><line class="cls-1" x1="0.1" y1="326.47" x2="213.85" y2="326.47"/><line class="cls-1" x1="0.1" y1="313.11" x2="213.85" y2="313.11"/><line class="cls-1" x1="0.1" y1="299.75" x2="213.85" y2="299.75"/><line class="cls-1" x1="0.1" y1="286.39" x2="213.85" y2="286.39"/><line class="cls-1" x1="0.1" y1="273.03" x2="213.85" y2="273.03"/><line class="cls-1" x1="0.1" y1="259.67" x2="213.85" y2="259.67"/><line class="cls-1" x1="0.1" y1="246.31" x2="213.85" y2="246.31"/><line class="cls-1" x1="0.1" y1="232.95" x2="213.85" y2="232.95"/><line class="cls-1" x1="0.1" y1="219.59" x2="213.85" y2="219.59"/><line class="cls-1" x1="0.1" y1="259.67" x2="160.41" y2="219.59"/><line class="cls-1" x1="0.1" y1="232.95" x2="53.53" y2="219.59"/><line class="cls-1" x1="0.1" y1="286.39" x2="213.85" y2="232.95"/><line class="cls-1" x1="0.1" y1="313.11" x2="213.85" y2="259.67"/><line class="cls-1" x1="0.1" y1="339.83" x2="213.85" y2="286.39"/><line class="cls-1" x1="0.1" y1="366.55" x2="213.85" y2="313.11"/><line class="cls-1" x1="0.1" y1="393.27" x2="213.85" y2="339.83"/><line class="cls-1" x1="0.1" y1="419.98" x2="213.85" y2="366.55"/><line class="cls-1" x1="53.53" y1="433.34" x2="213.85" y2="393.27"/><line class="cls-1" x1="160.41" y1="419.98" x2="213.85" y2="419.98"/><line class="cls-1" x1="213.85" y1="259.67" x2="53.53" y2="219.59"/><line class="cls-1" x1="213.85" y1="232.95" x2="160.41" y2="219.59"/><line class="cls-1" x1="213.85" y1="286.39" x2="0.1" y2="232.95"/><line class="cls-1" x1="213.85" y1="313.11" x2="0.1" y2="259.67"/><line class="cls-1" x1="213.85" y1="339.83" x2="0.1" y2="286.39"/><line class="cls-1" x1="213.85" y1="366.55" x2="0.1" y2="313.11"/><line class="cls-1" x1="213.85" y1="393.27" x2="0.1" y2="339.83"/><line class="cls-1" x1="213.85" y1="419.98" x2="0.1" y2="366.55"/><line class="cls-1" x1="160.41" y1="393.27" x2="0.1" y2="393.27"/><line class="cls-1" x1="53.53" y1="419.98" x2="0.1" y2="419.98"/><line class="cls-1" x1="0.1" y1="232.95" x2="0.1" y2="433.34"/><line class="cls-1" x1="53.53" y1="219.59" x2="53.53" y2="433.34"/><line class="cls-1" x1="106.97" y1="219.59" x2="106.97" y2="433.34"/><line class="cls-1" x1="160.41" y1="219.59" x2="160.41" y2="433.34"/><line class="cls-1" x1="213.85" y1="219.59" x2="213.85" y2="433.34"/><line class="cls-1" x1="0.1" y1="433.34" x2="213.85" y2="433.34"/><line class="cls-1" x1="0.1" y1="419.98" x2="213.85" y2="419.98"/><line class="cls-1" x1="0.1" y1="406.63" x2="213.85" y2="406.63"/><line class="cls-1" x1="0.1" y1="393.27" x2="213.85" y2="393.27"/><line class="cls-1" x1="0.1" y1="379.91" x2="213.85" y2="379.91"/><line class="cls-1" x1="0.1" y1="366.55" x2="213.85" y2="366.55"/><line class="cls-1" x1="0.1" y1="353.19" x2="213.85" y2="353.19"/><line class="cls-1" x1="0.1" y1="339.83" x2="213.85" y2="339.83"/><line class="cls-1" x1="0.1" y1="326.47" x2="213.85" y2="326.47"/><line class="cls-1" x1="0.1" y1="313.11" x2="213.85" y2="313.11"/><line class="cls-1" x1="0.1" y1="299.75" x2="213.85" y2="299.75"/><line class="cls-1" x1="0.1" y1="286.39" x2="213.85" y2="286.39"/><line class="cls-1" x1="0.1" y1="273.03" x2="213.85" y2="273.03"/><line class="cls-1" x1="0.1" y1="259.67" x2="213.85" y2="259.67"/><line class="cls-1" x1="0.1" y1="246.31" x2="213.85" y2="246.31"/><line class="cls-1" x1="0.1" y1="232.95" x2="213.85" y2="232.95"/><line class="cls-1" x1="0.1" y1="219.59" x2="213.85" y2="219.59"/><line class="cls-1" x1="213.78" y1="286.36" x2="427.53" y2="232.92"/><line class="cls-1" x1="213.78" y1="313.08" x2="427.53" y2="259.64"/><line class="cls-1" x1="213.78" y1="339.79" x2="427.53" y2="286.36"/><line class="cls-1" x1="213.78" y1="366.51" x2="427.53" y2="313.08"/><line class="cls-1" x1="213.78" y1="393.23" x2="427.53" y2="339.79"/><line class="cls-1" x1="213.78" y1="419.95" x2="427.53" y2="366.51"/><line class="cls-1" x1="374.1" y1="433.31" x2="427.53" y2="419.95"/><line class="cls-1" x1="427.53" y1="286.36" x2="213.78" y2="232.92"/><line class="cls-1" x1="427.53" y1="313.08" x2="213.78" y2="259.64"/><line class="cls-1" x1="427.53" y1="339.79" x2="213.78" y2="286.36"/><line class="cls-1" x1="427.53" y1="366.51" x2="213.78" y2="313.08"/><line class="cls-1" x1="427.53" y1="393.23" x2="213.78" y2="339.79"/><line class="cls-1" x1="427.53" y1="419.95" x2="213.78" y2="366.51"/><line class="cls-1" x1="374.1" y1="433.31" x2="213.78" y2="393.23"/><line class="cls-1" x1="213.78" y1="419.95" x2="267.22" y2="433.31"/><line class="cls-1" x1="213.78" y1="219.56" x2="213.78" y2="433.31"/><line class="cls-1" x1="267.22" y1="232.92" x2="267.22" y2="433.31"/><line class="cls-1" x1="320.66" y1="219.56" x2="320.66" y2="433.31"/><line class="cls-1" x1="374.1" y1="219.56" x2="374.1" y2="433.31"/><line class="cls-1" x1="427.53" y1="219.56" x2="427.53" y2="433.31"/><line class="cls-1" x1="213.78" y1="433.31" x2="427.53" y2="433.31"/><line class="cls-1" x1="213.78" y1="419.95" x2="427.53" y2="419.95"/><line class="cls-1" x1="213.78" y1="406.59" x2="427.53" y2="406.59"/><line class="cls-1" x1="213.78" y1="393.23" x2="427.53" y2="393.23"/><line class="cls-1" x1="213.78" y1="379.87" x2="427.53" y2="379.87"/><line class="cls-1" x1="213.78" y1="379.87" x2="427.53" y2="379.87"/><line class="cls-1" x1="213.78" y1="353.15" x2="427.53" y2="353.15"/><line class="cls-1" x1="213.78" y1="339.79" x2="427.53" y2="339.79"/><line class="cls-1" x1="213.78" y1="326.43" x2="427.53" y2="326.43"/><line class="cls-1" x1="213.78" y1="313.08" x2="427.53" y2="313.08"/><line class="cls-1" x1="213.78" y1="299.72" x2="427.53" y2="299.72"/><line class="cls-1" x1="213.78" y1="286.36" x2="427.53" y2="286.36"/><line class="cls-1" x1="213.78" y1="273" x2="427.53" y2="273"/><line class="cls-1" x1="213.78" y1="259.64" x2="427.53" y2="259.64"/><line class="cls-1" x1="213.78" y1="246.28" x2="427.53" y2="246.28"/><line class="cls-1" x1="213.78" y1="232.92" x2="427.53" y2="232.92"/><line class="cls-1" x1="213.78" y1="219.56" x2="427.53" y2="219.56"/><line class="cls-1" x1="213.78" y1="259.64" x2="374.1" y2="219.56"/><line class="cls-1" x1="213.78" y1="232.92" x2="267.22" y2="219.56"/><line class="cls-1" x1="213.78" y1="286.36" x2="427.53" y2="232.92"/><line class="cls-1" x1="213.78" y1="313.08" x2="427.53" y2="259.64"/><line class="cls-1" x1="213.78" y1="339.79" x2="427.53" y2="286.36"/><line class="cls-1" x1="213.78" y1="366.51" x2="427.53" y2="313.08"/><line class="cls-1" x1="213.78" y1="393.23" x2="427.53" y2="339.79"/><line class="cls-1" x1="213.78" y1="419.95" x2="427.53" y2="366.51"/><line class="cls-1" x1="267.22" y1="433.31" x2="427.53" y2="393.23"/><line class="cls-1" x1="374.1" y1="419.95" x2="427.53" y2="419.95"/><line class="cls-1" x1="427.53" y1="259.64" x2="267.22" y2="219.56"/><line class="cls-1" x1="427.53" y1="232.92" x2="374.1" y2="219.56"/><line class="cls-1" x1="427.53" y1="286.36" x2="213.78" y2="232.92"/><line class="cls-1" x1="427.53" y1="313.08" x2="213.78" y2="259.64"/><line class="cls-1" x1="427.53" y1="339.79" x2="213.78" y2="286.36"/><line class="cls-1" x1="427.53" y1="366.51" x2="213.78" y2="313.08"/><line class="cls-1" x1="427.53" y1="393.23" x2="213.78" y2="339.79"/><line class="cls-1" x1="427.53" y1="419.95" x2="213.78" y2="366.51"/><line class="cls-1" x1="374.1" y1="393.23" x2="213.78" y2="393.23"/><line class="cls-1" x1="267.22" y1="419.95" x2="213.78" y2="419.95"/><line class="cls-1" x1="213.78" y1="232.92" x2="213.78" y2="433.31"/><line class="cls-1" x1="267.22" y1="219.56" x2="267.22" y2="433.31"/><line class="cls-1" x1="320.66" y1="219.56" x2="320.66" y2="433.31"/><line class="cls-1" x1="374.1" y1="219.56" x2="374.1" y2="433.31"/><line class="cls-1" x1="427.53" y1="219.56" x2="427.53" y2="433.31"/><line class="cls-1" x1="213.78" y1="433.31" x2="427.53" y2="433.31"/><line class="cls-1" x1="213.78" y1="419.95" x2="427.53" y2="419.95"/><line class="cls-1" x1="213.78" y1="406.59" x2="427.53" y2="406.59"/><line class="cls-1" x1="213.78" y1="393.23" x2="427.53" y2="393.23"/><line class="cls-1" x1="213.78" y1="379.87" x2="427.53" y2="379.87"/><line class="cls-1" x1="213.78" y1="366.51" x2="427.53" y2="366.51"/><line class="cls-1" x1="213.78" y1="353.15" x2="427.53" y2="353.15"/><line class="cls-1" x1="213.78" y1="339.79" x2="427.53" y2="339.79"/><line class="cls-1" x1="427.53" y1="326.43" x2="213.78" y2="326.43"/><line class="cls-1" x1="427.53" y1="313.08" x2="213.78" y2="313.08"/><line class="cls-1" x1="213.78" y1="299.72" x2="427.53" y2="299.72"/><line class="cls-1" x1="213.78" y1="286.36" x2="427.53" y2="286.36"/><line class="cls-1" x1="213.78" y1="273" x2="427.53" y2="273"/><line class="cls-1" x1="213.78" y1="259.64" x2="427.53" y2="259.64"/><line class="cls-1" x1="213.78" y1="246.28" x2="427.53" y2="246.28"/><line class="cls-1" x1="213.78" y1="232.92" x2="427.53" y2="232.92"/><line class="cls-1" x1="213.78" y1="219.56" x2="427.53" y2="219.56"/><polygon class="cls-2" points="53.53 433.34 53.47 5.8 266.62 5.8 266.62 112.28 346.05 113.35 346.05 433.31 53.53 433.34"/><rect class="cls-2" x="93.23" y="65.89" width="53.42" height="26.78" transform="translate(199.22 -40.66) rotate(90)"/><rect class="cls-2" x="173.4" y="65.89" width="53.42" height="26.78" transform="translate(279.4 -120.83) rotate(90)"/><rect class="cls-2" x="93.23" y="159.75" width="53.42" height="26.78" transform="translate(293.07 53.19) rotate(90)"/><rect class="cls-2" x="173.4" y="159.75" width="53.42" height="26.78" transform="translate(373.25 -26.98) rotate(90)"/><rect class="cls-2" x="93.23" y="253.6" width="53.42" height="26.78" transform="translate(386.92 147.04) rotate(90)"/><rect class="cls-2" x="173.4" y="253.6" width="53.42" height="26.78" transform="translate(467.1 66.87) rotate(90)"/><rect class="cls-2" x="93.23" y="347.45" width="53.42" height="26.78" transform="translate(480.77 240.9) rotate(90)"/><rect class="cls-2" x="173.4" y="347.45" width="53.42" height="26.78" transform="translate(560.95 160.72) rotate(90)"/><rect class="cls-2" x="253.58" y="159.75" width="53.42" height="26.78" transform="translate(453.43 -107.16) rotate(90)"/><rect class="cls-2" x="253.58" y="253.6" width="53.42" height="26.78" transform="translate(547.28 -13.31) rotate(90)"/><rect class="cls-2" x="253.58" y="347.45" width="53.42" height="26.78" transform="translate(641.13 80.54) rotate(90)"/></svg>