<svg id="Слой_1" data-name="Слой 1" xmlns="http://www.w3.org/2000/svg" viewBox="0 0 427.56 439.91"><defs><style>.cls-1,.cls-2{fill:none;stroke-miterlimit:10;}.cls-1{stroke:#262424;stroke-width:0.25px;}.cls-2{stroke:#000;stroke-width:12px;}</style></defs><title>pul1.ai</title><line class="cls-1" x1="0.03" y1="73.51" x2="213.78" y2="20.08"/><line class="cls-1" x1="0.03" y1="100.23" x2="213.78" y2="46.79"/><line class="cls-1" x1="0.03" y1="126.95" x2="213.78" y2="73.51"/><line class="cls-1" x1="0.03" y1="153.67" x2="213.78" y2="100.23"/><line class="cls-1" x1="0.03" y1="180.39" x2="213.78" y2="126.95"/><line class="cls-1" x1="0.03" y1="207.11" x2="213.78" y2="153.67"/><line class="cls-1" x1="160.34" y1="220.47" x2="213.78" y2="207.11"/><line class="cls-1" x1="213.78" y1="73.51" x2="0.03" y2="20.08"/><line class="cls-1" x1="213.78" y1="100.23" x2="0.03" y2="46.79"/><line class="cls-1" x1="213.78" y1="126.95" x2="0.03" y2="73.51"/><line class="cls-1" x1="213.78" y1="153.67" x2="0.03" y2="100.23"/><line class="cls-1" x1="213.78" y1="180.39" x2="0.03" y2="126.95"/><line class="cls-1" x1="213.78" y1="207.11" x2="0.03" y2="153.67"/><line class="cls-1" x1="160.34" y1="220.47" x2="0.03" y2="180.39"/><line class="cls-1" x1="0.03" y1="207.11" x2="53.47" y2="220.47"/><line class="cls-1" x1="0.03" y1="6.72" x2="0.03" y2="220.47"/><line class="cls-1" x1="53.47" y1="20.08" x2="53.47" y2="220.47"/><line class="cls-1" x1="106.91" y1="6.72" x2="106.91" y2="220.47"/><line class="cls-1" x1="160.34" y1="6.72" x2="160.34" y2="220.47"/><line class="cls-1" x1="213.78" y1="6.72" x2="213.78" y2="220.47"/><line class="cls-1" x1="0.03" y1="220.47" x2="213.78" y2="220.47"/><line class="cls-1" x1="0.03" y1="207.11" x2="213.78" y2="207.11"/><line class="cls-1" x1="0.03" y1="193.75" x2="213.78" y2="193.75"/><line class="cls-1" x1="0.03" y1="180.39" x2="213.78" y2="180.39"/><line class="cls-1" x1="0.03" y1="167.03" x2="213.78" y2="167.03"/><line class="cls-1" x1="0.03" y1="167.03" x2="213.78" y2="167.03"/><line class="cls-1" x1="0.03" y1="140.31" x2="213.78" y2="140.31"/><line class="cls-1" x1="0.03" y1="126.95" x2="213.78" y2="126.95"/><line class="cls-1" x1="0.03" y1="113.59" x2="213.78" y2="113.59"/><line class="cls-1" x1="0.03" y1="100.23" x2="213.78" y2="100.23"/><line class="cls-1" x1="0.03" y1="86.87" x2="213.78" y2="86.87"/><line class="cls-1" x1="0.03" y1="73.51" x2="213.78" y2="73.51"/><line class="cls-1" x1="0.03" y1="60.15" x2="213.78" y2="60.15"/><line class="cls-1" x1="0.03" y1="46.79" x2="213.78" y2="46.79"/><line class="cls-1" x1="0.03" y1="33.43" x2="213.78" y2="33.43"/><line class="cls-1" x1="0.03" y1="20.08" x2="213.78" y2="20.08"/><line class="cls-1" x1="0.03" y1="6.72" x2="213.78" y2="6.72"/><line class="cls-1" x1="0.03" y1="46.79" x2="160.34" y2="6.72"/><line class="cls-1" x1="0.03" y1="20.08" x2="53.47" y2="6.72"/><line class="cls-1" x1="0.03" y1="73.51" x2="213.78" y2="20.08"/><line class="cls-1" x1="0.03" y1="100.23" x2="213.78" y2="46.79"/><line class="cls-1" x1="0.03" y1="126.95" x2="213.78" y2="73.51"/><line class="cls-1" x1="0.03" y1="153.67" x2="213.78" y2="100.23"/><line class="cls-1" x1="0.03" y1="180.39" x2="213.78" y2="126.95"/><line class="cls-1" x1="0.03" y1="207.11" x2="213.78" y2="153.67"/><line class="cls-1" x1="53.47" y1="220.47" x2="213.78" y2="180.39"/><line class="cls-1" x1="160.34" y1="207.11" x2="213.78" y2="207.11"/><line class="cls-1" x1="213.78" y1="46.79" x2="53.47" y2="6.72"/><line class="cls-1" x1="213.78" y1="20.08" x2="160.34" y2="6.72"/><line class="cls-1" x1="213.78" y1="73.51" x2="0.03" y2="20.08"/><line class="cls-1" x1="213.78" y1="100.23" x2="0.03" y2="46.79"/><line class="cls-1" x1="213.78" y1="126.95" x2="0.03" y2="73.51"/><line class="cls-1" x1="213.78" y1="153.67" x2="0.03" y2="100.23"/><line class="cls-1" x1="213.78" y1="180.39" x2="0.03" y2="126.95"/><line class="cls-1" x1="213.78" y1="207.11" x2="0.03" y2="153.67"/><line class="cls-1" x1="160.34" y1="180.39" x2="0.03" y2="180.39"/><line class="cls-1" x1="53.47" y1="207.11" x2="0.03" y2="207.11"/><line class="cls-1" x1="0.03" y1="20.08" x2="0.03" y2="220.47"/><line class="cls-1" x1="53.47" y1="6.72" x2="53.47" y2="220.47"/><line class="cls-1" x1="106.91" y1="6.72" x2="106.91" y2="220.47"/><line class="cls-1" x1="160.34" y1="6.72" x2="160.34" y2="220.47"/><line class="cls-1" x1="213.78" y1="6.72" x2="213.78" y2="220.47"/><line class="cls-1" x1="0.03" y1="220.47" x2="213.78" y2="220.47"/><line class="cls-1" x1="0.03" y1="207.11" x2="213.78" y2="207.11"/><line class="cls-1" x1="0.03" y1="193.75" x2="213.78" y2="193.75"/><line class="cls-1" x1="0.03" y1="180.39" x2="213.78" y2="180.39"/><line class="cls-1" x1="0.03" y1="167.03" x2="213.78" y2="167.03"/><line class="cls-1" x1="0.03" y1="153.67" x2="213.78" y2="153.67"/><line class="cls-1" x1="0.03" y1="140.31" x2="213.78" y2="140.31"/><line class="cls-1" x1="0.03" y1="126.95" x2="213.78" y2="126.95"/><line class="cls-1" x1="0.03" y1="113.59" x2="213.78" y2="113.59"/><line class="cls-1" x1="0.03" y1="100.23" x2="213.78" y2="100.23"/><line class="cls-1" x1="0.03" y1="86.87" x2="213.78" y2="86.87"/><line class="cls-1" x1="0.03" y1="73.51" x2="213.78" y2="73.51"/><line class="cls-1" x1="0.03" y1="60.15" x2="213.78" y2="60.15"/><line class="cls-1" x1="0.03" y1="46.79" x2="213.78" y2="46.79"/><line class="cls-1" x1="0.03" y1="33.43" x2="213.78" y2="33.43"/><line class="cls-1" x1="0.03" y1="20.08" x2="213.78" y2="20.08"/><line class="cls-1" x1="0.03" y1="6.72" x2="213.78" y2="6.72"/><line class="cls-1" x1="213.78" y1="73.51" x2="427.53" y2="20.08"/><line class="cls-1" x1="213.78" y1="100.23" x2="427.53" y2="46.79"/><line class="cls-1" x1="213.78" y1="126.95" x2="427.53" y2="73.51"/><line class="cls-1" x1="213.78" y1="153.67" x2="427.53" y2="100.23"/><line class="cls-1" x1="213.78" y1="180.39" x2="427.53" y2="126.95"/><line class="cls-1" x1="213.78" y1="207.11" x2="427.53" y2="153.67"/><line class="cls-1" x1="374.1" y1="220.47" x2="427.53" y2="207.11"/><line class="cls-1" x1="427.53" y1="73.51" x2="213.78" y2="20.08"/><line class="cls-1" x1="427.53" y1="100.23" x2="213.78" y2="46.79"/><line class="cls-1" x1="427.53" y1="126.95" x2="213.78" y2="73.51"/><line class="cls-1" x1="427.53" y1="153.67" x2="213.78" y2="100.23"/><line class="cls-1" x1="427.53" y1="180.39" x2="213.78" y2="126.95"/><line class="cls-1" x1="427.53" y1="207.11" x2="213.78" y2="153.67"/><line class="cls-1" x1="374.1" y1="220.47" x2="213.78" y2="180.39"/><line class="cls-1" x1="213.78" y1="207.11" x2="267.22" y2="220.47"/><line class="cls-1" x1="213.78" y1="6.72" x2="213.78" y2="220.47"/><line class="cls-1" x1="267.22" y1="20.08" x2="267.22" y2="220.47"/><line class="cls-1" x1="320.66" y1="6.72" x2="320.66" y2="220.47"/><line class="cls-1" x1="374.1" y1="6.72" x2="374.1" y2="220.47"/><line class="cls-1" x1="427.53" y1="6.72" x2="427.53" y2="220.47"/><line class="cls-1" x1="213.78" y1="220.47" x2="427.53" y2="220.47"/><line class="cls-1" x1="213.78" y1="207.11" x2="427.53" y2="207.11"/><line class="cls-1" x1="213.78" y1="193.75" x2="427.53" y2="193.75"/><line class="cls-1" x1="213.78" y1="180.39" x2="427.53" y2="180.39"/><line class="cls-1" x1="213.78" y1="167.03" x2="427.53" y2="167.03"/><line class="cls-1" x1="213.78" y1="167.03" x2="427.53" y2="167.03"/><line class="cls-1" x1="213.78" y1="140.31" x2="427.53" y2="140.31"/><line class="cls-1" x1="213.78" y1="126.95" x2="427.53" y2="126.95"/><line class="cls-1" x1="213.78" y1="113.59" x2="427.53" y2="113.59"/><line class="cls-1" x1="213.78" y1="100.23" x2="427.53" y2="100.23"/><line class="cls-1" x1="213.78" y1="86.87" x2="427.53" y2="86.87"/><line class="cls-1" x1="213.78" y1="73.51" x2="427.53" y2="73.51"/><line class="cls-1" x1="213.78" y1="60.15" x2="427.53" y2="60.15"/><line class="cls-1" x1="213.78" y1="46.79" x2="427.53" y2="46.79"/><line class="cls-1" x1="213.78" y1="33.43" x2="427.53" y2="33.43"/><line class="cls-1" x1="213.78" y1="20.08" x2="427.53" y2="20.08"/><line class="cls-1" x1="213.78" y1="6.72" x2="427.53" y2="6.72"/><line class="cls-1" x1="213.78" y1="46.79" x2="374.1" y2="6.72"/><line class="cls-1" x1="213.78" y1="20.08" x2="267.22" y2="6.72"/><line class="cls-1" x1="213.78" y1="73.51" x2="427.53" y2="20.08"/><line class="cls-1" x1="213.78" y1="100.23" x2="427.53" y2="46.79"/><line class="cls-1" x1="213.78" y1="126.95" x2="427.53" y2="73.51"/><line class="cls-1" x1="213.78" y1="153.67" x2="427.53" y2="100.23"/><line class="cls-1" x1="213.78" y1="180.39" x2="427.53" y2="126.95"/><line class="cls-1" x1="213.78" y1="207.11" x2="427.53" y2="153.67"/><line class="cls-1" x1="267.22" y1="220.47" x2="427.53" y2="180.39"/><line class="cls-1" x1="374.1" y1="207.11" x2="427.53" y2="207.11"/><line class="cls-1" x1="427.53" y1="46.79" x2="267.22" y2="6.72"/><line class="cls-1" x1="427.53" y1="20.08" x2="374.1" y2="6.72"/><line class="cls-1" x1="427.53" y1="73.51" x2="213.78" y2="20.08"/><line class="cls-1" x1="427.53" y1="100.23" x2="213.78" y2="46.79"/><line class="cls-1" x1="427.53" y1="126.95" x2="213.78" y2="73.51"/><line class="cls-1" x1="427.53" y1="153.67" x2="213.78" y2="100.23"/><line class="cls-1" x1="427.53" y1="180.39" x2="213.78" y2="126.95"/><line class="cls-1" x1="427.53" y1="207.11" x2="213.78" y2="153.67"/><line class="cls-1" x1="374.1" y1="180.39" x2="213.78" y2="180.39"/><line class="cls-1" x1="267.22" y1="207.11" x2="213.78" y2="207.11"/><line class="cls-1" x1="213.78" y1="20.08" x2="213.78" y2="220.47"/><line class="cls-1" x1="267.22" y1="6.72" x2="267.22" y2="220.47"/><line class="cls-1" x1="320.66" y1="6.72" x2="320.66" y2="220.47"/><line class="cls-1" x1="374.1" y1="6.72" x2="374.1" y2="220.47"/><line class="cls-1" x1="427.53" y1="6.72" x2="427.53" y2="220.47"/><line class="cls-1" x1="213.78" y1="220.47" x2="427.53" y2="220.47"/><line class="cls-1" x1="213.78" y1="207.11" x2="427.53" y2="207.11"/><line class="cls-1" x1="213.78" y1="193.75" x2="427.53" y2="193.75"/><line class="cls-1" x1="213.78" y1="180.39" x2="427.53" y2="180.39"/><line class="cls-1" x1="213.78" y1="167.03" x2="427.53" y2="167.03"/><line class="cls-1" x1="213.78" y1="153.67" x2="427.53" y2="153.67"/><line class="cls-1" x1="213.78" y1="140.31" x2="427.53" y2="140.31"/><line class="cls-1" x1="213.78" y1="126.95" x2="427.53" y2="126.95"/><line class="cls-1" x1="213.78" y1="113.59" x2="427.53" y2="113.59"/><line class="cls-1" x1="213.78" y1="100.23" x2="427.53" y2="100.23"/><line class="cls-1" x1="213.78" y1="86.87" x2="427.53" y2="86.87"/><line class="cls-1" x1="213.78" y1="73.51" x2="427.53" y2="73.51"/><line class="cls-1" x1="213.78" y1="60.15" x2="427.53" y2="60.15"/><line class="cls-1" x1="213.78" y1="46.79" x2="427.53" y2="46.79"/><line class="cls-1" x1="213.78" y1="33.43" x2="427.53" y2="33.43"/><line class="cls-1" x1="213.78" y1="20.08" x2="427.53" y2="20.08"/><line class="cls-1" x1="213.78" y1="6.72" x2="427.53" y2="6.72"/><line class="cls-1" x1="0.1" y1="287.3" x2="213.85" y2="233.86"/><line class="cls-1" x1="0.1" y1="314.02" x2="213.85" y2="260.58"/><line class="cls-1" x1="0.1" y1="340.74" x2="213.85" y2="287.3"/><line class="cls-1" x1="0.1" y1="367.46" x2="213.85" y2="314.02"/><line class="cls-1" x1="0.1" y1="394.18" x2="213.85" y2="340.74"/><line class="cls-1" x1="0.1" y1="420.9" x2="213.85" y2="367.46"/><line class="cls-1" x1="160.41" y1="434.26" x2="213.85" y2="420.9"/><line class="cls-1" x1="213.85" y1="287.3" x2="0.1" y2="233.86"/><line class="cls-1" x1="213.85" y1="314.02" x2="0.1" y2="260.58"/><line class="cls-1" x1="213.85" y1="340.74" x2="0.1" y2="287.3"/><line class="cls-1" x1="213.85" y1="367.46" x2="0.1" y2="314.02"/><line class="cls-1" x1="213.85" y1="394.18" x2="0.1" y2="340.74"/><line class="cls-1" x1="213.85" y1="420.9" x2="0.1" y2="367.46"/><line class="cls-1" x1="160.41" y1="434.26" x2="0.1" y2="394.18"/><line class="cls-1" x1="0.1" y1="420.9" x2="53.53" y2="434.26"/><line class="cls-1" x1="0.1" y1="220.5" x2="0.1" y2="434.26"/><line class="cls-1" x1="53.53" y1="233.86" x2="53.53" y2="434.26"/><line class="cls-1" x1="106.97" y1="220.5" x2="106.97" y2="434.26"/><line class="cls-1" x1="160.41" y1="220.5" x2="160.41" y2="434.26"/><line class="cls-1" x1="213.85" y1="220.5" x2="213.85" y2="434.26"/><line class="cls-1" x1="0.1" y1="434.26" x2="213.85" y2="434.26"/><line class="cls-1" x1="0.1" y1="420.9" x2="213.85" y2="420.9"/><line class="cls-1" x1="0.1" y1="407.54" x2="213.85" y2="407.54"/><line class="cls-1" x1="0.1" y1="394.18" x2="213.85" y2="394.18"/><line class="cls-1" x1="0.1" y1="380.82" x2="213.85" y2="380.82"/><line class="cls-1" x1="0.1" y1="380.82" x2="213.85" y2="380.82"/><line class="cls-1" x1="0.1" y1="354.1" x2="213.85" y2="354.1"/><line class="cls-1" x1="0.1" y1="340.74" x2="213.85" y2="340.74"/><line class="cls-1" x1="0.1" y1="327.38" x2="213.85" y2="327.38"/><line class="cls-1" x1="0.1" y1="314.02" x2="213.85" y2="314.02"/><line class="cls-1" x1="0.1" y1="300.66" x2="213.85" y2="300.66"/><line class="cls-1" x1="0.1" y1="287.3" x2="213.85" y2="287.3"/><line class="cls-1" x1="0.1" y1="273.94" x2="213.85" y2="273.94"/><line class="cls-1" x1="0.1" y1="260.58" x2="213.85" y2="260.58"/><line class="cls-1" x1="0.1" y1="247.22" x2="213.85" y2="247.22"/><line class="cls-1" x1="0.1" y1="233.86" x2="213.85" y2="233.86"/><line class="cls-1" x1="0.1" y1="220.5" x2="213.85" y2="220.5"/><line class="cls-1" x1="0.1" y1="260.58" x2="160.41" y2="220.5"/><line class="cls-1" x1="0.1" y1="233.86" x2="53.53" y2="220.5"/><line class="cls-1" x1="0.1" y1="287.3" x2="213.85" y2="233.86"/><line class="cls-1" x1="0.1" y1="314.02" x2="213.85" y2="260.58"/><line class="cls-1" x1="0.1" y1="340.74" x2="213.85" y2="287.3"/><line class="cls-1" x1="0.1" y1="367.46" x2="213.85" y2="314.02"/><line class="cls-1" x1="0.1" y1="394.18" x2="213.85" y2="340.74"/><line class="cls-1" x1="0.1" y1="420.9" x2="213.85" y2="367.46"/><line class="cls-1" x1="53.53" y1="434.26" x2="213.85" y2="394.18"/><line class="cls-1" x1="160.41" y1="420.9" x2="213.85" y2="420.9"/><line class="cls-1" x1="213.85" y1="260.58" x2="53.53" y2="220.5"/><line class="cls-1" x1="213.85" y1="233.86" x2="160.41" y2="220.5"/><line class="cls-1" x1="213.85" y1="287.3" x2="0.1" y2="233.86"/><line class="cls-1" x1="213.85" y1="314.02" x2="0.1" y2="260.58"/><line class="cls-1" x1="213.85" y1="340.74" x2="0.1" y2="287.3"/><line class="cls-1" x1="213.85" y1="367.46" x2="0.1" y2="314.02"/><line class="cls-1" x1="213.85" y1="394.18" x2="0.1" y2="340.74"/><line class="cls-1" x1="213.85" y1="420.9" x2="0.1" y2="367.46"/><line class="cls-1" x1="160.41" y1="394.18" x2="0.1" y2="394.18"/><line class="cls-1" x1="53.53" y1="420.9" x2="0.1" y2="420.9"/><line class="cls-1" x1="0.1" y1="233.86" x2="0.1" y2="434.26"/><line class="cls-1" x1="53.53" y1="220.5" x2="53.53" y2="434.26"/><line class="cls-1" x1="106.97" y1="220.5" x2="106.97" y2="434.26"/><line class="cls-1" x1="160.41" y1="220.5" x2="160.41" y2="434.26"/><line class="cls-1" x1="213.85" y1="220.5" x2="213.85" y2="434.26"/><line class="cls-1" x1="0.1" y1="434.26" x2="213.85" y2="434.26"/><line class="cls-1" x1="0.1" y1="420.9" x2="213.85" y2="420.9"/><line class="cls-1" x1="0.1" y1="407.54" x2="213.85" y2="407.54"/><line class="cls-1" x1="0.1" y1="394.18" x2="213.85" y2="394.18"/><line class="cls-1" x1="0.1" y1="380.82" x2="213.85" y2="380.82"/><line class="cls-1" x1="0.1" y1="367.46" x2="213.85" y2="367.46"/><line class="cls-1" x1="0.1" y1="354.1" x2="213.85" y2="354.1"/><line class="cls-1" x1="0.1" y1="340.74" x2="213.85" y2="340.74"/><line class="cls-1" x1="0.1" y1="327.38" x2="213.85" y2="327.38"/><line class="cls-1" x1="0.1" y1="314.02" x2="213.85" y2="314.02"/><line class="cls-1" x1="0.1" y1="300.66" x2="213.85" y2="300.66"/><line class="cls-1" x1="0.1" y1="287.3" x2="213.85" y2="287.3"/><line class="cls-1" x1="0.1" y1="273.94" x2="213.85" y2="273.94"/><line class="cls-1" x1="0.1" y1="260.58" x2="213.85" y2="260.58"/><line class="cls-1" x1="0.1" y1="247.22" x2="213.85" y2="247.22"/><line class="cls-1" x1="0.1" y1="233.86" x2="213.85" y2="233.86"/><line class="cls-1" x1="0.1" y1="220.5" x2="213.85" y2="220.5"/><line class="cls-1" x1="213.78" y1="287.27" x2="427.53" y2="233.83"/><line class="cls-1" x1="213.78" y1="313.99" x2="427.53" y2="260.55"/><line class="cls-1" x1="213.78" y1="340.71" x2="427.53" y2="287.27"/><line class="cls-1" x1="213.78" y1="367.42" x2="427.53" y2="313.99"/><line class="cls-1" x1="213.78" y1="394.14" x2="427.53" y2="340.71"/><line class="cls-1" x1="213.78" y1="420.86" x2="427.53" y2="367.42"/><line class="cls-1" x1="374.1" y1="434.22" x2="427.53" y2="420.86"/><line class="cls-1" x1="427.53" y1="287.27" x2="213.78" y2="233.83"/><line class="cls-1" x1="427.53" y1="313.99" x2="213.78" y2="260.55"/><line class="cls-1" x1="427.53" y1="340.71" x2="213.78" y2="287.27"/><line class="cls-1" x1="427.53" y1="367.42" x2="213.78" y2="313.99"/><line class="cls-1" x1="427.53" y1="394.14" x2="213.78" y2="340.71"/><line class="cls-1" x1="427.53" y1="420.86" x2="213.78" y2="367.42"/><line class="cls-1" x1="374.1" y1="434.22" x2="213.78" y2="394.14"/><line class="cls-1" x1="213.78" y1="420.86" x2="267.22" y2="434.22"/><line class="cls-1" x1="213.78" y1="220.47" x2="213.78" y2="434.22"/><line class="cls-1" x1="267.22" y1="233.83" x2="267.22" y2="434.22"/><line class="cls-1" x1="320.66" y1="220.47" x2="320.66" y2="434.22"/><line class="cls-1" x1="374.1" y1="220.47" x2="374.1" y2="434.22"/><line class="cls-1" x1="427.53" y1="220.47" x2="427.53" y2="434.22"/><line class="cls-1" x1="213.78" y1="434.22" x2="427.53" y2="434.22"/><line class="cls-1" x1="213.78" y1="420.86" x2="427.53" y2="420.86"/><line class="cls-1" x1="213.78" y1="407.5" x2="427.53" y2="407.5"/><line class="cls-1" x1="213.78" y1="394.14" x2="427.53" y2="394.14"/><line class="cls-1" x1="213.78" y1="380.78" x2="427.53" y2="380.78"/><line class="cls-1" x1="213.78" y1="380.78" x2="427.53" y2="380.78"/><line class="cls-1" x1="213.78" y1="354.06" x2="427.53" y2="354.06"/><line class="cls-1" x1="213.78" y1="340.71" x2="427.53" y2="340.71"/><line class="cls-1" x1="213.78" y1="327.35" x2="427.53" y2="327.35"/><line class="cls-1" x1="213.78" y1="313.99" x2="427.53" y2="313.99"/><line class="cls-1" x1="213.78" y1="300.63" x2="427.53" y2="300.63"/><line class="cls-1" x1="213.78" y1="287.27" x2="427.53" y2="287.27"/><line class="cls-1" x1="213.78" y1="273.91" x2="427.53" y2="273.91"/><line class="cls-1" x1="213.78" y1="260.55" x2="427.53" y2="260.55"/><line class="cls-1" x1="213.78" y1="247.19" x2="427.53" y2="247.19"/><line class="cls-1" x1="213.78" y1="233.83" x2="427.53" y2="233.83"/><line class="cls-1" x1="213.78" y1="220.47" x2="427.53" y2="220.47"/><line class="cls-1" x1="213.78" y1="260.55" x2="374.1" y2="220.47"/><line class="cls-1" x1="213.78" y1="233.83" x2="267.22" y2="220.47"/><line class="cls-1" x1="213.78" y1="287.27" x2="427.53" y2="233.83"/><line class="cls-1" x1="213.78" y1="313.99" x2="427.53" y2="260.55"/><line class="cls-1" x1="213.78" y1="340.71" x2="427.53" y2="287.27"/><line class="cls-1" x1="213.78" y1="367.42" x2="427.53" y2="313.99"/><line class="cls-1" x1="213.78" y1="394.14" x2="427.53" y2="340.71"/><line class="cls-1" x1="213.78" y1="420.86" x2="427.53" y2="367.42"/><line class="cls-1" x1="267.22" y1="434.22" x2="427.53" y2="394.14"/><line class="cls-1" x1="374.1" y1="420.86" x2="427.53" y2="420.86"/><line class="cls-1" x1="427.53" y1="260.55" x2="267.22" y2="220.47"/><line class="cls-1" x1="427.53" y1="233.83" x2="374.1" y2="220.47"/><line class="cls-1" x1="427.53" y1="287.27" x2="213.78" y2="233.83"/><line class="cls-1" x1="427.53" y1="313.99" x2="213.78" y2="260.55"/><line class="cls-1" x1="427.53" y1="340.71" x2="213.78" y2="287.27"/><line class="cls-1" x1="427.53" y1="367.42" x2="213.78" y2="313.99"/><line class="cls-1" x1="427.53" y1="394.14" x2="213.78" y2="340.71"/><line class="cls-1" x1="427.53" y1="420.86" x2="213.78" y2="367.42"/><line class="cls-1" x1="374.1" y1="394.14" x2="213.78" y2="394.14"/><line class="cls-1" x1="267.22" y1="420.86" x2="213.78" y2="420.86"/><line class="cls-1" x1="213.78" y1="233.83" x2="213.78" y2="434.22"/><line class="cls-1" x1="267.22" y1="220.47" x2="267.22" y2="434.22"/><line class="cls-1" x1="320.66" y1="220.47" x2="320.66" y2="434.22"/><line class="cls-1" x1="374.1" y1="220.47" x2="374.1" y2="434.22"/><line class="cls-1" x1="427.53" y1="220.47" x2="427.53" y2="434.22"/><line class="cls-1" x1="213.78" y1="434.22" x2="427.53" y2="434.22"/><line class="cls-1" x1="213.78" y1="420.86" x2="427.53" y2="420.86"/><line class="cls-1" x1="213.78" y1="407.5" x2="427.53" y2="407.5"/><line class="cls-1" x1="213.78" y1="394.14" x2="427.53" y2="394.14"/><line class="cls-1" x1="213.78" y1="380.78" x2="427.53" y2="380.78"/><line class="cls-1" x1="213.78" y1="367.42" x2="427.53" y2="367.42"/><line class="cls-1" x1="213.78" y1="354.06" x2="427.53" y2="354.06"/><line class="cls-1" x1="213.78" y1="340.71" x2="427.53" y2="340.71"/><line class="cls-1" x1="427.53" y1="327.35" x2="213.78" y2="327.35"/><line class="cls-1" x1="427.53" y1="313.99" x2="213.78" y2="313.99"/><line class="cls-1" x1="213.78" y1="300.63" x2="427.53" y2="300.63"/><line class="cls-1" x1="213.78" y1="287.27" x2="427.53" y2="287.27"/><line class="cls-1" x1="213.78" y1="273.91" x2="427.53" y2="273.91"/><line class="cls-1" x1="213.78" y1="260.55" x2="427.53" y2="260.55"/><line class="cls-1" x1="213.78" y1="247.19" x2="427.53" y2="247.19"/><line class="cls-1" x1="213.78" y1="233.83" x2="427.53" y2="233.83"/><line class="cls-1" x1="213.78" y1="220.47" x2="427.53" y2="220.47"/><rect class="cls-2" x="53.47" y="6.72" width="320.16" height="373.61"/><path class="cls-2" d="M160.34,86.93,106.86,100V234l53.43,13.36,107-.19,53.43-13.55-.19-133.38L267.33,86.87Z"/><rect class="cls-2" x="106.72" y="33.43" width="213.94" height="26.63"/><rect class="cls-2" x="106.26" y="273.45" width="53.75" height="27.38"/><rect class="cls-2" x="267" y="273.45" width="53.75" height="27.38"/><rect class="cls-2" x="296.81" y="381.1" width="53.71" height="52.12"/><rect class="cls-2" x="79.95" y="381.1" width="53.71" height="52.12"/><polyline class="cls-2" points="403.02 141.11 403.02 72.19 371.62 73.19"/><polyline class="cls-2" points="23.37 141.11 23.37 72.19 54.77 73.19"/></svg>