<svg id="Слой_1" data-name="Слой 1" xmlns="http://www.w3.org/2000/svg" viewBox="0 0 834.12 815.44"><defs><style>.cls-1{fill:none;stroke:#000;stroke-miterlimit:10;}</style></defs><title>pul1.ai</title><line class="cls-1" x1="0.12" y1="255.01" x2="834" y2="51.39"/><line class="cls-1" x1="0.12" y1="356.82" x2="834" y2="153.2"/><line class="cls-1" x1="0.12" y1="458.62" x2="834" y2="255.01"/><line class="cls-1" x1="0.12" y1="560.43" x2="834" y2="356.82"/><line class="cls-1" x1="0.12" y1="662.24" x2="834" y2="458.62"/><line class="cls-1" x1="0.12" y1="764.05" x2="834" y2="560.43"/><line class="cls-1" x1="625.53" y1="814.95" x2="834" y2="764.05"/><line class="cls-1" x1="834" y1="255.01" x2="0.12" y2="51.39"/><line class="cls-1" x1="834" y1="356.82" x2="0.12" y2="153.2"/><line class="cls-1" x1="834" y1="458.62" x2="0.12" y2="255.01"/><line class="cls-1" x1="834" y1="560.43" x2="0.12" y2="356.82"/><line class="cls-1" x1="834" y1="662.24" x2="0.12" y2="458.62"/><line class="cls-1" x1="834" y1="764.05" x2="0.12" y2="560.43"/><line class="cls-1" x1="625.53" y1="814.95" x2="0.12" y2="662.24"/><line class="cls-1" x1="0.12" y1="764.05" x2="208.59" y2="814.95"/><line class="cls-1" x1="0.12" y1="0.49" x2="0.12" y2="814.95"/><line class="cls-1" x1="208.59" y1="51.39" x2="208.59" y2="814.95"/><line class="cls-1" x1="417.06" y1="0.49" x2="417.06" y2="814.95"/><line class="cls-1" x1="625.53" y1="0.49" x2="625.53" y2="814.95"/><line class="cls-1" x1="834" y1="0.49" x2="834" y2="814.95"/><line class="cls-1" x1="0.12" y1="814.95" x2="834" y2="814.95"/><line class="cls-1" x1="0.12" y1="764.05" x2="834" y2="764.05"/><line class="cls-1" x1="0.12" y1="713.14" x2="834" y2="713.14"/><line class="cls-1" x1="0.12" y1="662.24" x2="834" y2="662.24"/><line class="cls-1" x1="0.12" y1="611.34" x2="834" y2="611.34"/><line class="cls-1" x1="0.12" y1="611.34" x2="834" y2="611.34"/><line class="cls-1" x1="0.12" y1="509.53" x2="834" y2="509.53"/><line class="cls-1" x1="0.12" y1="458.62" x2="834" y2="458.62"/><line class="cls-1" x1="0.12" y1="407.72" x2="834" y2="407.72"/><line class="cls-1" x1="0.12" y1="356.82" x2="834" y2="356.82"/><line class="cls-1" x1="0.12" y1="305.91" x2="834" y2="305.91"/><line class="cls-1" x1="0.12" y1="255.01" x2="834" y2="255.01"/><line class="cls-1" x1="0.12" y1="204.1" x2="834" y2="204.1"/><line class="cls-1" x1="0.12" y1="153.2" x2="834" y2="153.2"/><line class="cls-1" x1="0.12" y1="102.29" x2="834" y2="102.29"/><line class="cls-1" x1="0.12" y1="51.39" x2="834" y2="51.39"/><line class="cls-1" x1="0.12" y1="0.49" x2="834" y2="0.49"/><line class="cls-1" x1="0.12" y1="153.2" x2="625.53" y2="0.49"/><line class="cls-1" x1="0.12" y1="51.39" x2="208.59" y2="0.49"/><line class="cls-1" x1="0.12" y1="255.01" x2="834" y2="51.39"/><line class="cls-1" x1="0.12" y1="356.82" x2="834" y2="153.2"/><line class="cls-1" x1="0.12" y1="458.62" x2="834" y2="255.01"/><line class="cls-1" x1="0.12" y1="560.43" x2="834" y2="356.82"/><line class="cls-1" x1="0.12" y1="662.24" x2="834" y2="458.62"/><line class="cls-1" x1="0.12" y1="764.05" x2="834" y2="560.43"/><line class="cls-1" x1="208.59" y1="814.95" x2="834" y2="662.24"/><line class="cls-1" x1="625.53" y1="764.05" x2="834" y2="764.05"/><line class="cls-1" x1="834" y1="153.2" x2="208.59" y2="0.49"/><line class="cls-1" x1="834" y1="51.39" x2="625.53" y2="0.49"/><line class="cls-1" x1="834" y1="255.01" x2="0.12" y2="51.39"/><line class="cls-1" x1="834" y1="356.82" x2="0.12" y2="153.2"/><line class="cls-1" x1="834" y1="458.62" x2="0.12" y2="255.01"/><line class="cls-1" x1="834" y1="560.43" x2="0.12" y2="356.82"/><line class="cls-1" x1="834" y1="662.24" x2="0.12" y2="458.62"/><line class="cls-1" x1="834" y1="764.05" x2="0.12" y2="560.43"/><line class="cls-1" x1="625.53" y1="662.24" x2="0.12" y2="662.24"/><line class="cls-1" x1="208.59" y1="764.05" x2="0.12" y2="764.05"/><line class="cls-1" x1="0.12" y1="51.39" x2="0.12" y2="814.95"/><line class="cls-1" x1="208.59" y1="0.49" x2="208.59" y2="814.95"/><line class="cls-1" x1="417.06" y1="0.49" x2="417.06" y2="814.95"/><line class="cls-1" x1="625.53" y1="0.49" x2="625.53" y2="814.95"/><line class="cls-1" x1="834" y1="0.49" x2="834" y2="814.95"/><line class="cls-1" x1="0.12" y1="814.95" x2="834" y2="814.95"/><line class="cls-1" x1="0.12" y1="764.05" x2="834" y2="764.05"/><line class="cls-1" x1="0.12" y1="713.14" x2="834" y2="713.14"/><line class="cls-1" x1="0.12" y1="662.24" x2="834" y2="662.24"/><line class="cls-1" x1="0.12" y1="611.34" x2="834" y2="611.34"/><line class="cls-1" x1="0.12" y1="560.43" x2="834" y2="560.43"/><line class="cls-1" x1="0.12" y1="509.53" x2="834" y2="509.53"/><line class="cls-1" x1="0.12" y1="458.62" x2="834" y2="458.62"/><line class="cls-1" x1="0.12" y1="407.72" x2="834" y2="407.72"/><line class="cls-1" x1="0.12" y1="356.82" x2="834" y2="356.82"/><line class="cls-1" x1="0.12" y1="305.91" x2="834" y2="305.91"/><line class="cls-1" x1="0.12" y1="255.01" x2="834" y2="255.01"/><line class="cls-1" x1="0.12" y1="204.1" x2="834" y2="204.1"/><line class="cls-1" x1="0.12" y1="153.2" x2="834" y2="153.2"/><line class="cls-1" x1="0.12" y1="102.29" x2="834" y2="102.29"/><line class="cls-1" x1="0.12" y1="51.39" x2="834" y2="51.39"/><line class="cls-1" x1="0.12" y1="0.49" x2="834" y2="0.49"/></svg>