<svg id="Слой_1" data-name="Слой 1" xmlns="http://www.w3.org/2000/svg" viewBox="0 0 427.56 440.37"><defs><style>.cls-1,.cls-2{fill:none;stroke-miterlimit:10;}.cls-1{stroke:#000;stroke-width:12px;}.cls-2{stroke:#cc2128;stroke-width:0.25px;}</style></defs><title>pul1.ai</title><path class="cls-1" d="M187.68,5.82h53.43l.1,66.77-53.44.1Z"/><line class="cls-2" x1="0.26" y1="73.5" x2="214.01" y2="20.06"/><line class="cls-2" x1="0.26" y1="100.22" x2="214.01" y2="46.78"/><line class="cls-2" x1="0.26" y1="126.94" x2="214.01" y2="73.5"/><line class="cls-2" x1="0.26" y1="153.66" x2="214.01" y2="100.22"/><line class="cls-2" x1="0.26" y1="180.37" x2="214.01" y2="126.94"/><line class="cls-2" x1="0.26" y1="207.09" x2="214.01" y2="153.66"/><line class="cls-2" x1="160.57" y1="220.45" x2="214.01" y2="207.09"/><line class="cls-2" x1="214.01" y1="73.5" x2="0.26" y2="20.06"/><line class="cls-2" x1="214.01" y1="100.22" x2="0.26" y2="46.78"/><line class="cls-2" x1="214.01" y1="126.94" x2="0.26" y2="73.5"/><line class="cls-2" x1="214.01" y1="153.66" x2="0.26" y2="100.22"/><line class="cls-2" x1="214.01" y1="180.37" x2="0.26" y2="126.94"/><line class="cls-2" x1="214.01" y1="207.09" x2="0.26" y2="153.66"/><line class="cls-2" x1="160.57" y1="220.45" x2="0.26" y2="180.37"/><line class="cls-2" x1="0.26" y1="207.09" x2="53.69" y2="220.45"/><line class="cls-2" x1="0.26" y1="6.7" x2="0.26" y2="220.45"/><line class="cls-2" x1="53.69" y1="20.06" x2="53.69" y2="220.45"/><line class="cls-2" x1="107.13" y1="6.7" x2="107.13" y2="220.45"/><line class="cls-2" x1="160.57" y1="6.7" x2="160.57" y2="220.45"/><line class="cls-2" x1="214.01" y1="6.7" x2="214.01" y2="220.45"/><line class="cls-2" x1="0.26" y1="220.45" x2="214.01" y2="220.45"/><line class="cls-2" x1="0.26" y1="207.09" x2="214.01" y2="207.09"/><line class="cls-2" x1="0.26" y1="193.73" x2="214.01" y2="193.73"/><line class="cls-2" x1="0.26" y1="180.37" x2="214.01" y2="180.37"/><line class="cls-2" x1="0.26" y1="167.01" x2="214.01" y2="167.01"/><line class="cls-2" x1="0.26" y1="167.01" x2="214.01" y2="167.01"/><line class="cls-2" x1="0.26" y1="140.3" x2="214.01" y2="140.3"/><line class="cls-2" x1="0.26" y1="126.94" x2="214.01" y2="126.94"/><line class="cls-2" x1="0.26" y1="113.58" x2="214.01" y2="113.58"/><line class="cls-2" x1="0.26" y1="100.22" x2="214.01" y2="100.22"/><line class="cls-2" x1="0.26" y1="86.86" x2="214.01" y2="86.86"/><line class="cls-2" x1="0.26" y1="73.5" x2="214.01" y2="73.5"/><line class="cls-2" x1="0.26" y1="60.14" x2="214.01" y2="60.14"/><line class="cls-2" x1="0.26" y1="46.78" x2="214.01" y2="46.78"/><line class="cls-2" x1="0.26" y1="33.42" x2="214.01" y2="33.42"/><line class="cls-2" x1="0.26" y1="20.06" x2="214.01" y2="20.06"/><line class="cls-2" x1="0.26" y1="6.7" x2="214.01" y2="6.7"/><line class="cls-2" x1="0.26" y1="46.78" x2="160.57" y2="6.7"/><line class="cls-2" x1="0.26" y1="20.06" x2="53.69" y2="6.7"/><line class="cls-2" x1="0.26" y1="73.5" x2="214.01" y2="20.06"/><line class="cls-2" x1="0.26" y1="100.22" x2="214.01" y2="46.78"/><line class="cls-2" x1="0.26" y1="126.94" x2="214.01" y2="73.5"/><line class="cls-2" x1="0.26" y1="153.66" x2="214.01" y2="100.22"/><line class="cls-2" x1="0.26" y1="180.37" x2="214.01" y2="126.94"/><line class="cls-2" x1="0.26" y1="207.09" x2="214.01" y2="153.66"/><line class="cls-2" x1="53.69" y1="220.45" x2="214.01" y2="180.37"/><line class="cls-2" x1="160.57" y1="207.09" x2="214.01" y2="207.09"/><line class="cls-2" x1="214.01" y1="46.78" x2="53.69" y2="6.7"/><line class="cls-2" x1="214.01" y1="20.06" x2="160.57" y2="6.7"/><line class="cls-2" x1="214.01" y1="73.5" x2="0.26" y2="20.06"/><line class="cls-2" x1="214.01" y1="100.22" x2="0.26" y2="46.78"/><line class="cls-2" x1="214.01" y1="126.94" x2="0.26" y2="73.5"/><line class="cls-2" x1="214.01" y1="153.66" x2="0.26" y2="100.22"/><line class="cls-2" x1="214.01" y1="180.37" x2="0.26" y2="126.94"/><line class="cls-2" x1="214.01" y1="207.09" x2="0.26" y2="153.66"/><line class="cls-2" x1="160.57" y1="180.37" x2="0.26" y2="180.37"/><line class="cls-2" x1="53.69" y1="207.09" x2="0.26" y2="207.09"/><line class="cls-2" x1="0.26" y1="20.06" x2="0.26" y2="220.45"/><line class="cls-2" x1="53.69" y1="6.7" x2="53.69" y2="220.45"/><line class="cls-2" x1="107.13" y1="6.7" x2="107.13" y2="220.45"/><line class="cls-2" x1="160.57" y1="6.7" x2="160.57" y2="220.45"/><line class="cls-2" x1="214.01" y1="6.7" x2="214.01" y2="220.45"/><line class="cls-2" x1="0.26" y1="220.45" x2="214.01" y2="220.45"/><line class="cls-2" x1="0.26" y1="207.09" x2="214.01" y2="207.09"/><line class="cls-2" x1="0.26" y1="193.73" x2="214.01" y2="193.73"/><line class="cls-2" x1="0.26" y1="180.37" x2="214.01" y2="180.37"/><line class="cls-2" x1="0.26" y1="167.01" x2="214.01" y2="167.01"/><line class="cls-2" x1="0.26" y1="153.66" x2="214.01" y2="153.66"/><line class="cls-2" x1="0.26" y1="140.3" x2="214.01" y2="140.3"/><line class="cls-2" x1="0.26" y1="126.94" x2="214.01" y2="126.94"/><line class="cls-2" x1="0.26" y1="113.58" x2="214.01" y2="113.58"/><line class="cls-2" x1="0.26" y1="100.22" x2="214.01" y2="100.22"/><line class="cls-2" x1="0.26" y1="86.86" x2="214.01" y2="86.86"/><line class="cls-2" x1="0.26" y1="73.5" x2="214.01" y2="73.5"/><line class="cls-2" x1="0.26" y1="60.14" x2="214.01" y2="60.14"/><line class="cls-2" x1="0.26" y1="46.78" x2="214.01" y2="46.78"/><line class="cls-2" x1="0.26" y1="33.42" x2="214.01" y2="33.42"/><line class="cls-2" x1="0.26" y1="20.06" x2="214.01" y2="20.06"/><line class="cls-2" x1="0.26" y1="6.7" x2="214.01" y2="6.7"/><line class="cls-2" x1="214.01" y1="73.5" x2="427.76" y2="20.06"/><line class="cls-2" x1="214.01" y1="100.22" x2="427.76" y2="46.78"/><line class="cls-2" x1="214.01" y1="126.94" x2="427.76" y2="73.5"/><line class="cls-2" x1="214.01" y1="153.66" x2="427.76" y2="100.22"/><line class="cls-2" x1="214.01" y1="180.37" x2="427.76" y2="126.94"/><line class="cls-2" x1="214.01" y1="207.09" x2="427.76" y2="153.66"/><line class="cls-2" x1="374.32" y1="220.45" x2="427.76" y2="207.09"/><line class="cls-2" x1="427.76" y1="73.5" x2="214.01" y2="20.06"/><line class="cls-2" x1="427.76" y1="100.22" x2="214.01" y2="46.78"/><line class="cls-2" x1="427.76" y1="126.94" x2="214.01" y2="73.5"/><line class="cls-2" x1="427.76" y1="153.66" x2="214.01" y2="100.22"/><line class="cls-2" x1="427.76" y1="180.37" x2="214.01" y2="126.94"/><line class="cls-2" x1="427.76" y1="207.09" x2="214.01" y2="153.66"/><line class="cls-2" x1="374.32" y1="220.45" x2="214.01" y2="180.37"/><line class="cls-2" x1="214.01" y1="207.09" x2="267.45" y2="220.45"/><line class="cls-2" x1="214.01" y1="6.7" x2="214.01" y2="220.45"/><line class="cls-2" x1="267.45" y1="20.06" x2="267.45" y2="220.45"/><line class="cls-2" x1="320.88" y1="6.7" x2="320.88" y2="220.45"/><line class="cls-2" x1="374.32" y1="6.7" x2="374.32" y2="220.45"/><line class="cls-2" x1="214.01" y1="220.45" x2="427.76" y2="220.45"/><line class="cls-2" x1="214.01" y1="207.09" x2="427.76" y2="207.09"/><line class="cls-2" x1="214.01" y1="193.73" x2="427.76" y2="193.73"/><line class="cls-2" x1="214.01" y1="180.37" x2="427.76" y2="180.37"/><line class="cls-2" x1="214.01" y1="167.01" x2="427.76" y2="167.01"/><line class="cls-2" x1="214.01" y1="167.01" x2="427.76" y2="167.01"/><line class="cls-2" x1="214.01" y1="140.3" x2="427.76" y2="140.3"/><line class="cls-2" x1="214.01" y1="126.94" x2="427.76" y2="126.94"/><line class="cls-2" x1="214.01" y1="113.58" x2="427.76" y2="113.58"/><line class="cls-2" x1="214.01" y1="100.22" x2="427.76" y2="100.22"/><line class="cls-2" x1="214.01" y1="86.86" x2="427.76" y2="86.86"/><line class="cls-2" x1="214.01" y1="73.5" x2="427.76" y2="73.5"/><line class="cls-2" x1="214.01" y1="60.14" x2="427.76" y2="60.14"/><line class="cls-2" x1="214.01" y1="46.78" x2="427.76" y2="46.78"/><line class="cls-2" x1="214.01" y1="33.42" x2="427.76" y2="33.42"/><line class="cls-2" x1="214.01" y1="20.06" x2="427.76" y2="20.06"/><line class="cls-2" x1="214.01" y1="6.7" x2="427.76" y2="6.7"/><line class="cls-2" x1="214.01" y1="46.78" x2="374.32" y2="6.7"/><line class="cls-2" x1="214.01" y1="20.06" x2="267.45" y2="6.7"/><line class="cls-2" x1="214.01" y1="73.5" x2="427.76" y2="20.06"/><line class="cls-2" x1="214.01" y1="100.22" x2="427.76" y2="46.78"/><line class="cls-2" x1="214.01" y1="126.94" x2="427.76" y2="73.5"/><line class="cls-2" x1="214.01" y1="153.66" x2="427.76" y2="100.22"/><line class="cls-2" x1="214.01" y1="180.37" x2="427.76" y2="126.94"/><line class="cls-2" x1="214.01" y1="207.09" x2="427.76" y2="153.66"/><line class="cls-2" x1="267.45" y1="220.45" x2="427.76" y2="180.37"/><line class="cls-2" x1="374.32" y1="207.09" x2="427.76" y2="207.09"/><line class="cls-2" x1="427.76" y1="46.78" x2="267.45" y2="6.7"/><line class="cls-2" x1="427.76" y1="20.06" x2="374.32" y2="6.7"/><line class="cls-2" x1="427.76" y1="73.5" x2="214.01" y2="20.06"/><line class="cls-2" x1="427.76" y1="100.22" x2="214.01" y2="46.78"/><line class="cls-2" x1="427.76" y1="126.94" x2="214.01" y2="73.5"/><line class="cls-2" x1="427.76" y1="153.66" x2="214.01" y2="100.22"/><line class="cls-2" x1="427.76" y1="180.37" x2="214.01" y2="126.94"/><line class="cls-2" x1="427.76" y1="207.09" x2="214.01" y2="153.66"/><line class="cls-2" x1="374.32" y1="180.37" x2="214.01" y2="180.37"/><line class="cls-2" x1="267.45" y1="207.09" x2="214.01" y2="207.09"/><line class="cls-2" x1="214.01" y1="20.06" x2="214.01" y2="220.45"/><line class="cls-2" x1="267.45" y1="6.7" x2="267.45" y2="220.45"/><line class="cls-2" x1="320.88" y1="6.7" x2="320.88" y2="220.45"/><line class="cls-2" x1="374.32" y1="6.7" x2="374.32" y2="220.45"/><line class="cls-2" x1="214.01" y1="220.45" x2="427.76" y2="220.45"/><line class="cls-2" x1="214.01" y1="207.09" x2="427.76" y2="207.09"/><line class="cls-2" x1="214.01" y1="193.73" x2="427.76" y2="193.73"/><line class="cls-2" x1="214.01" y1="180.37" x2="427.76" y2="180.37"/><line class="cls-2" x1="214.01" y1="167.01" x2="427.76" y2="167.01"/><line class="cls-2" x1="214.01" y1="153.66" x2="427.76" y2="153.66"/><line class="cls-2" x1="214.01" y1="140.3" x2="427.76" y2="140.3"/><line class="cls-2" x1="214.01" y1="126.94" x2="427.76" y2="126.94"/><line class="cls-2" x1="214.01" y1="113.58" x2="427.76" y2="113.58"/><line class="cls-2" x1="214.01" y1="100.22" x2="427.76" y2="100.22"/><line class="cls-2" x1="214.01" y1="86.86" x2="427.76" y2="86.86"/><line class="cls-2" x1="214.01" y1="73.5" x2="427.76" y2="73.5"/><line class="cls-2" x1="214.01" y1="60.14" x2="427.76" y2="60.14"/><line class="cls-2" x1="214.01" y1="46.78" x2="427.76" y2="46.78"/><line class="cls-2" x1="214.01" y1="33.42" x2="427.76" y2="33.42"/><line class="cls-2" x1="214.01" y1="20.06" x2="427.76" y2="20.06"/><line class="cls-2" x1="214.01" y1="6.7" x2="427.76" y2="6.7"/><line class="cls-2" x1="0.32" y1="287.29" x2="214.07" y2="233.85"/><line class="cls-2" x1="0.32" y1="314.01" x2="214.07" y2="260.57"/><line class="cls-2" x1="0.32" y1="340.72" x2="214.07" y2="287.29"/><line class="cls-2" x1="0.32" y1="367.44" x2="214.07" y2="314.01"/><line class="cls-2" x1="0.32" y1="394.16" x2="214.07" y2="340.72"/><line class="cls-2" x1="0.32" y1="420.88" x2="214.07" y2="367.44"/><line class="cls-2" x1="160.63" y1="434.24" x2="214.07" y2="420.88"/><line class="cls-2" x1="214.07" y1="287.29" x2="0.32" y2="233.85"/><line class="cls-2" x1="214.07" y1="314.01" x2="0.32" y2="260.57"/><line class="cls-2" x1="214.07" y1="340.72" x2="0.32" y2="287.29"/><line class="cls-2" x1="214.07" y1="367.44" x2="0.32" y2="314.01"/><line class="cls-2" x1="214.07" y1="394.16" x2="0.32" y2="340.72"/><line class="cls-2" x1="214.07" y1="420.88" x2="0.32" y2="367.44"/><line class="cls-2" x1="160.63" y1="434.24" x2="0.32" y2="394.16"/><line class="cls-2" x1="0.32" y1="420.88" x2="53.76" y2="434.24"/><line class="cls-2" x1="0.32" y1="220.49" x2="0.32" y2="434.24"/><line class="cls-2" x1="53.76" y1="233.85" x2="53.76" y2="434.24"/><line class="cls-2" x1="107.2" y1="220.49" x2="107.2" y2="434.24"/><line class="cls-2" x1="160.63" y1="220.49" x2="160.63" y2="434.24"/><line class="cls-2" x1="214.07" y1="220.49" x2="214.07" y2="434.24"/><line class="cls-2" x1="0.32" y1="434.24" x2="214.07" y2="434.24"/><line class="cls-2" x1="0.32" y1="420.88" x2="214.07" y2="420.88"/><line class="cls-2" x1="0.32" y1="407.52" x2="214.07" y2="407.52"/><line class="cls-2" x1="0.32" y1="394.16" x2="214.07" y2="394.16"/><line class="cls-2" x1="0.32" y1="380.8" x2="214.07" y2="380.8"/><line class="cls-2" x1="0.32" y1="380.8" x2="214.07" y2="380.8"/><line class="cls-2" x1="0.32" y1="354.08" x2="214.07" y2="354.08"/><line class="cls-2" x1="0.32" y1="340.72" x2="214.07" y2="340.72"/><line class="cls-2" x1="0.32" y1="327.37" x2="214.07" y2="327.37"/><line class="cls-2" x1="0.32" y1="314.01" x2="214.07" y2="314.01"/><line class="cls-2" x1="0.32" y1="300.65" x2="214.07" y2="300.65"/><line class="cls-2" x1="0.32" y1="287.29" x2="214.07" y2="287.29"/><line class="cls-2" x1="0.32" y1="273.93" x2="214.07" y2="273.93"/><line class="cls-2" x1="0.32" y1="260.57" x2="214.07" y2="260.57"/><line class="cls-2" x1="0.32" y1="247.21" x2="214.07" y2="247.21"/><line class="cls-2" x1="0.32" y1="233.85" x2="214.07" y2="233.85"/><line class="cls-2" x1="0.32" y1="220.49" x2="214.07" y2="220.49"/><line class="cls-2" x1="0.32" y1="260.57" x2="160.63" y2="220.49"/><line class="cls-2" x1="0.32" y1="233.85" x2="53.76" y2="220.49"/><line class="cls-2" x1="0.32" y1="287.29" x2="214.07" y2="233.85"/><line class="cls-2" x1="0.32" y1="314.01" x2="214.07" y2="260.57"/><line class="cls-2" x1="0.32" y1="340.72" x2="214.07" y2="287.29"/><line class="cls-2" x1="0.32" y1="367.44" x2="214.07" y2="314.01"/><line class="cls-2" x1="0.32" y1="394.16" x2="214.07" y2="340.72"/><line class="cls-2" x1="0.32" y1="420.88" x2="214.07" y2="367.44"/><line class="cls-2" x1="53.76" y1="434.24" x2="214.07" y2="394.16"/><line class="cls-2" x1="160.63" y1="420.88" x2="214.07" y2="420.88"/><line class="cls-2" x1="214.07" y1="260.57" x2="53.76" y2="220.49"/><line class="cls-2" x1="214.07" y1="233.85" x2="160.63" y2="220.49"/><line class="cls-2" x1="214.07" y1="287.29" x2="0.32" y2="233.85"/><line class="cls-2" x1="214.07" y1="314.01" x2="0.32" y2="260.57"/><line class="cls-2" x1="214.07" y1="340.72" x2="0.32" y2="287.29"/><line class="cls-2" x1="214.07" y1="367.44" x2="0.32" y2="314.01"/><line class="cls-2" x1="214.07" y1="394.16" x2="0.32" y2="340.72"/><line class="cls-2" x1="214.07" y1="420.88" x2="0.32" y2="367.44"/><line class="cls-2" x1="160.63" y1="394.16" x2="0.32" y2="394.16"/><line class="cls-2" x1="53.76" y1="420.88" x2="0.32" y2="420.88"/><line class="cls-2" x1="0.32" y1="233.85" x2="0.32" y2="434.24"/><line class="cls-2" x1="53.76" y1="220.49" x2="53.76" y2="434.24"/><line class="cls-2" x1="107.2" y1="220.49" x2="107.2" y2="434.24"/><line class="cls-2" x1="160.63" y1="220.49" x2="160.63" y2="434.24"/><line class="cls-2" x1="214.07" y1="220.49" x2="214.07" y2="434.24"/><line class="cls-2" x1="0.32" y1="434.24" x2="214.07" y2="434.24"/><line class="cls-2" x1="0.32" y1="420.88" x2="214.07" y2="420.88"/><line class="cls-2" x1="0.32" y1="407.52" x2="214.07" y2="407.52"/><line class="cls-2" x1="0.32" y1="394.16" x2="214.07" y2="394.16"/><line class="cls-2" x1="0.32" y1="380.8" x2="214.07" y2="380.8"/><line class="cls-2" x1="0.32" y1="367.44" x2="214.07" y2="367.44"/><line class="cls-2" x1="0.32" y1="354.08" x2="214.07" y2="354.08"/><line class="cls-2" x1="0.32" y1="340.72" x2="214.07" y2="340.72"/><line class="cls-2" x1="0.32" y1="327.37" x2="214.07" y2="327.37"/><line class="cls-2" x1="0.32" y1="314.01" x2="214.07" y2="314.01"/><line class="cls-2" x1="0.32" y1="300.65" x2="214.07" y2="300.65"/><line class="cls-2" x1="0.32" y1="287.29" x2="214.07" y2="287.29"/><line class="cls-2" x1="0.32" y1="273.93" x2="214.07" y2="273.93"/><line class="cls-2" x1="0.32" y1="260.57" x2="214.07" y2="260.57"/><line class="cls-2" x1="0.32" y1="247.21" x2="214.07" y2="247.21"/><line class="cls-2" x1="0.32" y1="233.85" x2="214.07" y2="233.85"/><line class="cls-2" x1="0.32" y1="220.49" x2="214.07" y2="220.49"/><line class="cls-2" x1="214.01" y1="287.25" x2="427.76" y2="233.81"/><line class="cls-2" x1="214.01" y1="313.97" x2="427.76" y2="260.53"/><line class="cls-2" x1="214.01" y1="340.69" x2="427.76" y2="287.25"/><line class="cls-2" x1="214.01" y1="367.41" x2="427.76" y2="313.97"/><line class="cls-2" x1="214.01" y1="394.13" x2="427.76" y2="340.69"/><line class="cls-2" x1="214.01" y1="420.85" x2="427.76" y2="367.41"/><line class="cls-2" x1="374.32" y1="434.21" x2="427.76" y2="420.85"/><line class="cls-2" x1="427.76" y1="287.25" x2="214.01" y2="233.81"/><line class="cls-2" x1="427.76" y1="313.97" x2="214.01" y2="260.53"/><line class="cls-2" x1="427.76" y1="340.69" x2="214.01" y2="287.25"/><line class="cls-2" x1="427.76" y1="367.41" x2="214.01" y2="313.97"/><line class="cls-2" x1="427.76" y1="394.13" x2="214.01" y2="340.69"/><line class="cls-2" x1="427.76" y1="420.85" x2="214.01" y2="367.41"/><line class="cls-2" x1="374.32" y1="434.21" x2="214.01" y2="394.13"/><line class="cls-2" x1="214.01" y1="420.85" x2="267.45" y2="434.21"/><line class="cls-2" x1="214.01" y1="220.46" x2="214.01" y2="434.21"/><line class="cls-2" x1="267.45" y1="233.81" x2="267.45" y2="434.21"/><line class="cls-2" x1="320.88" y1="220.46" x2="320.88" y2="434.21"/><line class="cls-2" x1="374.32" y1="220.46" x2="374.32" y2="434.21"/><line class="cls-2" x1="214.01" y1="434.21" x2="427.76" y2="434.21"/><line class="cls-2" x1="214.01" y1="420.85" x2="427.76" y2="420.85"/><line class="cls-2" x1="214.01" y1="407.49" x2="427.76" y2="407.49"/><line class="cls-2" x1="214.01" y1="394.13" x2="427.76" y2="394.13"/><line class="cls-2" x1="214.01" y1="380.77" x2="427.76" y2="380.77"/><line class="cls-2" x1="214.01" y1="380.77" x2="427.76" y2="380.77"/><line class="cls-2" x1="214.01" y1="354.05" x2="427.76" y2="354.05"/><line class="cls-2" x1="214.01" y1="340.69" x2="427.76" y2="340.69"/><line class="cls-2" x1="214.01" y1="327.33" x2="427.76" y2="327.33"/><line class="cls-2" x1="214.01" y1="313.97" x2="427.76" y2="313.97"/><line class="cls-2" x1="214.01" y1="300.61" x2="427.76" y2="300.61"/><line class="cls-2" x1="214.01" y1="287.25" x2="427.76" y2="287.25"/><line class="cls-2" x1="214.01" y1="273.89" x2="427.76" y2="273.89"/><line class="cls-2" x1="214.01" y1="260.53" x2="427.76" y2="260.53"/><line class="cls-2" x1="214.01" y1="247.17" x2="427.76" y2="247.17"/><line class="cls-2" x1="214.01" y1="233.81" x2="427.76" y2="233.81"/><line class="cls-2" x1="214.01" y1="220.46" x2="427.76" y2="220.46"/><line class="cls-2" x1="214.01" y1="260.53" x2="374.32" y2="220.46"/><line class="cls-2" x1="214.01" y1="233.81" x2="267.45" y2="220.46"/><line class="cls-2" x1="214.01" y1="287.25" x2="427.76" y2="233.81"/><line class="cls-2" x1="214.01" y1="313.97" x2="427.76" y2="260.53"/><line class="cls-2" x1="214.01" y1="340.69" x2="427.76" y2="287.25"/><line class="cls-2" x1="214.01" y1="367.41" x2="427.76" y2="313.97"/><line class="cls-2" x1="214.01" y1="394.13" x2="427.76" y2="340.69"/><line class="cls-2" x1="214.01" y1="420.85" x2="427.76" y2="367.41"/><line class="cls-2" x1="267.45" y1="434.21" x2="427.76" y2="394.13"/><line class="cls-2" x1="374.32" y1="420.85" x2="427.76" y2="420.85"/><line class="cls-2" x1="427.76" y1="260.53" x2="267.45" y2="220.46"/><line class="cls-2" x1="427.76" y1="233.81" x2="374.32" y2="220.46"/><line class="cls-2" x1="427.76" y1="287.25" x2="214.01" y2="233.81"/><line class="cls-2" x1="427.76" y1="313.97" x2="214.01" y2="260.53"/><line class="cls-2" x1="427.76" y1="340.69" x2="214.01" y2="287.25"/><line class="cls-2" x1="427.76" y1="367.41" x2="214.01" y2="313.97"/><line class="cls-2" x1="427.76" y1="394.13" x2="214.01" y2="340.69"/><line class="cls-2" x1="427.76" y1="420.85" x2="214.01" y2="367.41"/><line class="cls-2" x1="374.32" y1="394.13" x2="214.01" y2="394.13"/><line class="cls-2" x1="267.45" y1="420.85" x2="214.01" y2="420.85"/><line class="cls-2" x1="214.01" y1="233.81" x2="214.01" y2="434.21"/><line class="cls-2" x1="267.45" y1="220.46" x2="267.45" y2="434.21"/><line class="cls-2" x1="320.88" y1="220.46" x2="320.88" y2="434.21"/><line class="cls-2" x1="374.32" y1="220.46" x2="374.32" y2="434.21"/><line class="cls-2" x1="214.01" y1="434.21" x2="427.76" y2="434.21"/><line class="cls-2" x1="214.01" y1="420.85" x2="427.76" y2="420.85"/><line class="cls-2" x1="214.01" y1="407.49" x2="427.76" y2="407.49"/><line class="cls-2" x1="214.01" y1="394.13" x2="427.76" y2="394.13"/><line class="cls-2" x1="214.01" y1="380.77" x2="427.76" y2="380.77"/><line class="cls-2" x1="214.01" y1="367.41" x2="427.76" y2="367.41"/><line class="cls-2" x1="214.01" y1="354.05" x2="427.76" y2="354.05"/><line class="cls-2" x1="214.01" y1="340.69" x2="427.76" y2="340.69"/><line class="cls-2" x1="427.76" y1="327.33" x2="214.01" y2="327.33"/><line class="cls-2" x1="427.76" y1="313.97" x2="214.01" y2="313.97"/><line class="cls-2" x1="214.01" y1="300.61" x2="427.76" y2="300.61"/><line class="cls-2" x1="214.01" y1="287.25" x2="427.76" y2="287.25"/><line class="cls-2" x1="214.01" y1="273.89" x2="427.76" y2="273.89"/><line class="cls-2" x1="214.01" y1="260.53" x2="427.76" y2="260.53"/><line class="cls-2" x1="214.01" y1="247.17" x2="427.76" y2="247.17"/><line class="cls-2" x1="214.01" y1="233.81" x2="427.76" y2="233.81"/><line class="cls-2" x1="214.01" y1="220.46" x2="427.76" y2="220.46"/><polygon class="cls-1" points="187.8 100.24 240.68 100.24 267.54 112.3 347.17 434.3 80.21 435.03 160.66 112.3 187.8 100.24"/><line class="cls-1" x1="296.11" y1="220.19" x2="129.52" y2="220.19"/></svg>