<svg id="Слой_1" data-name="Слой 1" xmlns="http://www.w3.org/2000/svg" viewBox="0 0 427.56 440.37"><defs><style>.cls-1,.cls-2{fill:none;stroke-miterlimit:10;}.cls-1{stroke:#cc2128;stroke-width:0.25px;}.cls-2{stroke:#000;stroke-width:12px;}</style></defs><title>pul1.ai</title><line class="cls-1" x1="0.03" y1="73.56" x2="213.78" y2="20.13"/><line class="cls-1" x1="0.03" y1="100.28" x2="213.78" y2="46.84"/><line class="cls-1" x1="0.03" y1="127" x2="213.78" y2="73.56"/><line class="cls-1" x1="0.03" y1="153.72" x2="213.78" y2="100.28"/><line class="cls-1" x1="0.03" y1="180.44" x2="213.78" y2="127"/><line class="cls-1" x1="0.03" y1="207.16" x2="213.78" y2="153.72"/><line class="cls-1" x1="160.34" y1="220.52" x2="213.78" y2="207.16"/><line class="cls-1" x1="213.78" y1="73.56" x2="0.03" y2="20.13"/><line class="cls-1" x1="213.78" y1="100.28" x2="0.03" y2="46.84"/><line class="cls-1" x1="213.78" y1="127" x2="0.03" y2="73.56"/><line class="cls-1" x1="213.78" y1="153.72" x2="0.03" y2="100.28"/><line class="cls-1" x1="213.78" y1="180.44" x2="0.03" y2="127"/><line class="cls-1" x1="213.78" y1="207.16" x2="0.03" y2="153.72"/><line class="cls-1" x1="160.34" y1="220.52" x2="0.03" y2="180.44"/><line class="cls-1" x1="0.03" y1="207.16" x2="53.47" y2="220.52"/><line class="cls-1" x1="0.03" y1="6.77" x2="0.03" y2="220.52"/><line class="cls-1" x1="53.47" y1="20.13" x2="53.47" y2="220.52"/><line class="cls-1" x1="106.91" y1="6.77" x2="106.91" y2="220.52"/><line class="cls-1" x1="160.34" y1="6.77" x2="160.34" y2="220.52"/><line class="cls-1" x1="213.78" y1="6.77" x2="213.78" y2="220.52"/><line class="cls-1" x1="0.03" y1="220.52" x2="213.78" y2="220.52"/><line class="cls-1" x1="0.03" y1="207.16" x2="213.78" y2="207.16"/><line class="cls-1" x1="0.03" y1="193.8" x2="213.78" y2="193.8"/><line class="cls-1" x1="0.03" y1="180.44" x2="213.78" y2="180.44"/><line class="cls-1" x1="0.03" y1="167.08" x2="213.78" y2="167.08"/><line class="cls-1" x1="0.03" y1="167.08" x2="213.78" y2="167.08"/><line class="cls-1" x1="0.03" y1="140.36" x2="213.78" y2="140.36"/><line class="cls-1" x1="0.03" y1="127" x2="213.78" y2="127"/><line class="cls-1" x1="0.03" y1="113.64" x2="213.78" y2="113.64"/><line class="cls-1" x1="0.03" y1="100.28" x2="213.78" y2="100.28"/><line class="cls-1" x1="0.03" y1="86.92" x2="213.78" y2="86.92"/><line class="cls-1" x1="0.03" y1="73.56" x2="213.78" y2="73.56"/><line class="cls-1" x1="0.03" y1="60.2" x2="213.78" y2="60.2"/><line class="cls-1" x1="0.03" y1="46.84" x2="213.78" y2="46.84"/><line class="cls-1" x1="0.03" y1="33.48" x2="213.78" y2="33.48"/><line class="cls-1" x1="0.03" y1="20.13" x2="213.78" y2="20.13"/><line class="cls-1" x1="0.03" y1="6.77" x2="213.78" y2="6.77"/><line class="cls-1" x1="0.03" y1="46.84" x2="160.34" y2="6.77"/><line class="cls-1" x1="0.03" y1="20.13" x2="53.47" y2="6.77"/><line class="cls-1" x1="0.03" y1="73.56" x2="213.78" y2="20.13"/><line class="cls-1" x1="0.03" y1="100.28" x2="213.78" y2="46.84"/><line class="cls-1" x1="0.03" y1="127" x2="213.78" y2="73.56"/><line class="cls-1" x1="0.03" y1="153.72" x2="213.78" y2="100.28"/><line class="cls-1" x1="0.03" y1="180.44" x2="213.78" y2="127"/><line class="cls-1" x1="0.03" y1="207.16" x2="213.78" y2="153.72"/><line class="cls-1" x1="53.47" y1="220.52" x2="213.78" y2="180.44"/><line class="cls-1" x1="160.34" y1="207.16" x2="213.78" y2="207.16"/><line class="cls-1" x1="213.78" y1="46.84" x2="53.47" y2="6.77"/><line class="cls-1" x1="213.78" y1="20.13" x2="160.34" y2="6.77"/><line class="cls-1" x1="213.78" y1="73.56" x2="0.03" y2="20.13"/><line class="cls-1" x1="213.78" y1="100.28" x2="0.03" y2="46.84"/><line class="cls-1" x1="213.78" y1="127" x2="0.03" y2="73.56"/><line class="cls-1" x1="213.78" y1="153.72" x2="0.03" y2="100.28"/><line class="cls-1" x1="213.78" y1="180.44" x2="0.03" y2="127"/><line class="cls-1" x1="213.78" y1="207.16" x2="0.03" y2="153.72"/><line class="cls-1" x1="160.34" y1="180.44" x2="0.03" y2="180.44"/><line class="cls-1" x1="53.47" y1="207.16" x2="0.03" y2="207.16"/><line class="cls-1" x1="0.03" y1="20.13" x2="0.03" y2="220.52"/><line class="cls-1" x1="53.47" y1="6.77" x2="53.47" y2="220.52"/><line class="cls-1" x1="106.91" y1="6.77" x2="106.91" y2="220.52"/><line class="cls-1" x1="160.34" y1="6.77" x2="160.34" y2="220.52"/><line class="cls-1" x1="213.78" y1="6.77" x2="213.78" y2="220.52"/><line class="cls-1" x1="0.03" y1="220.52" x2="213.78" y2="220.52"/><line class="cls-1" x1="0.03" y1="207.16" x2="213.78" y2="207.16"/><line class="cls-1" x1="0.03" y1="193.8" x2="213.78" y2="193.8"/><line class="cls-1" x1="0.03" y1="180.44" x2="213.78" y2="180.44"/><line class="cls-1" x1="0.03" y1="167.08" x2="213.78" y2="167.08"/><line class="cls-1" x1="0.03" y1="153.72" x2="213.78" y2="153.72"/><line class="cls-1" x1="0.03" y1="140.36" x2="213.78" y2="140.36"/><line class="cls-1" x1="0.03" y1="127" x2="213.78" y2="127"/><line class="cls-1" x1="0.03" y1="113.64" x2="213.78" y2="113.64"/><line class="cls-1" x1="0.03" y1="100.28" x2="213.78" y2="100.28"/><line class="cls-1" x1="0.03" y1="86.92" x2="213.78" y2="86.92"/><line class="cls-1" x1="0.03" y1="73.56" x2="213.78" y2="73.56"/><line class="cls-1" x1="0.03" y1="60.2" x2="213.78" y2="60.2"/><line class="cls-1" x1="0.03" y1="46.84" x2="213.78" y2="46.84"/><line class="cls-1" x1="0.03" y1="33.48" x2="213.78" y2="33.48"/><line class="cls-1" x1="0.03" y1="20.13" x2="213.78" y2="20.13"/><line class="cls-1" x1="0.03" y1="6.77" x2="213.78" y2="6.77"/><line class="cls-1" x1="213.78" y1="73.56" x2="427.53" y2="20.13"/><line class="cls-1" x1="213.78" y1="100.28" x2="427.53" y2="46.84"/><line class="cls-1" x1="213.78" y1="127" x2="427.53" y2="73.56"/><line class="cls-1" x1="213.78" y1="153.72" x2="427.53" y2="100.28"/><line class="cls-1" x1="213.78" y1="180.44" x2="427.53" y2="127"/><line class="cls-1" x1="213.78" y1="207.16" x2="427.53" y2="153.72"/><line class="cls-1" x1="374.1" y1="220.52" x2="427.53" y2="207.16"/><line class="cls-1" x1="427.53" y1="73.56" x2="213.78" y2="20.13"/><line class="cls-1" x1="427.53" y1="100.28" x2="213.78" y2="46.84"/><line class="cls-1" x1="427.53" y1="127" x2="213.78" y2="73.56"/><line class="cls-1" x1="427.53" y1="153.72" x2="213.78" y2="100.28"/><line class="cls-1" x1="427.53" y1="180.44" x2="213.78" y2="127"/><line class="cls-1" x1="427.53" y1="207.16" x2="213.78" y2="153.72"/><line class="cls-1" x1="374.1" y1="220.52" x2="213.78" y2="180.44"/><line class="cls-1" x1="213.78" y1="207.16" x2="267.22" y2="220.52"/><line class="cls-1" x1="213.78" y1="6.77" x2="213.78" y2="220.52"/><line class="cls-1" x1="267.22" y1="20.13" x2="267.22" y2="220.52"/><line class="cls-1" x1="320.66" y1="6.77" x2="320.66" y2="220.52"/><line class="cls-1" x1="374.1" y1="6.77" x2="374.1" y2="220.52"/><line class="cls-1" x1="427.53" y1="6.77" x2="427.53" y2="220.52"/><line class="cls-1" x1="213.78" y1="220.52" x2="427.53" y2="220.52"/><line class="cls-1" x1="213.78" y1="207.16" x2="427.53" y2="207.16"/><line class="cls-1" x1="213.78" y1="193.8" x2="427.53" y2="193.8"/><line class="cls-1" x1="213.78" y1="180.44" x2="427.53" y2="180.44"/><line class="cls-1" x1="213.78" y1="167.08" x2="427.53" y2="167.08"/><line class="cls-1" x1="213.78" y1="167.08" x2="427.53" y2="167.08"/><line class="cls-1" x1="213.78" y1="140.36" x2="427.53" y2="140.36"/><line class="cls-1" x1="213.78" y1="127" x2="427.53" y2="127"/><line class="cls-1" x1="213.78" y1="113.64" x2="427.53" y2="113.64"/><line class="cls-1" x1="213.78" y1="100.28" x2="427.53" y2="100.28"/><line class="cls-1" x1="213.78" y1="86.92" x2="427.53" y2="86.92"/><line class="cls-1" x1="213.78" y1="73.56" x2="427.53" y2="73.56"/><line class="cls-1" x1="213.78" y1="60.2" x2="427.53" y2="60.2"/><line class="cls-1" x1="213.78" y1="46.84" x2="427.53" y2="46.84"/><line class="cls-1" x1="213.78" y1="33.48" x2="427.53" y2="33.48"/><line class="cls-1" x1="213.78" y1="20.13" x2="427.53" y2="20.13"/><line class="cls-1" x1="213.78" y1="6.77" x2="427.53" y2="6.77"/><line class="cls-1" x1="213.78" y1="46.84" x2="374.1" y2="6.77"/><line class="cls-1" x1="213.78" y1="20.13" x2="267.22" y2="6.77"/><line class="cls-1" x1="213.78" y1="73.56" x2="427.53" y2="20.13"/><line class="cls-1" x1="213.78" y1="100.28" x2="427.53" y2="46.84"/><line class="cls-1" x1="213.78" y1="127" x2="427.53" y2="73.56"/><line class="cls-1" x1="213.78" y1="153.72" x2="427.53" y2="100.28"/><line class="cls-1" x1="213.78" y1="180.44" x2="427.53" y2="127"/><line class="cls-1" x1="213.78" y1="207.16" x2="427.53" y2="153.72"/><line class="cls-1" x1="267.22" y1="220.52" x2="427.53" y2="180.44"/><line class="cls-1" x1="374.1" y1="207.16" x2="427.53" y2="207.16"/><line class="cls-1" x1="427.53" y1="46.84" x2="267.22" y2="6.77"/><line class="cls-1" x1="427.53" y1="20.13" x2="374.1" y2="6.77"/><line class="cls-1" x1="427.53" y1="73.56" x2="213.78" y2="20.13"/><line class="cls-1" x1="427.53" y1="100.28" x2="213.78" y2="46.84"/><line class="cls-1" x1="427.53" y1="127" x2="213.78" y2="73.56"/><line class="cls-1" x1="427.53" y1="153.72" x2="213.78" y2="100.28"/><line class="cls-1" x1="427.53" y1="180.44" x2="213.78" y2="127"/><line class="cls-1" x1="427.53" y1="207.16" x2="213.78" y2="153.72"/><line class="cls-1" x1="374.1" y1="180.44" x2="213.78" y2="180.44"/><line class="cls-1" x1="267.22" y1="207.16" x2="213.78" y2="207.16"/><line class="cls-1" x1="213.78" y1="20.13" x2="213.78" y2="220.52"/><line class="cls-1" x1="267.22" y1="6.77" x2="267.22" y2="220.52"/><line class="cls-1" x1="320.66" y1="6.77" x2="320.66" y2="220.52"/><line class="cls-1" x1="374.1" y1="6.77" x2="374.1" y2="220.52"/><line class="cls-1" x1="427.53" y1="6.77" x2="427.53" y2="220.52"/><line class="cls-1" x1="213.78" y1="220.52" x2="427.53" y2="220.52"/><line class="cls-1" x1="213.78" y1="207.16" x2="427.53" y2="207.16"/><line class="cls-1" x1="213.78" y1="193.8" x2="427.53" y2="193.8"/><line class="cls-1" x1="213.78" y1="180.44" x2="427.53" y2="180.44"/><line class="cls-1" x1="213.78" y1="167.08" x2="427.53" y2="167.08"/><line class="cls-1" x1="213.78" y1="153.72" x2="427.53" y2="153.72"/><line class="cls-1" x1="213.78" y1="140.36" x2="427.53" y2="140.36"/><line class="cls-1" x1="213.78" y1="127" x2="427.53" y2="127"/><line class="cls-1" x1="213.78" y1="113.64" x2="427.53" y2="113.64"/><line class="cls-1" x1="213.78" y1="100.28" x2="427.53" y2="100.28"/><line class="cls-1" x1="213.78" y1="86.92" x2="427.53" y2="86.92"/><line class="cls-1" x1="213.78" y1="73.56" x2="427.53" y2="73.56"/><line class="cls-1" x1="213.78" y1="60.2" x2="427.53" y2="60.2"/><line class="cls-1" x1="213.78" y1="46.84" x2="427.53" y2="46.84"/><line class="cls-1" x1="213.78" y1="33.48" x2="427.53" y2="33.48"/><line class="cls-1" x1="213.78" y1="20.13" x2="427.53" y2="20.13"/><line class="cls-1" x1="213.78" y1="6.77" x2="427.53" y2="6.77"/><line class="cls-1" x1="0.1" y1="287.35" x2="213.85" y2="233.91"/><line class="cls-1" x1="0.1" y1="314.07" x2="213.85" y2="260.63"/><line class="cls-1" x1="0.1" y1="340.79" x2="213.85" y2="287.35"/><line class="cls-1" x1="0.1" y1="367.51" x2="213.85" y2="314.07"/><line class="cls-1" x1="0.1" y1="394.23" x2="213.85" y2="340.79"/><line class="cls-1" x1="0.1" y1="420.95" x2="213.85" y2="367.51"/><line class="cls-1" x1="160.41" y1="434.31" x2="213.85" y2="420.95"/><line class="cls-1" x1="213.85" y1="287.35" x2="0.1" y2="233.91"/><line class="cls-1" x1="213.85" y1="314.07" x2="0.1" y2="260.63"/><line class="cls-1" x1="213.85" y1="340.79" x2="0.1" y2="287.35"/><line class="cls-1" x1="213.85" y1="367.51" x2="0.1" y2="314.07"/><line class="cls-1" x1="213.85" y1="394.23" x2="0.1" y2="340.79"/><line class="cls-1" x1="213.85" y1="420.95" x2="0.1" y2="367.51"/><line class="cls-1" x1="160.41" y1="434.31" x2="0.1" y2="394.23"/><line class="cls-1" x1="0.1" y1="420.95" x2="53.53" y2="434.31"/><line class="cls-1" x1="0.1" y1="220.55" x2="0.1" y2="434.31"/><line class="cls-1" x1="53.53" y1="233.91" x2="53.53" y2="434.31"/><line class="cls-1" x1="106.97" y1="220.55" x2="106.97" y2="434.31"/><line class="cls-1" x1="160.41" y1="220.55" x2="160.41" y2="434.31"/><line class="cls-1" x1="213.85" y1="220.55" x2="213.85" y2="434.31"/><line class="cls-1" x1="0.1" y1="434.31" x2="213.85" y2="434.31"/><line class="cls-1" x1="0.1" y1="420.95" x2="213.85" y2="420.95"/><line class="cls-1" x1="0.1" y1="407.59" x2="213.85" y2="407.59"/><line class="cls-1" x1="0.1" y1="394.23" x2="213.85" y2="394.23"/><line class="cls-1" x1="0.1" y1="380.87" x2="213.85" y2="380.87"/><line class="cls-1" x1="0.1" y1="380.87" x2="213.85" y2="380.87"/><line class="cls-1" x1="0.1" y1="354.15" x2="213.85" y2="354.15"/><line class="cls-1" x1="0.1" y1="340.79" x2="213.85" y2="340.79"/><line class="cls-1" x1="0.1" y1="327.43" x2="213.85" y2="327.43"/><line class="cls-1" x1="0.1" y1="314.07" x2="213.85" y2="314.07"/><line class="cls-1" x1="0.1" y1="300.71" x2="213.85" y2="300.71"/><line class="cls-1" x1="0.1" y1="287.35" x2="213.85" y2="287.35"/><line class="cls-1" x1="0.1" y1="273.99" x2="213.85" y2="273.99"/><line class="cls-1" x1="0.1" y1="260.63" x2="213.85" y2="260.63"/><line class="cls-1" x1="0.1" y1="247.27" x2="213.85" y2="247.27"/><line class="cls-1" x1="0.1" y1="233.91" x2="213.85" y2="233.91"/><line class="cls-1" x1="0.1" y1="220.55" x2="213.85" y2="220.55"/><line class="cls-1" x1="0.1" y1="260.63" x2="160.41" y2="220.55"/><line class="cls-1" x1="0.1" y1="233.91" x2="53.53" y2="220.55"/><line class="cls-1" x1="0.1" y1="287.35" x2="213.85" y2="233.91"/><line class="cls-1" x1="0.1" y1="314.07" x2="213.85" y2="260.63"/><line class="cls-1" x1="0.1" y1="340.79" x2="213.85" y2="287.35"/><line class="cls-1" x1="0.1" y1="367.51" x2="213.85" y2="314.07"/><line class="cls-1" x1="0.1" y1="394.23" x2="213.85" y2="340.79"/><line class="cls-1" x1="0.1" y1="420.95" x2="213.85" y2="367.51"/><line class="cls-1" x1="53.53" y1="434.31" x2="213.85" y2="394.23"/><line class="cls-1" x1="160.41" y1="420.95" x2="213.85" y2="420.95"/><line class="cls-1" x1="213.85" y1="260.63" x2="53.53" y2="220.55"/><line class="cls-1" x1="213.85" y1="233.91" x2="160.41" y2="220.55"/><line class="cls-1" x1="213.85" y1="287.35" x2="0.1" y2="233.91"/><line class="cls-1" x1="213.85" y1="314.07" x2="0.1" y2="260.63"/><line class="cls-1" x1="213.85" y1="340.79" x2="0.1" y2="287.35"/><line class="cls-1" x1="213.85" y1="367.51" x2="0.1" y2="314.07"/><line class="cls-1" x1="213.85" y1="394.23" x2="0.1" y2="340.79"/><line class="cls-1" x1="213.85" y1="420.95" x2="0.1" y2="367.51"/><line class="cls-1" x1="160.41" y1="394.23" x2="0.1" y2="394.23"/><line class="cls-1" x1="53.53" y1="420.95" x2="0.1" y2="420.95"/><line class="cls-1" x1="0.1" y1="233.91" x2="0.1" y2="434.31"/><line class="cls-1" x1="53.53" y1="220.55" x2="53.53" y2="434.31"/><line class="cls-1" x1="106.97" y1="220.55" x2="106.97" y2="434.31"/><line class="cls-1" x1="160.41" y1="220.55" x2="160.41" y2="434.31"/><line class="cls-1" x1="213.85" y1="220.55" x2="213.85" y2="434.31"/><line class="cls-1" x1="0.1" y1="434.31" x2="213.85" y2="434.31"/><line class="cls-1" x1="0.1" y1="420.95" x2="213.85" y2="420.95"/><line class="cls-1" x1="0.1" y1="407.59" x2="213.85" y2="407.59"/><line class="cls-1" x1="0.1" y1="394.23" x2="213.85" y2="394.23"/><line class="cls-1" x1="0.1" y1="380.87" x2="213.85" y2="380.87"/><line class="cls-1" x1="0.1" y1="367.51" x2="213.85" y2="367.51"/><line class="cls-1" x1="0.1" y1="354.15" x2="213.85" y2="354.15"/><line class="cls-1" x1="0.1" y1="340.79" x2="213.85" y2="340.79"/><line class="cls-1" x1="0.1" y1="327.43" x2="213.85" y2="327.43"/><line class="cls-1" x1="0.1" y1="314.07" x2="213.85" y2="314.07"/><line class="cls-1" x1="0.1" y1="300.71" x2="213.85" y2="300.71"/><line class="cls-1" x1="0.1" y1="287.35" x2="213.85" y2="287.35"/><line class="cls-1" x1="0.1" y1="273.99" x2="213.85" y2="273.99"/><line class="cls-1" x1="0.1" y1="260.63" x2="213.85" y2="260.63"/><line class="cls-1" x1="0.1" y1="247.27" x2="213.85" y2="247.27"/><line class="cls-1" x1="0.1" y1="233.91" x2="213.85" y2="233.91"/><line class="cls-1" x1="0.1" y1="220.55" x2="213.85" y2="220.55"/><line class="cls-1" x1="213.78" y1="287.32" x2="427.53" y2="233.88"/><line class="cls-1" x1="213.78" y1="314.04" x2="427.53" y2="260.6"/><line class="cls-1" x1="213.78" y1="340.76" x2="427.53" y2="287.32"/><line class="cls-1" x1="213.78" y1="367.47" x2="427.53" y2="314.04"/><line class="cls-1" x1="213.78" y1="394.19" x2="427.53" y2="340.76"/><line class="cls-1" x1="213.78" y1="420.91" x2="427.53" y2="367.47"/><line class="cls-1" x1="374.1" y1="434.27" x2="427.53" y2="420.91"/><line class="cls-1" x1="427.53" y1="287.32" x2="213.78" y2="233.88"/><line class="cls-1" x1="427.53" y1="314.04" x2="213.78" y2="260.6"/><line class="cls-1" x1="427.53" y1="340.76" x2="213.78" y2="287.32"/><line class="cls-1" x1="427.53" y1="367.47" x2="213.78" y2="314.04"/><line class="cls-1" x1="427.53" y1="394.19" x2="213.78" y2="340.76"/><line class="cls-1" x1="427.53" y1="420.91" x2="213.78" y2="367.47"/><line class="cls-1" x1="374.1" y1="434.27" x2="213.78" y2="394.19"/><line class="cls-1" x1="213.78" y1="420.91" x2="267.22" y2="434.27"/><line class="cls-1" x1="213.78" y1="220.52" x2="213.78" y2="434.27"/><line class="cls-1" x1="267.22" y1="233.88" x2="267.22" y2="434.27"/><line class="cls-1" x1="320.66" y1="220.52" x2="320.66" y2="434.27"/><line class="cls-1" x1="374.1" y1="220.52" x2="374.1" y2="434.27"/><line class="cls-1" x1="427.53" y1="220.52" x2="427.53" y2="434.27"/><line class="cls-1" x1="213.78" y1="434.27" x2="427.53" y2="434.27"/><line class="cls-1" x1="213.78" y1="420.91" x2="427.53" y2="420.91"/><line class="cls-1" x1="213.78" y1="407.55" x2="427.53" y2="407.55"/><line class="cls-1" x1="213.78" y1="394.19" x2="427.53" y2="394.19"/><line class="cls-1" x1="213.78" y1="380.83" x2="427.53" y2="380.83"/><line class="cls-1" x1="213.78" y1="380.83" x2="427.53" y2="380.83"/><line class="cls-1" x1="213.78" y1="354.11" x2="427.53" y2="354.11"/><line class="cls-1" x1="213.78" y1="340.76" x2="427.53" y2="340.76"/><line class="cls-1" x1="213.78" y1="327.4" x2="427.53" y2="327.4"/><line class="cls-1" x1="213.78" y1="314.04" x2="427.53" y2="314.04"/><line class="cls-1" x1="213.78" y1="300.68" x2="427.53" y2="300.68"/><line class="cls-1" x1="213.78" y1="287.32" x2="427.53" y2="287.32"/><line class="cls-1" x1="213.78" y1="273.96" x2="427.53" y2="273.96"/><line class="cls-1" x1="213.78" y1="260.6" x2="427.53" y2="260.6"/><line class="cls-1" x1="213.78" y1="247.24" x2="427.53" y2="247.24"/><line class="cls-1" x1="213.78" y1="233.88" x2="427.53" y2="233.88"/><line class="cls-1" x1="213.78" y1="220.52" x2="427.53" y2="220.52"/><line class="cls-1" x1="213.78" y1="260.6" x2="374.1" y2="220.52"/><line class="cls-1" x1="213.78" y1="233.88" x2="267.22" y2="220.52"/><line class="cls-1" x1="213.78" y1="287.32" x2="427.53" y2="233.88"/><line class="cls-1" x1="213.78" y1="314.04" x2="427.53" y2="260.6"/><line class="cls-1" x1="213.78" y1="340.76" x2="427.53" y2="287.32"/><line class="cls-1" x1="213.78" y1="367.47" x2="427.53" y2="314.04"/><line class="cls-1" x1="213.78" y1="394.19" x2="427.53" y2="340.76"/><line class="cls-1" x1="213.78" y1="420.91" x2="427.53" y2="367.47"/><line class="cls-1" x1="267.22" y1="434.27" x2="427.53" y2="394.19"/><line class="cls-1" x1="374.1" y1="420.91" x2="427.53" y2="420.91"/><line class="cls-1" x1="427.53" y1="260.6" x2="267.22" y2="220.52"/><line class="cls-1" x1="427.53" y1="233.88" x2="374.1" y2="220.52"/><line class="cls-1" x1="427.53" y1="287.32" x2="213.78" y2="233.88"/><line class="cls-1" x1="427.53" y1="314.04" x2="213.78" y2="260.6"/><line class="cls-1" x1="427.53" y1="340.76" x2="213.78" y2="287.32"/><line class="cls-1" x1="427.53" y1="367.47" x2="213.78" y2="314.04"/><line class="cls-1" x1="427.53" y1="394.19" x2="213.78" y2="340.76"/><line class="cls-1" x1="427.53" y1="420.91" x2="213.78" y2="367.47"/><line class="cls-1" x1="374.1" y1="394.19" x2="213.78" y2="394.19"/><line class="cls-1" x1="267.22" y1="420.91" x2="213.78" y2="420.91"/><line class="cls-1" x1="213.78" y1="233.88" x2="213.78" y2="434.27"/><line class="cls-1" x1="267.22" y1="220.52" x2="267.22" y2="434.27"/><line class="cls-1" x1="320.66" y1="220.52" x2="320.66" y2="434.27"/><line class="cls-1" x1="374.1" y1="220.52" x2="374.1" y2="434.27"/><line class="cls-1" x1="427.53" y1="220.52" x2="427.53" y2="434.27"/><line class="cls-1" x1="213.78" y1="434.27" x2="427.53" y2="434.27"/><line class="cls-1" x1="213.78" y1="420.91" x2="427.53" y2="420.91"/><line class="cls-1" x1="213.78" y1="407.55" x2="427.53" y2="407.55"/><line class="cls-1" x1="213.78" y1="394.19" x2="427.53" y2="394.19"/><line class="cls-1" x1="213.78" y1="380.83" x2="427.53" y2="380.83"/><line class="cls-1" x1="213.78" y1="367.47" x2="427.53" y2="367.47"/><line class="cls-1" x1="213.78" y1="354.11" x2="427.53" y2="354.11"/><line class="cls-1" x1="213.78" y1="340.76" x2="427.53" y2="340.76"/><line class="cls-1" x1="427.53" y1="327.4" x2="213.78" y2="327.4"/><line class="cls-1" x1="427.53" y1="314.04" x2="213.78" y2="314.04"/><line class="cls-1" x1="213.78" y1="300.68" x2="427.53" y2="300.68"/><line class="cls-1" x1="213.78" y1="287.32" x2="427.53" y2="287.32"/><line class="cls-1" x1="213.78" y1="273.96" x2="427.53" y2="273.96"/><line class="cls-1" x1="213.78" y1="260.6" x2="427.53" y2="260.6"/><line class="cls-1" x1="213.78" y1="247.24" x2="427.53" y2="247.24"/><line class="cls-1" x1="213.78" y1="233.88" x2="427.53" y2="233.88"/><line class="cls-1" x1="213.78" y1="220.52" x2="427.53" y2="220.52"/><polygon class="cls-2" points="187.23 98.51 240.25 97.58 295.13 113.39 294.2 432.45 134.21 434.31 134.21 112.46 187.23 98.51"/><path class="cls-2" d="M187.68,5.82h53.43l.1,66.77-53.44.1Z"/><line class="cls-2" x1="297.7" y1="245.42" x2="131.12" y2="245.42"/><line class="cls-2" x1="215.41" y1="245.75" x2="215.41" y2="432.94"/></svg>