<svg id="Слой_1" data-name="Слой 1" xmlns="http://www.w3.org/2000/svg" viewBox="0 0 427.56 440.37"><defs><style>.cls-1,.cls-2{fill:none;stroke-miterlimit:10;}.cls-1{stroke:#262424;stroke-width:0.25px;}.cls-2{stroke:#000;stroke-width:12px;}</style></defs><title>pul1.ai</title><line class="cls-1" x1="-0.37" y1="74.11" x2="213.38" y2="20.67"/><line class="cls-1" x1="-0.37" y1="100.83" x2="213.38" y2="47.39"/><line class="cls-1" x1="-0.37" y1="127.55" x2="213.38" y2="74.11"/><line class="cls-1" x1="-0.37" y1="154.27" x2="213.38" y2="100.83"/><line class="cls-1" x1="-0.37" y1="180.99" x2="213.38" y2="127.55"/><line class="cls-1" x1="-0.37" y1="207.71" x2="213.38" y2="154.27"/><line class="cls-1" x1="159.94" y1="221.07" x2="213.38" y2="207.71"/><line class="cls-1" x1="213.38" y1="74.11" x2="-0.37" y2="20.67"/><line class="cls-1" x1="213.38" y1="100.83" x2="-0.37" y2="47.39"/><line class="cls-1" x1="213.38" y1="127.55" x2="-0.37" y2="74.11"/><line class="cls-1" x1="213.38" y1="154.27" x2="-0.37" y2="100.83"/><line class="cls-1" x1="213.38" y1="180.99" x2="-0.37" y2="127.55"/><line class="cls-1" x1="213.38" y1="207.71" x2="-0.37" y2="154.27"/><line class="cls-1" x1="159.94" y1="221.07" x2="-0.37" y2="180.99"/><line class="cls-1" x1="-0.37" y1="207.71" x2="53.07" y2="221.07"/><line class="cls-1" x1="53.07" y1="20.67" x2="53.07" y2="221.07"/><line class="cls-1" x1="106.51" y1="7.31" x2="106.51" y2="221.07"/><line class="cls-1" x1="159.94" y1="7.31" x2="159.94" y2="221.07"/><line class="cls-1" x1="213.38" y1="7.31" x2="213.38" y2="221.07"/><line class="cls-1" x1="-0.37" y1="221.07" x2="213.38" y2="221.07"/><line class="cls-1" x1="-0.37" y1="207.71" x2="213.38" y2="207.71"/><line class="cls-1" x1="-0.37" y1="194.35" x2="213.38" y2="194.35"/><line class="cls-1" x1="-0.37" y1="180.99" x2="213.38" y2="180.99"/><line class="cls-1" x1="-0.37" y1="167.63" x2="213.38" y2="167.63"/><line class="cls-1" x1="-0.37" y1="167.63" x2="213.38" y2="167.63"/><line class="cls-1" x1="-0.37" y1="140.91" x2="213.38" y2="140.91"/><line class="cls-1" x1="-0.37" y1="127.55" x2="213.38" y2="127.55"/><line class="cls-1" x1="-0.37" y1="114.19" x2="213.38" y2="114.19"/><line class="cls-1" x1="-0.37" y1="100.83" x2="213.38" y2="100.83"/><line class="cls-1" x1="-0.37" y1="87.47" x2="213.38" y2="87.47"/><line class="cls-1" x1="-0.37" y1="74.11" x2="213.38" y2="74.11"/><line class="cls-1" x1="-0.37" y1="60.75" x2="213.38" y2="60.75"/><line class="cls-1" x1="-0.37" y1="47.39" x2="213.38" y2="47.39"/><line class="cls-1" x1="-0.37" y1="34.03" x2="213.38" y2="34.03"/><line class="cls-1" x1="-0.37" y1="20.67" x2="213.38" y2="20.67"/><line class="cls-1" x1="-0.37" y1="7.31" x2="213.38" y2="7.31"/><line class="cls-1" x1="-0.37" y1="47.39" x2="159.94" y2="7.31"/><line class="cls-1" x1="-0.37" y1="20.67" x2="53.07" y2="7.31"/><line class="cls-1" x1="-0.37" y1="74.11" x2="213.38" y2="20.67"/><line class="cls-1" x1="-0.37" y1="100.83" x2="213.38" y2="47.39"/><line class="cls-1" x1="-0.37" y1="127.55" x2="213.38" y2="74.11"/><line class="cls-1" x1="-0.37" y1="154.27" x2="213.38" y2="100.83"/><line class="cls-1" x1="-0.37" y1="180.99" x2="213.38" y2="127.55"/><line class="cls-1" x1="-0.37" y1="207.71" x2="213.38" y2="154.27"/><line class="cls-1" x1="53.07" y1="221.07" x2="213.38" y2="180.99"/><line class="cls-1" x1="159.94" y1="207.71" x2="213.38" y2="207.71"/><line class="cls-1" x1="213.38" y1="47.39" x2="53.07" y2="7.31"/><line class="cls-1" x1="213.38" y1="20.67" x2="159.94" y2="7.31"/><line class="cls-1" x1="213.38" y1="74.11" x2="-0.37" y2="20.67"/><line class="cls-1" x1="213.38" y1="100.83" x2="-0.37" y2="47.39"/><line class="cls-1" x1="213.38" y1="127.55" x2="-0.37" y2="74.11"/><line class="cls-1" x1="213.38" y1="154.27" x2="-0.37" y2="100.83"/><line class="cls-1" x1="213.38" y1="180.99" x2="-0.37" y2="127.55"/><line class="cls-1" x1="213.38" y1="207.71" x2="-0.37" y2="154.27"/><line class="cls-1" x1="159.94" y1="180.99" x2="-0.37" y2="180.99"/><line class="cls-1" x1="53.07" y1="207.71" x2="-0.37" y2="207.71"/><line class="cls-1" x1="53.07" y1="7.31" x2="53.07" y2="221.07"/><line class="cls-1" x1="106.51" y1="7.31" x2="106.51" y2="221.07"/><line class="cls-1" x1="159.94" y1="7.31" x2="159.94" y2="221.07"/><line class="cls-1" x1="213.38" y1="7.31" x2="213.38" y2="221.07"/><line class="cls-1" x1="-0.37" y1="221.07" x2="213.38" y2="221.07"/><line class="cls-1" x1="-0.37" y1="207.71" x2="213.38" y2="207.71"/><line class="cls-1" x1="-0.37" y1="194.35" x2="213.38" y2="194.35"/><line class="cls-1" x1="-0.37" y1="180.99" x2="213.38" y2="180.99"/><line class="cls-1" x1="-0.37" y1="167.63" x2="213.38" y2="167.63"/><line class="cls-1" x1="-0.37" y1="154.27" x2="213.38" y2="154.27"/><line class="cls-1" x1="-0.37" y1="140.91" x2="213.38" y2="140.91"/><line class="cls-1" x1="-0.37" y1="127.55" x2="213.38" y2="127.55"/><line class="cls-1" x1="-0.37" y1="114.19" x2="213.38" y2="114.19"/><line class="cls-1" x1="-0.37" y1="100.83" x2="213.38" y2="100.83"/><line class="cls-1" x1="-0.37" y1="87.47" x2="213.38" y2="87.47"/><line class="cls-1" x1="-0.37" y1="74.11" x2="213.38" y2="74.11"/><line class="cls-1" x1="-0.37" y1="60.75" x2="213.38" y2="60.75"/><line class="cls-1" x1="-0.37" y1="47.39" x2="213.38" y2="47.39"/><line class="cls-1" x1="-0.37" y1="34.03" x2="213.38" y2="34.03"/><line class="cls-1" x1="-0.37" y1="20.67" x2="213.38" y2="20.67"/><line class="cls-1" x1="-0.37" y1="7.31" x2="213.38" y2="7.31"/><line class="cls-1" x1="213.38" y1="74.11" x2="427.13" y2="20.67"/><line class="cls-1" x1="213.38" y1="100.83" x2="427.13" y2="47.39"/><line class="cls-1" x1="213.38" y1="127.55" x2="427.13" y2="74.11"/><line class="cls-1" x1="213.38" y1="154.27" x2="427.13" y2="100.83"/><line class="cls-1" x1="213.38" y1="180.99" x2="427.13" y2="127.55"/><line class="cls-1" x1="213.38" y1="207.71" x2="427.13" y2="154.27"/><line class="cls-1" x1="373.7" y1="221.07" x2="427.13" y2="207.71"/><line class="cls-1" x1="427.13" y1="74.11" x2="213.38" y2="20.67"/><line class="cls-1" x1="427.13" y1="100.83" x2="213.38" y2="47.39"/><line class="cls-1" x1="427.13" y1="127.55" x2="213.38" y2="74.11"/><line class="cls-1" x1="427.13" y1="154.27" x2="213.38" y2="100.83"/><line class="cls-1" x1="427.13" y1="180.99" x2="213.38" y2="127.55"/><line class="cls-1" x1="427.13" y1="207.71" x2="213.38" y2="154.27"/><line class="cls-1" x1="373.7" y1="221.07" x2="213.38" y2="180.99"/><line class="cls-1" x1="213.38" y1="207.71" x2="266.82" y2="221.07"/><line class="cls-1" x1="213.38" y1="7.31" x2="213.38" y2="221.07"/><line class="cls-1" x1="266.82" y1="20.67" x2="266.82" y2="221.07"/><line class="cls-1" x1="320.26" y1="7.31" x2="320.26" y2="221.07"/><line class="cls-1" x1="373.7" y1="7.31" x2="373.7" y2="221.07"/><line class="cls-1" x1="427.13" y1="7.31" x2="427.13" y2="221.07"/><line class="cls-1" x1="213.38" y1="221.07" x2="427.13" y2="221.07"/><line class="cls-1" x1="213.38" y1="207.71" x2="427.13" y2="207.71"/><line class="cls-1" x1="213.38" y1="194.35" x2="427.13" y2="194.35"/><line class="cls-1" x1="213.38" y1="180.99" x2="427.13" y2="180.99"/><line class="cls-1" x1="213.38" y1="167.63" x2="427.13" y2="167.63"/><line class="cls-1" x1="213.38" y1="167.63" x2="427.13" y2="167.63"/><line class="cls-1" x1="213.38" y1="140.91" x2="427.13" y2="140.91"/><line class="cls-1" x1="213.38" y1="127.55" x2="427.13" y2="127.55"/><line class="cls-1" x1="213.38" y1="114.19" x2="427.13" y2="114.19"/><line class="cls-1" x1="213.38" y1="100.83" x2="427.13" y2="100.83"/><line class="cls-1" x1="213.38" y1="87.47" x2="427.13" y2="87.47"/><line class="cls-1" x1="213.38" y1="74.11" x2="427.13" y2="74.11"/><line class="cls-1" x1="213.38" y1="60.75" x2="427.13" y2="60.75"/><line class="cls-1" x1="213.38" y1="47.39" x2="427.13" y2="47.39"/><line class="cls-1" x1="213.38" y1="34.03" x2="427.13" y2="34.03"/><line class="cls-1" x1="213.38" y1="20.67" x2="427.13" y2="20.67"/><line class="cls-1" x1="213.38" y1="7.31" x2="427.13" y2="7.31"/><line class="cls-1" x1="213.38" y1="47.39" x2="373.7" y2="7.31"/><line class="cls-1" x1="213.38" y1="20.67" x2="266.82" y2="7.31"/><line class="cls-1" x1="213.38" y1="74.11" x2="427.13" y2="20.67"/><line class="cls-1" x1="213.38" y1="100.83" x2="427.13" y2="47.39"/><line class="cls-1" x1="213.38" y1="127.55" x2="427.13" y2="74.11"/><line class="cls-1" x1="213.38" y1="154.27" x2="427.13" y2="100.83"/><line class="cls-1" x1="213.38" y1="180.99" x2="427.13" y2="127.55"/><line class="cls-1" x1="213.38" y1="207.71" x2="427.13" y2="154.27"/><line class="cls-1" x1="266.82" y1="221.07" x2="427.13" y2="180.99"/><line class="cls-1" x1="373.7" y1="207.71" x2="427.13" y2="207.71"/><line class="cls-1" x1="427.13" y1="47.39" x2="266.82" y2="7.31"/><line class="cls-1" x1="427.13" y1="20.67" x2="373.7" y2="7.31"/><line class="cls-1" x1="427.13" y1="74.11" x2="213.38" y2="20.67"/><line class="cls-1" x1="427.13" y1="100.83" x2="213.38" y2="47.39"/><line class="cls-1" x1="427.13" y1="127.55" x2="213.38" y2="74.11"/><line class="cls-1" x1="427.13" y1="154.27" x2="213.38" y2="100.83"/><line class="cls-1" x1="427.13" y1="180.99" x2="213.38" y2="127.55"/><line class="cls-1" x1="427.13" y1="207.71" x2="213.38" y2="154.27"/><line class="cls-1" x1="373.7" y1="180.99" x2="213.38" y2="180.99"/><line class="cls-1" x1="266.82" y1="207.71" x2="213.38" y2="207.71"/><line class="cls-1" x1="213.38" y1="20.67" x2="213.38" y2="221.07"/><line class="cls-1" x1="266.82" y1="7.31" x2="266.82" y2="221.07"/><line class="cls-1" x1="320.26" y1="7.31" x2="320.26" y2="221.07"/><line class="cls-1" x1="373.7" y1="7.31" x2="373.7" y2="221.07"/><line class="cls-1" x1="427.13" y1="7.31" x2="427.13" y2="221.07"/><line class="cls-1" x1="213.38" y1="221.07" x2="427.13" y2="221.07"/><line class="cls-1" x1="213.38" y1="207.71" x2="427.13" y2="207.71"/><line class="cls-1" x1="213.38" y1="194.35" x2="427.13" y2="194.35"/><line class="cls-1" x1="213.38" y1="180.99" x2="427.13" y2="180.99"/><line class="cls-1" x1="213.38" y1="167.63" x2="427.13" y2="167.63"/><line class="cls-1" x1="213.38" y1="154.27" x2="427.13" y2="154.27"/><line class="cls-1" x1="213.38" y1="140.91" x2="427.13" y2="140.91"/><line class="cls-1" x1="213.38" y1="127.55" x2="427.13" y2="127.55"/><line class="cls-1" x1="213.38" y1="114.19" x2="427.13" y2="114.19"/><line class="cls-1" x1="213.38" y1="100.83" x2="427.13" y2="100.83"/><line class="cls-1" x1="213.38" y1="87.47" x2="427.13" y2="87.47"/><line class="cls-1" x1="213.38" y1="74.11" x2="427.13" y2="74.11"/><line class="cls-1" x1="213.38" y1="60.75" x2="427.13" y2="60.75"/><line class="cls-1" x1="213.38" y1="47.39" x2="427.13" y2="47.39"/><line class="cls-1" x1="213.38" y1="34.03" x2="427.13" y2="34.03"/><line class="cls-1" x1="213.38" y1="20.67" x2="427.13" y2="20.67"/><line class="cls-1" x1="213.38" y1="7.31" x2="427.13" y2="7.31"/><line class="cls-1" x1="-0.3" y1="287.9" x2="213.45" y2="234.46"/><line class="cls-1" x1="-0.3" y1="314.62" x2="213.45" y2="261.18"/><line class="cls-1" x1="-0.3" y1="341.34" x2="213.45" y2="287.9"/><line class="cls-1" x1="-0.3" y1="368.06" x2="213.45" y2="314.62"/><line class="cls-1" x1="-0.3" y1="394.78" x2="213.45" y2="341.34"/><line class="cls-1" x1="-0.3" y1="421.5" x2="213.45" y2="368.06"/><line class="cls-1" x1="160.01" y1="434.85" x2="213.45" y2="421.5"/><line class="cls-1" x1="213.45" y1="287.9" x2="-0.3" y2="234.46"/><line class="cls-1" x1="213.45" y1="314.62" x2="-0.3" y2="261.18"/><line class="cls-1" x1="213.45" y1="341.34" x2="-0.3" y2="287.9"/><line class="cls-1" x1="213.45" y1="368.06" x2="-0.3" y2="314.62"/><line class="cls-1" x1="213.45" y1="394.78" x2="-0.3" y2="341.34"/><line class="cls-1" x1="213.45" y1="421.5" x2="-0.3" y2="368.06"/><line class="cls-1" x1="160.01" y1="434.85" x2="-0.3" y2="394.78"/><line class="cls-1" x1="-0.3" y1="421.5" x2="53.13" y2="434.85"/><line class="cls-1" x1="53.13" y1="234.46" x2="53.13" y2="434.85"/><line class="cls-1" x1="106.57" y1="221.1" x2="106.57" y2="434.85"/><line class="cls-1" x1="160.01" y1="221.1" x2="160.01" y2="434.85"/><line class="cls-1" x1="213.45" y1="221.1" x2="213.45" y2="434.85"/><line class="cls-1" x1="-0.3" y1="434.85" x2="213.45" y2="434.85"/><line class="cls-1" x1="-0.3" y1="421.5" x2="213.45" y2="421.5"/><line class="cls-1" x1="-0.3" y1="408.14" x2="213.45" y2="408.14"/><line class="cls-1" x1="-0.3" y1="394.78" x2="213.45" y2="394.78"/><line class="cls-1" x1="-0.3" y1="381.42" x2="213.45" y2="381.42"/><line class="cls-1" x1="-0.3" y1="381.42" x2="213.45" y2="381.42"/><line class="cls-1" x1="-0.3" y1="354.7" x2="213.45" y2="354.7"/><line class="cls-1" x1="-0.3" y1="341.34" x2="213.45" y2="341.34"/><line class="cls-1" x1="-0.3" y1="327.98" x2="213.45" y2="327.98"/><line class="cls-1" x1="-0.3" y1="314.62" x2="213.45" y2="314.62"/><line class="cls-1" x1="-0.3" y1="301.26" x2="213.45" y2="301.26"/><line class="cls-1" x1="-0.3" y1="287.9" x2="213.45" y2="287.9"/><line class="cls-1" x1="-0.3" y1="274.54" x2="213.45" y2="274.54"/><line class="cls-1" x1="-0.3" y1="261.18" x2="213.45" y2="261.18"/><line class="cls-1" x1="-0.3" y1="247.82" x2="213.45" y2="247.82"/><line class="cls-1" x1="-0.3" y1="234.46" x2="213.45" y2="234.46"/><line class="cls-1" x1="-0.3" y1="221.1" x2="213.45" y2="221.1"/><line class="cls-1" x1="-0.3" y1="261.18" x2="160.01" y2="221.1"/><line class="cls-1" x1="-0.3" y1="234.46" x2="53.13" y2="221.1"/><line class="cls-1" x1="-0.3" y1="287.9" x2="213.45" y2="234.46"/><line class="cls-1" x1="-0.3" y1="314.62" x2="213.45" y2="261.18"/><line class="cls-1" x1="-0.3" y1="341.34" x2="213.45" y2="287.9"/><line class="cls-1" x1="-0.3" y1="368.06" x2="213.45" y2="314.62"/><line class="cls-1" x1="-0.3" y1="394.78" x2="213.45" y2="341.34"/><line class="cls-1" x1="-0.3" y1="421.5" x2="213.45" y2="368.06"/><line class="cls-1" x1="53.13" y1="434.85" x2="213.45" y2="394.78"/><line class="cls-1" x1="160.01" y1="421.5" x2="213.45" y2="421.5"/><line class="cls-1" x1="213.45" y1="261.18" x2="53.13" y2="221.1"/><line class="cls-1" x1="213.45" y1="234.46" x2="160.01" y2="221.1"/><line class="cls-1" x1="213.45" y1="287.9" x2="-0.3" y2="234.46"/><line class="cls-1" x1="213.45" y1="314.62" x2="-0.3" y2="261.18"/><line class="cls-1" x1="213.45" y1="341.34" x2="-0.3" y2="287.9"/><line class="cls-1" x1="213.45" y1="368.06" x2="-0.3" y2="314.62"/><line class="cls-1" x1="213.45" y1="394.78" x2="-0.3" y2="341.34"/><line class="cls-1" x1="213.45" y1="421.5" x2="-0.3" y2="368.06"/><line class="cls-1" x1="160.01" y1="394.78" x2="-0.3" y2="394.78"/><line class="cls-1" x1="53.13" y1="421.5" x2="-0.3" y2="421.5"/><line class="cls-1" x1="53.13" y1="221.1" x2="53.13" y2="434.85"/><line class="cls-1" x1="106.57" y1="221.1" x2="106.57" y2="434.85"/><line class="cls-1" x1="160.01" y1="221.1" x2="160.01" y2="434.85"/><line class="cls-1" x1="213.45" y1="221.1" x2="213.45" y2="434.85"/><line class="cls-1" x1="-0.3" y1="434.85" x2="213.45" y2="434.85"/><line class="cls-1" x1="-0.3" y1="421.5" x2="213.45" y2="421.5"/><line class="cls-1" x1="-0.3" y1="408.14" x2="213.45" y2="408.14"/><line class="cls-1" x1="-0.3" y1="394.78" x2="213.45" y2="394.78"/><line class="cls-1" x1="-0.3" y1="381.42" x2="213.45" y2="381.42"/><line class="cls-1" x1="-0.3" y1="368.06" x2="213.45" y2="368.06"/><line class="cls-1" x1="-0.3" y1="354.7" x2="213.45" y2="354.7"/><line class="cls-1" x1="-0.3" y1="341.34" x2="213.45" y2="341.34"/><line class="cls-1" x1="-0.3" y1="327.98" x2="213.45" y2="327.98"/><line class="cls-1" x1="-0.3" y1="314.62" x2="213.45" y2="314.62"/><line class="cls-1" x1="-0.3" y1="301.26" x2="213.45" y2="301.26"/><line class="cls-1" x1="-0.3" y1="287.9" x2="213.45" y2="287.9"/><line class="cls-1" x1="-0.3" y1="274.54" x2="213.45" y2="274.54"/><line class="cls-1" x1="-0.3" y1="261.18" x2="213.45" y2="261.18"/><line class="cls-1" x1="-0.3" y1="247.82" x2="213.45" y2="247.82"/><line class="cls-1" x1="-0.3" y1="234.46" x2="213.45" y2="234.46"/><line class="cls-1" x1="-0.3" y1="221.1" x2="213.45" y2="221.1"/><line class="cls-1" x1="213.38" y1="287.87" x2="427.13" y2="234.43"/><line class="cls-1" x1="213.38" y1="314.59" x2="427.13" y2="261.15"/><line class="cls-1" x1="213.38" y1="341.3" x2="427.13" y2="287.87"/><line class="cls-1" x1="213.38" y1="368.02" x2="427.13" y2="314.59"/><line class="cls-1" x1="213.38" y1="394.74" x2="427.13" y2="341.3"/><line class="cls-1" x1="213.38" y1="421.46" x2="427.13" y2="368.02"/><line class="cls-1" x1="373.7" y1="434.82" x2="427.13" y2="421.46"/><line class="cls-1" x1="427.13" y1="287.87" x2="213.38" y2="234.43"/><line class="cls-1" x1="427.13" y1="314.59" x2="213.38" y2="261.15"/><line class="cls-1" x1="427.13" y1="341.3" x2="213.38" y2="287.87"/><line class="cls-1" x1="427.13" y1="368.02" x2="213.38" y2="314.59"/><line class="cls-1" x1="427.13" y1="394.74" x2="213.38" y2="341.3"/><line class="cls-1" x1="427.13" y1="421.46" x2="213.38" y2="368.02"/><line class="cls-1" x1="373.7" y1="434.82" x2="213.38" y2="394.74"/><line class="cls-1" x1="213.38" y1="421.46" x2="266.82" y2="434.82"/><line class="cls-1" x1="213.38" y1="221.07" x2="213.38" y2="434.82"/><line class="cls-1" x1="266.82" y1="234.43" x2="266.82" y2="434.82"/><line class="cls-1" x1="320.26" y1="221.07" x2="320.26" y2="434.82"/><line class="cls-1" x1="373.7" y1="221.07" x2="373.7" y2="434.82"/><line class="cls-1" x1="427.13" y1="221.07" x2="427.13" y2="434.82"/><line class="cls-1" x1="213.38" y1="434.82" x2="427.13" y2="434.82"/><line class="cls-1" x1="213.38" y1="421.46" x2="427.13" y2="421.46"/><line class="cls-1" x1="213.38" y1="408.1" x2="427.13" y2="408.1"/><line class="cls-1" x1="213.38" y1="394.74" x2="427.13" y2="394.74"/><line class="cls-1" x1="213.38" y1="381.38" x2="427.13" y2="381.38"/><line class="cls-1" x1="213.38" y1="381.38" x2="427.13" y2="381.38"/><line class="cls-1" x1="213.38" y1="354.66" x2="427.13" y2="354.66"/><line class="cls-1" x1="213.38" y1="341.3" x2="427.13" y2="341.3"/><line class="cls-1" x1="213.38" y1="327.94" x2="427.13" y2="327.94"/><line class="cls-1" x1="213.38" y1="314.59" x2="427.13" y2="314.59"/><line class="cls-1" x1="213.38" y1="301.23" x2="427.13" y2="301.23"/><line class="cls-1" x1="213.38" y1="287.87" x2="427.13" y2="287.87"/><line class="cls-1" x1="213.38" y1="274.51" x2="427.13" y2="274.51"/><line class="cls-1" x1="213.38" y1="261.15" x2="427.13" y2="261.15"/><line class="cls-1" x1="213.38" y1="247.79" x2="427.13" y2="247.79"/><line class="cls-1" x1="213.38" y1="234.43" x2="427.13" y2="234.43"/><line class="cls-1" x1="213.38" y1="221.07" x2="427.13" y2="221.07"/><line class="cls-1" x1="213.38" y1="261.15" x2="373.7" y2="221.07"/><line class="cls-1" x1="213.38" y1="234.43" x2="266.82" y2="221.07"/><line class="cls-1" x1="213.38" y1="287.87" x2="427.13" y2="234.43"/><line class="cls-1" x1="213.38" y1="314.59" x2="427.13" y2="261.15"/><line class="cls-1" x1="213.38" y1="341.3" x2="427.13" y2="287.87"/><line class="cls-1" x1="213.38" y1="368.02" x2="427.13" y2="314.59"/><line class="cls-1" x1="213.38" y1="394.74" x2="427.13" y2="341.3"/><line class="cls-1" x1="213.38" y1="421.46" x2="427.13" y2="368.02"/><line class="cls-1" x1="266.82" y1="434.82" x2="427.13" y2="394.74"/><line class="cls-1" x1="373.7" y1="421.46" x2="427.13" y2="421.46"/><line class="cls-1" x1="427.13" y1="261.15" x2="266.82" y2="221.07"/><line class="cls-1" x1="427.13" y1="234.43" x2="373.7" y2="221.07"/><line class="cls-1" x1="427.13" y1="287.87" x2="213.38" y2="234.43"/><line class="cls-1" x1="427.13" y1="314.59" x2="213.38" y2="261.15"/><line class="cls-1" x1="427.13" y1="341.3" x2="213.38" y2="287.87"/><line class="cls-1" x1="427.13" y1="368.02" x2="213.38" y2="314.59"/><line class="cls-1" x1="427.13" y1="394.74" x2="213.38" y2="341.3"/><line class="cls-1" x1="427.13" y1="421.46" x2="213.38" y2="368.02"/><line class="cls-1" x1="373.7" y1="394.74" x2="213.38" y2="394.74"/><line class="cls-1" x1="266.82" y1="421.46" x2="213.38" y2="421.46"/><line class="cls-1" x1="213.38" y1="234.43" x2="213.38" y2="434.82"/><line class="cls-1" x1="266.82" y1="221.07" x2="266.82" y2="434.82"/><line class="cls-1" x1="320.26" y1="221.07" x2="320.26" y2="434.82"/><line class="cls-1" x1="373.7" y1="221.07" x2="373.7" y2="434.82"/><line class="cls-1" x1="427.13" y1="221.07" x2="427.13" y2="434.82"/><line class="cls-1" x1="213.38" y1="434.82" x2="427.13" y2="434.82"/><line class="cls-1" x1="213.38" y1="421.46" x2="427.13" y2="421.46"/><line class="cls-1" x1="213.38" y1="408.1" x2="427.13" y2="408.1"/><line class="cls-1" x1="213.38" y1="394.74" x2="427.13" y2="394.74"/><line class="cls-1" x1="213.38" y1="381.38" x2="427.13" y2="381.38"/><line class="cls-1" x1="213.38" y1="368.02" x2="427.13" y2="368.02"/><line class="cls-1" x1="213.38" y1="354.66" x2="427.13" y2="354.66"/><line class="cls-1" x1="213.38" y1="341.3" x2="427.13" y2="341.3"/><line class="cls-1" x1="427.13" y1="327.94" x2="213.38" y2="327.94"/><line class="cls-1" x1="427.13" y1="314.59" x2="213.38" y2="314.59"/><line class="cls-1" x1="213.38" y1="301.23" x2="427.13" y2="301.23"/><line class="cls-1" x1="213.38" y1="287.87" x2="427.13" y2="287.87"/><line class="cls-1" x1="213.38" y1="274.51" x2="427.13" y2="274.51"/><line class="cls-1" x1="213.38" y1="261.15" x2="427.13" y2="261.15"/><line class="cls-1" x1="213.38" y1="247.79" x2="427.13" y2="247.79"/><line class="cls-1" x1="213.38" y1="234.43" x2="427.13" y2="234.43"/><line class="cls-1" x1="213.38" y1="221.07" x2="427.13" y2="221.07"/><polygon class="cls-2" points="186.83 99.06 239.85 98.13 294.74 113.94 293.89 434.89 133.81 434.86 133.81 113.01 186.83 99.06"/><path class="cls-2" d="M187.28,6.37h53.43l.1,66.77-53.44.09Z"/><line class="cls-2" x1="297.3" y1="245.97" x2="130.72" y2="245.97"/><line class="cls-2" x1="215.01" y1="246.3" x2="215.01" y2="433.49"/></svg>