<svg id="Слой_1" data-name="Слой 1" xmlns="http://www.w3.org/2000/svg" viewBox="0 0 427.56 442.07"><defs><style>.cls-1,.cls-2{fill:none;stroke-miterlimit:10;}.cls-1{stroke:#262424;stroke-width:0.25px;}.cls-2{stroke:#000;stroke-width:12px;}</style></defs><title>pul1.ai</title><line class="cls-1" x1="0.59" y1="73.71" x2="213.97" y2="20.37"/><line class="cls-1" x1="0.59" y1="100.38" x2="213.97" y2="47.04"/><line class="cls-1" x1="0.59" y1="127.06" x2="213.97" y2="73.71"/><line class="cls-1" x1="0.59" y1="153.73" x2="213.97" y2="100.38"/><line class="cls-1" x1="0.59" y1="180.4" x2="213.97" y2="127.06"/><line class="cls-1" x1="0.59" y1="207.07" x2="213.97" y2="153.73"/><line class="cls-1" x1="160.63" y1="220.41" x2="213.97" y2="207.07"/><line class="cls-1" x1="213.97" y1="73.71" x2="0.59" y2="20.37"/><line class="cls-1" x1="213.97" y1="100.38" x2="0.59" y2="47.04"/><line class="cls-1" x1="213.97" y1="127.06" x2="0.59" y2="73.71"/><line class="cls-1" x1="213.97" y1="153.73" x2="0.59" y2="100.38"/><line class="cls-1" x1="213.97" y1="180.4" x2="0.59" y2="127.06"/><line class="cls-1" x1="213.97" y1="207.07" x2="0.59" y2="153.73"/><line class="cls-1" x1="160.63" y1="220.41" x2="0.59" y2="180.4"/><line class="cls-1" x1="0.59" y1="207.07" x2="53.93" y2="220.41"/><line class="cls-1" x1="0.59" y1="7.03" x2="0.59" y2="220.41"/><line class="cls-1" x1="53.93" y1="20.37" x2="53.93" y2="220.41"/><line class="cls-1" x1="107.28" y1="7.03" x2="107.28" y2="220.41"/><line class="cls-1" x1="160.63" y1="7.03" x2="160.63" y2="220.41"/><line class="cls-1" x1="213.97" y1="7.03" x2="213.97" y2="220.41"/><line class="cls-1" x1="0.59" y1="220.41" x2="213.97" y2="220.41"/><line class="cls-1" x1="0.59" y1="207.07" x2="213.97" y2="207.07"/><line class="cls-1" x1="0.59" y1="193.74" x2="213.97" y2="193.74"/><line class="cls-1" x1="0.59" y1="180.4" x2="213.97" y2="180.4"/><line class="cls-1" x1="0.59" y1="167.07" x2="213.97" y2="167.07"/><line class="cls-1" x1="0.59" y1="167.07" x2="213.97" y2="167.07"/><line class="cls-1" x1="0.59" y1="140.39" x2="213.97" y2="140.39"/><line class="cls-1" x1="0.59" y1="127.06" x2="213.97" y2="127.06"/><line class="cls-1" x1="0.59" y1="113.72" x2="213.97" y2="113.72"/><line class="cls-1" x1="0.59" y1="100.38" x2="213.97" y2="100.38"/><line class="cls-1" x1="0.59" y1="87.05" x2="213.97" y2="87.05"/><line class="cls-1" x1="0.59" y1="73.71" x2="213.97" y2="73.71"/><line class="cls-1" x1="0.59" y1="60.38" x2="213.97" y2="60.38"/><line class="cls-1" x1="0.59" y1="47.04" x2="213.97" y2="47.04"/><line class="cls-1" x1="0.59" y1="33.7" x2="213.97" y2="33.7"/><line class="cls-1" x1="0.59" y1="20.37" x2="213.97" y2="20.37"/><line class="cls-1" x1="0.59" y1="7.03" x2="213.97" y2="7.03"/><line class="cls-1" x1="0.59" y1="47.04" x2="160.63" y2="7.03"/><line class="cls-1" x1="0.59" y1="20.37" x2="53.93" y2="7.03"/><line class="cls-1" x1="0.59" y1="73.71" x2="213.97" y2="20.37"/><line class="cls-1" x1="0.59" y1="100.38" x2="213.97" y2="47.04"/><line class="cls-1" x1="0.59" y1="127.06" x2="213.97" y2="73.71"/><line class="cls-1" x1="0.59" y1="153.73" x2="213.97" y2="100.38"/><line class="cls-1" x1="0.59" y1="180.4" x2="213.97" y2="127.06"/><line class="cls-1" x1="0.59" y1="207.07" x2="213.97" y2="153.73"/><line class="cls-1" x1="53.93" y1="220.41" x2="213.97" y2="180.4"/><line class="cls-1" x1="160.63" y1="207.07" x2="213.97" y2="207.07"/><line class="cls-1" x1="213.97" y1="47.04" x2="53.93" y2="7.03"/><line class="cls-1" x1="213.97" y1="20.37" x2="160.63" y2="7.03"/><line class="cls-1" x1="213.97" y1="73.71" x2="0.59" y2="20.37"/><line class="cls-1" x1="213.97" y1="100.38" x2="0.59" y2="47.04"/><line class="cls-1" x1="213.97" y1="127.06" x2="0.59" y2="73.71"/><line class="cls-1" x1="213.97" y1="153.73" x2="0.59" y2="100.38"/><line class="cls-1" x1="213.97" y1="180.4" x2="0.59" y2="127.06"/><line class="cls-1" x1="213.97" y1="207.07" x2="0.59" y2="153.73"/><line class="cls-1" x1="160.63" y1="180.4" x2="0.59" y2="180.4"/><line class="cls-1" x1="53.93" y1="207.07" x2="0.59" y2="207.07"/><line class="cls-1" x1="0.59" y1="20.37" x2="0.59" y2="220.41"/><line class="cls-1" x1="53.93" y1="7.03" x2="53.93" y2="220.41"/><line class="cls-1" x1="107.28" y1="7.03" x2="107.28" y2="220.41"/><line class="cls-1" x1="160.63" y1="7.03" x2="160.63" y2="220.41"/><line class="cls-1" x1="213.97" y1="7.03" x2="213.97" y2="220.41"/><line class="cls-1" x1="0.59" y1="220.41" x2="213.97" y2="220.41"/><line class="cls-1" x1="0.59" y1="207.07" x2="213.97" y2="207.07"/><line class="cls-1" x1="0.59" y1="193.74" x2="213.97" y2="193.74"/><line class="cls-1" x1="0.59" y1="180.4" x2="213.97" y2="180.4"/><line class="cls-1" x1="0.59" y1="167.07" x2="213.97" y2="167.07"/><line class="cls-1" x1="0.59" y1="153.73" x2="213.97" y2="153.73"/><line class="cls-1" x1="0.59" y1="140.39" x2="213.97" y2="140.39"/><line class="cls-1" x1="0.59" y1="127.06" x2="213.97" y2="127.06"/><line class="cls-1" x1="0.59" y1="113.72" x2="213.97" y2="113.72"/><line class="cls-1" x1="0.59" y1="100.38" x2="213.97" y2="100.38"/><line class="cls-1" x1="0.59" y1="87.05" x2="213.97" y2="87.05"/><line class="cls-1" x1="0.59" y1="73.71" x2="213.97" y2="73.71"/><line class="cls-1" x1="0.59" y1="60.38" x2="213.97" y2="60.38"/><line class="cls-1" x1="0.59" y1="47.04" x2="213.97" y2="47.04"/><line class="cls-1" x1="0.59" y1="33.7" x2="213.97" y2="33.7"/><line class="cls-1" x1="0.59" y1="20.37" x2="213.97" y2="20.37"/><line class="cls-1" x1="0.59" y1="7.03" x2="213.97" y2="7.03"/><line class="cls-1" x1="213.97" y1="73.71" x2="427.35" y2="20.37"/><line class="cls-1" x1="213.97" y1="100.38" x2="427.35" y2="47.04"/><line class="cls-1" x1="213.97" y1="127.06" x2="427.35" y2="73.71"/><line class="cls-1" x1="213.97" y1="153.73" x2="427.35" y2="100.38"/><line class="cls-1" x1="213.97" y1="180.4" x2="427.35" y2="127.06"/><line class="cls-1" x1="213.97" y1="207.07" x2="427.35" y2="153.73"/><line class="cls-1" x1="374.01" y1="220.41" x2="427.35" y2="207.07"/><line class="cls-1" x1="427.35" y1="73.71" x2="213.97" y2="20.37"/><line class="cls-1" x1="427.35" y1="100.38" x2="213.97" y2="47.04"/><line class="cls-1" x1="427.35" y1="127.06" x2="213.97" y2="73.71"/><line class="cls-1" x1="427.35" y1="153.73" x2="213.97" y2="100.38"/><line class="cls-1" x1="427.35" y1="180.4" x2="213.97" y2="127.06"/><line class="cls-1" x1="427.35" y1="207.07" x2="213.97" y2="153.73"/><line class="cls-1" x1="374.01" y1="220.41" x2="213.97" y2="180.4"/><line class="cls-1" x1="213.97" y1="207.07" x2="267.32" y2="220.41"/><line class="cls-1" x1="213.97" y1="7.03" x2="213.97" y2="220.41"/><line class="cls-1" x1="267.32" y1="20.37" x2="267.32" y2="220.41"/><line class="cls-1" x1="320.66" y1="7.03" x2="320.66" y2="220.41"/><line class="cls-1" x1="374.01" y1="7.03" x2="374.01" y2="220.41"/><line class="cls-1" x1="427.35" y1="7.03" x2="427.35" y2="220.41"/><line class="cls-1" x1="213.97" y1="220.41" x2="427.35" y2="220.41"/><line class="cls-1" x1="213.97" y1="207.07" x2="427.35" y2="207.07"/><line class="cls-1" x1="213.97" y1="193.74" x2="427.35" y2="193.74"/><line class="cls-1" x1="213.97" y1="180.4" x2="427.35" y2="180.4"/><line class="cls-1" x1="213.97" y1="167.07" x2="427.35" y2="167.07"/><line class="cls-1" x1="213.97" y1="167.07" x2="427.35" y2="167.07"/><line class="cls-1" x1="213.97" y1="140.39" x2="427.35" y2="140.39"/><line class="cls-1" x1="213.97" y1="127.06" x2="427.35" y2="127.06"/><line class="cls-1" x1="213.97" y1="113.72" x2="427.35" y2="113.72"/><line class="cls-1" x1="213.97" y1="100.38" x2="427.35" y2="100.38"/><line class="cls-1" x1="213.97" y1="87.05" x2="427.35" y2="87.05"/><line class="cls-1" x1="213.97" y1="73.71" x2="427.35" y2="73.71"/><line class="cls-1" x1="213.97" y1="60.38" x2="427.35" y2="60.38"/><line class="cls-1" x1="213.97" y1="47.04" x2="427.35" y2="47.04"/><line class="cls-1" x1="213.97" y1="33.7" x2="427.35" y2="33.7"/><line class="cls-1" x1="213.97" y1="20.37" x2="427.35" y2="20.37"/><line class="cls-1" x1="213.97" y1="7.03" x2="427.35" y2="7.03"/><line class="cls-1" x1="213.97" y1="47.04" x2="374.01" y2="7.03"/><line class="cls-1" x1="213.97" y1="20.37" x2="267.32" y2="7.03"/><line class="cls-1" x1="213.97" y1="73.71" x2="427.35" y2="20.37"/><line class="cls-1" x1="213.97" y1="100.38" x2="427.35" y2="47.04"/><line class="cls-1" x1="213.97" y1="127.06" x2="427.35" y2="73.71"/><line class="cls-1" x1="213.97" y1="153.73" x2="427.35" y2="100.38"/><line class="cls-1" x1="213.97" y1="180.4" x2="427.35" y2="127.06"/><line class="cls-1" x1="213.97" y1="207.07" x2="427.35" y2="153.73"/><line class="cls-1" x1="267.32" y1="220.41" x2="427.35" y2="180.4"/><line class="cls-1" x1="374.01" y1="207.07" x2="427.35" y2="207.07"/><line class="cls-1" x1="427.35" y1="47.04" x2="267.32" y2="7.03"/><line class="cls-1" x1="427.35" y1="20.37" x2="374.01" y2="7.03"/><line class="cls-1" x1="427.35" y1="73.71" x2="213.97" y2="20.37"/><line class="cls-1" x1="427.35" y1="100.38" x2="213.97" y2="47.04"/><line class="cls-1" x1="427.35" y1="127.06" x2="213.97" y2="73.71"/><line class="cls-1" x1="427.35" y1="153.73" x2="213.97" y2="100.38"/><line class="cls-1" x1="427.35" y1="180.4" x2="213.97" y2="127.06"/><line class="cls-1" x1="427.35" y1="207.07" x2="213.97" y2="153.73"/><line class="cls-1" x1="374.01" y1="180.4" x2="213.97" y2="180.4"/><line class="cls-1" x1="267.32" y1="207.07" x2="213.97" y2="207.07"/><line class="cls-1" x1="213.97" y1="20.37" x2="213.97" y2="220.41"/><line class="cls-1" x1="267.32" y1="7.03" x2="267.32" y2="220.41"/><line class="cls-1" x1="320.66" y1="7.03" x2="320.66" y2="220.41"/><line class="cls-1" x1="374.01" y1="7.03" x2="374.01" y2="220.41"/><line class="cls-1" x1="427.35" y1="7.03" x2="427.35" y2="220.41"/><line class="cls-1" x1="213.97" y1="220.41" x2="427.35" y2="220.41"/><line class="cls-1" x1="213.97" y1="207.07" x2="427.35" y2="207.07"/><line class="cls-1" x1="213.97" y1="193.74" x2="427.35" y2="193.74"/><line class="cls-1" x1="213.97" y1="180.4" x2="427.35" y2="180.4"/><line class="cls-1" x1="213.97" y1="167.07" x2="427.35" y2="167.07"/><line class="cls-1" x1="213.97" y1="153.73" x2="427.35" y2="153.73"/><line class="cls-1" x1="213.97" y1="140.39" x2="427.35" y2="140.39"/><line class="cls-1" x1="213.97" y1="127.06" x2="427.35" y2="127.06"/><line class="cls-1" x1="213.97" y1="113.72" x2="427.35" y2="113.72"/><line class="cls-1" x1="213.97" y1="100.38" x2="427.35" y2="100.38"/><line class="cls-1" x1="213.97" y1="87.05" x2="427.35" y2="87.05"/><line class="cls-1" x1="213.97" y1="73.71" x2="427.35" y2="73.71"/><line class="cls-1" x1="213.97" y1="60.38" x2="427.35" y2="60.38"/><line class="cls-1" x1="213.97" y1="47.04" x2="427.35" y2="47.04"/><line class="cls-1" x1="213.97" y1="33.7" x2="427.35" y2="33.7"/><line class="cls-1" x1="213.97" y1="20.37" x2="427.35" y2="20.37"/><line class="cls-1" x1="213.97" y1="7.03" x2="427.35" y2="7.03"/><line class="cls-1" x1="0.65" y1="287.13" x2="214.04" y2="233.78"/><line class="cls-1" x1="0.65" y1="313.8" x2="214.04" y2="260.46"/><line class="cls-1" x1="0.65" y1="340.48" x2="214.04" y2="287.13"/><line class="cls-1" x1="0.65" y1="367.15" x2="214.04" y2="313.8"/><line class="cls-1" x1="0.65" y1="393.82" x2="214.04" y2="340.48"/><line class="cls-1" x1="0.65" y1="420.49" x2="214.04" y2="367.15"/><line class="cls-1" x1="160.69" y1="433.83" x2="214.04" y2="420.49"/><line class="cls-1" x1="214.04" y1="287.13" x2="0.65" y2="233.78"/><line class="cls-1" x1="214.04" y1="313.8" x2="0.65" y2="260.46"/><line class="cls-1" x1="214.04" y1="340.48" x2="0.65" y2="287.13"/><line class="cls-1" x1="214.04" y1="367.15" x2="0.65" y2="313.8"/><line class="cls-1" x1="214.04" y1="393.82" x2="0.65" y2="340.48"/><line class="cls-1" x1="214.04" y1="420.49" x2="0.65" y2="367.15"/><line class="cls-1" x1="160.69" y1="433.83" x2="0.65" y2="393.82"/><line class="cls-1" x1="0.65" y1="420.49" x2="54" y2="433.83"/><line class="cls-1" x1="0.65" y1="220.45" x2="0.65" y2="433.83"/><line class="cls-1" x1="54" y1="233.78" x2="54" y2="433.83"/><line class="cls-1" x1="107.34" y1="220.45" x2="107.34" y2="433.83"/><line class="cls-1" x1="160.69" y1="220.45" x2="160.69" y2="433.83"/><line class="cls-1" x1="214.04" y1="220.45" x2="214.04" y2="433.83"/><line class="cls-1" x1="0.65" y1="433.83" x2="214.04" y2="433.83"/><line class="cls-1" x1="0.65" y1="420.49" x2="214.04" y2="420.49"/><line class="cls-1" x1="0.65" y1="407.16" x2="214.04" y2="407.16"/><line class="cls-1" x1="0.65" y1="393.82" x2="214.04" y2="393.82"/><line class="cls-1" x1="0.65" y1="380.48" x2="214.04" y2="380.48"/><line class="cls-1" x1="0.65" y1="380.48" x2="214.04" y2="380.48"/><line class="cls-1" x1="0.65" y1="353.81" x2="214.04" y2="353.81"/><line class="cls-1" x1="0.65" y1="340.48" x2="214.04" y2="340.48"/><line class="cls-1" x1="0.65" y1="327.14" x2="214.04" y2="327.14"/><line class="cls-1" x1="0.65" y1="313.8" x2="214.04" y2="313.8"/><line class="cls-1" x1="0.65" y1="300.47" x2="214.04" y2="300.47"/><line class="cls-1" x1="0.65" y1="287.13" x2="214.04" y2="287.13"/><line class="cls-1" x1="0.65" y1="273.79" x2="214.04" y2="273.79"/><line class="cls-1" x1="0.65" y1="260.46" x2="214.04" y2="260.46"/><line class="cls-1" x1="0.65" y1="247.12" x2="214.04" y2="247.12"/><line class="cls-1" x1="0.65" y1="233.78" x2="214.04" y2="233.78"/><line class="cls-1" x1="0.65" y1="220.45" x2="214.04" y2="220.45"/><line class="cls-1" x1="0.65" y1="260.46" x2="160.69" y2="220.45"/><line class="cls-1" x1="0.65" y1="233.78" x2="54" y2="220.45"/><line class="cls-1" x1="0.65" y1="287.13" x2="214.04" y2="233.78"/><line class="cls-1" x1="0.65" y1="313.8" x2="214.04" y2="260.46"/><line class="cls-1" x1="0.65" y1="340.48" x2="214.04" y2="287.13"/><line class="cls-1" x1="0.65" y1="367.15" x2="214.04" y2="313.8"/><line class="cls-1" x1="0.65" y1="393.82" x2="214.04" y2="340.48"/><line class="cls-1" x1="0.65" y1="420.49" x2="214.04" y2="367.15"/><line class="cls-1" x1="54" y1="433.83" x2="214.04" y2="393.82"/><line class="cls-1" x1="160.69" y1="420.49" x2="214.04" y2="420.49"/><line class="cls-1" x1="214.04" y1="260.46" x2="54" y2="220.45"/><line class="cls-1" x1="214.04" y1="233.78" x2="160.69" y2="220.45"/><line class="cls-1" x1="214.04" y1="287.13" x2="0.65" y2="233.78"/><line class="cls-1" x1="214.04" y1="313.8" x2="0.65" y2="260.46"/><line class="cls-1" x1="214.04" y1="340.48" x2="0.65" y2="287.13"/><line class="cls-1" x1="214.04" y1="367.15" x2="0.65" y2="313.8"/><line class="cls-1" x1="214.04" y1="393.82" x2="0.65" y2="340.48"/><line class="cls-1" x1="214.04" y1="420.49" x2="0.65" y2="367.15"/><line class="cls-1" x1="160.69" y1="393.82" x2="0.65" y2="393.82"/><line class="cls-1" x1="54" y1="420.49" x2="0.65" y2="420.49"/><line class="cls-1" x1="0.65" y1="233.78" x2="0.65" y2="433.83"/><line class="cls-1" x1="54" y1="220.45" x2="54" y2="433.83"/><line class="cls-1" x1="107.34" y1="220.45" x2="107.34" y2="433.83"/><line class="cls-1" x1="160.69" y1="220.45" x2="160.69" y2="433.83"/><line class="cls-1" x1="214.04" y1="220.45" x2="214.04" y2="433.83"/><line class="cls-1" x1="0.65" y1="433.83" x2="214.04" y2="433.83"/><line class="cls-1" x1="0.65" y1="420.49" x2="214.04" y2="420.49"/><line class="cls-1" x1="0.65" y1="407.16" x2="214.04" y2="407.16"/><line class="cls-1" x1="0.65" y1="393.82" x2="214.04" y2="393.82"/><line class="cls-1" x1="0.65" y1="380.48" x2="214.04" y2="380.48"/><line class="cls-1" x1="0.65" y1="367.15" x2="214.04" y2="367.15"/><line class="cls-1" x1="0.65" y1="353.81" x2="214.04" y2="353.81"/><line class="cls-1" x1="0.65" y1="340.48" x2="214.04" y2="340.48"/><line class="cls-1" x1="0.65" y1="327.14" x2="214.04" y2="327.14"/><line class="cls-1" x1="0.65" y1="313.8" x2="214.04" y2="313.8"/><line class="cls-1" x1="0.65" y1="300.47" x2="214.04" y2="300.47"/><line class="cls-1" x1="0.65" y1="287.13" x2="214.04" y2="287.13"/><line class="cls-1" x1="0.65" y1="273.79" x2="214.04" y2="273.79"/><line class="cls-1" x1="0.65" y1="260.46" x2="214.04" y2="260.46"/><line class="cls-1" x1="0.65" y1="247.12" x2="214.04" y2="247.12"/><line class="cls-1" x1="0.65" y1="233.78" x2="214.04" y2="233.78"/><line class="cls-1" x1="0.65" y1="220.45" x2="214.04" y2="220.45"/><line class="cls-1" x1="213.97" y1="287.1" x2="427.35" y2="233.75"/><line class="cls-1" x1="213.97" y1="313.77" x2="427.35" y2="260.42"/><line class="cls-1" x1="213.97" y1="340.44" x2="427.35" y2="287.1"/><line class="cls-1" x1="213.97" y1="367.11" x2="427.35" y2="313.77"/><line class="cls-1" x1="213.97" y1="393.79" x2="427.35" y2="340.44"/><line class="cls-1" x1="213.97" y1="420.46" x2="427.35" y2="367.11"/><line class="cls-1" x1="374.01" y1="433.8" x2="427.35" y2="420.46"/><line class="cls-1" x1="427.35" y1="287.1" x2="213.97" y2="233.75"/><line class="cls-1" x1="427.35" y1="313.77" x2="213.97" y2="260.42"/><line class="cls-1" x1="427.35" y1="340.44" x2="213.97" y2="287.1"/><line class="cls-1" x1="427.35" y1="367.11" x2="213.97" y2="313.77"/><line class="cls-1" x1="427.35" y1="393.79" x2="213.97" y2="340.44"/><line class="cls-1" x1="427.35" y1="420.46" x2="213.97" y2="367.11"/><line class="cls-1" x1="374.01" y1="433.8" x2="213.97" y2="393.79"/><line class="cls-1" x1="213.97" y1="420.46" x2="267.32" y2="433.8"/><line class="cls-1" x1="213.97" y1="220.41" x2="213.97" y2="433.8"/><line class="cls-1" x1="267.32" y1="233.75" x2="267.32" y2="433.8"/><line class="cls-1" x1="320.66" y1="220.41" x2="320.66" y2="433.8"/><line class="cls-1" x1="374.01" y1="220.41" x2="374.01" y2="433.8"/><line class="cls-1" x1="427.35" y1="220.41" x2="427.35" y2="433.8"/><line class="cls-1" x1="213.97" y1="433.8" x2="427.35" y2="433.8"/><line class="cls-1" x1="213.97" y1="420.46" x2="427.35" y2="420.46"/><line class="cls-1" x1="213.97" y1="407.12" x2="427.35" y2="407.12"/><line class="cls-1" x1="213.97" y1="393.79" x2="427.35" y2="393.79"/><line class="cls-1" x1="213.97" y1="380.45" x2="427.35" y2="380.45"/><line class="cls-1" x1="213.97" y1="380.45" x2="427.35" y2="380.45"/><line class="cls-1" x1="213.97" y1="353.78" x2="427.35" y2="353.78"/><line class="cls-1" x1="213.97" y1="340.44" x2="427.35" y2="340.44"/><line class="cls-1" x1="213.97" y1="327.1" x2="427.35" y2="327.1"/><line class="cls-1" x1="213.97" y1="313.77" x2="427.35" y2="313.77"/><line class="cls-1" x1="213.97" y1="300.43" x2="427.35" y2="300.43"/><line class="cls-1" x1="213.97" y1="287.1" x2="427.35" y2="287.1"/><line class="cls-1" x1="213.97" y1="273.76" x2="427.35" y2="273.76"/><line class="cls-1" x1="213.97" y1="260.42" x2="427.35" y2="260.42"/><line class="cls-1" x1="213.97" y1="247.09" x2="427.35" y2="247.09"/><line class="cls-1" x1="213.97" y1="233.75" x2="427.35" y2="233.75"/><line class="cls-1" x1="213.97" y1="220.41" x2="427.35" y2="220.41"/><line class="cls-1" x1="213.97" y1="260.42" x2="374.01" y2="220.41"/><line class="cls-1" x1="213.97" y1="233.75" x2="267.32" y2="220.41"/><line class="cls-1" x1="213.97" y1="287.1" x2="427.35" y2="233.75"/><line class="cls-1" x1="213.97" y1="313.77" x2="427.35" y2="260.42"/><line class="cls-1" x1="213.97" y1="340.44" x2="427.35" y2="287.1"/><line class="cls-1" x1="213.97" y1="367.11" x2="427.35" y2="313.77"/><line class="cls-1" x1="213.97" y1="393.79" x2="427.35" y2="340.44"/><line class="cls-1" x1="213.97" y1="420.46" x2="427.35" y2="367.11"/><line class="cls-1" x1="267.32" y1="433.8" x2="427.35" y2="393.79"/><line class="cls-1" x1="374.01" y1="420.46" x2="427.35" y2="420.46"/><line class="cls-1" x1="427.35" y1="260.42" x2="267.32" y2="220.41"/><line class="cls-1" x1="427.35" y1="233.75" x2="374.01" y2="220.41"/><line class="cls-1" x1="427.35" y1="287.1" x2="213.97" y2="233.75"/><line class="cls-1" x1="427.35" y1="313.77" x2="213.97" y2="260.42"/><line class="cls-1" x1="427.35" y1="340.44" x2="213.97" y2="287.1"/><line class="cls-1" x1="427.35" y1="367.11" x2="213.97" y2="313.77"/><line class="cls-1" x1="427.35" y1="393.79" x2="213.97" y2="340.44"/><line class="cls-1" x1="427.35" y1="420.46" x2="213.97" y2="367.11"/><line class="cls-1" x1="374.01" y1="393.79" x2="213.97" y2="393.79"/><line class="cls-1" x1="267.32" y1="420.46" x2="213.97" y2="420.46"/><line class="cls-1" x1="213.97" y1="233.75" x2="213.97" y2="433.8"/><line class="cls-1" x1="267.32" y1="220.41" x2="267.32" y2="433.8"/><line class="cls-1" x1="320.66" y1="220.41" x2="320.66" y2="433.8"/><line class="cls-1" x1="374.01" y1="220.41" x2="374.01" y2="433.8"/><line class="cls-1" x1="427.35" y1="220.41" x2="427.35" y2="433.8"/><line class="cls-1" x1="213.97" y1="433.8" x2="427.35" y2="433.8"/><line class="cls-1" x1="213.97" y1="420.46" x2="427.35" y2="420.46"/><line class="cls-1" x1="213.97" y1="407.12" x2="427.35" y2="407.12"/><line class="cls-1" x1="213.97" y1="393.79" x2="427.35" y2="393.79"/><line class="cls-1" x1="213.97" y1="380.45" x2="427.35" y2="380.45"/><line class="cls-1" x1="213.97" y1="367.11" x2="427.35" y2="367.11"/><line class="cls-1" x1="213.97" y1="353.78" x2="427.35" y2="353.78"/><line class="cls-1" x1="213.97" y1="340.44" x2="427.35" y2="340.44"/><line class="cls-1" x1="427.35" y1="327.1" x2="213.97" y2="327.1"/><line class="cls-1" x1="427.35" y1="313.77" x2="213.97" y2="313.77"/><line class="cls-1" x1="213.97" y1="300.43" x2="427.35" y2="300.43"/><line class="cls-1" x1="213.97" y1="287.1" x2="427.35" y2="287.1"/><line class="cls-1" x1="213.97" y1="273.76" x2="427.35" y2="273.76"/><line class="cls-1" x1="213.97" y1="260.42" x2="427.35" y2="260.42"/><line class="cls-1" x1="213.97" y1="247.09" x2="427.35" y2="247.09"/><line class="cls-1" x1="213.97" y1="233.75" x2="427.35" y2="233.75"/><line class="cls-1" x1="213.97" y1="220.41" x2="427.35" y2="220.41"/><path class="cls-2" d="M187.81,100.41H240.6l26.81,12,69.9,281.32L80.41,434.62l80.3-322.18Z"/><path class="cls-2" d="M187.91,6.08h53.35l.09,66.66-53.34.1Z"/><line class="cls-2" x1="295.93" y1="220.15" x2="129.63" y2="220.15"/></svg>