<svg id="Layer_1" data-name="Layer 1" xmlns="http://www.w3.org/2000/svg" viewBox="0 0 960 1456.52"><defs><style>.cls-1{fill:#231f20;}.cls-2{font-size:21.61px;fill:#828282;font-family:Circe-Light, Circe;font-weight:300;}</style></defs><title>курсив</title><path class="cls-1" d="M147.05,595.52h-4.12V543.14h4.12Zm27.09-52.38h5l-24.77,24.77,25.82,27.61h-5.32l-25.36-27.31Z"/><path class="cls-1" d="M222.61,543.14h4.11v30.45q0,11.31-5.61,16.91a19.23,19.23,0,0,1-14.21,5.62q-9.51,0-15.42-5.91t-5.83-17.14V543.14h4.11v29.18q0,9.36,4.6,14.63t12.54,5.28q7.32,0,11.52-5t4.19-14.51Z"/><path class="cls-1" d="M273.46,558.17a15.66,15.66,0,0,1-4.94,9.78q-4.25,4-11.41,5l11.57,22.57H263l-11-22.29H240.53L237,595.52h-4.7l8.48-52.78h17.12q8.79,0,12.57,4.57A13.73,13.73,0,0,1,273.46,558.17Zm-32.24,10.92h11.26q7.17,0,11.38-3a11.52,11.52,0,0,0,4.89-8.32c.41-3.33-.36-6-2.31-8s-4.91-3-8.87-3h-12.8Z"/><path class="cls-1" d="M308.16,582.5a9,9,0,0,0-2-5.91,12.92,12.92,0,0,0-5-3.74q-3-1.27-6.51-2.81t-6.51-3a13.18,13.18,0,0,1-5-4.45,12.14,12.14,0,0,1-2-7,12,12,0,0,1,4.12-9.35q4.19-3.74,11.22-3.74,9.21,0,14.07,5.31l-2.25,3.07a15.79,15.79,0,0,0-11.67-4.49q-5.16,0-8.15,2.51a8.27,8.27,0,0,0-3,6.69,8.81,8.81,0,0,0,2,5.8,12.43,12.43,0,0,0,5,3.63c2,.8,4.16,1.68,6.51,2.66s4.51,2,6.51,3a13,13,0,0,1,5,4.53,12.81,12.81,0,0,1,2,7.29,12.13,12.13,0,0,1-4.79,10,18.46,18.46,0,0,1-11.9,3.82,24,24,0,0,1-9.57-2,13.68,13.68,0,0,1-6.51-5.54l2.47-2.84a16.1,16.1,0,0,0,6,4.71,17.32,17.32,0,0,0,7.56,1.8,14.62,14.62,0,0,0,8.75-2.62A8.22,8.22,0,0,0,308.16,582.5Z"/><path class="cls-1" d="M330.76,595.52h-4.12V543.14h4.12Z"/><path class="cls-1" d="M384.93,543.14h4.19l-22,52.83H364.2l-22.52-52.83h4.41l19.68,46.54Z"/><path class="cls-1" d="M147.05,701.51h-4.12V649.14h4.12Zm27.09-52.37h5L154.38,673.9l25.82,27.61h-5.32L149.52,674.2Z"/><path class="cls-1" d="M222.61,649.14h4.11v30.45q0,11.29-5.61,16.91a19.26,19.26,0,0,1-14.21,5.61q-9.51,0-15.42-5.91t-5.83-17.13V649.14h4.11v29.18q0,9.34,4.6,14.63t12.54,5.27q7.32,0,11.52-5t4.19-14.52Z"/><path class="cls-1" d="M298.75,664.16q-1.12,5.79-8,9.79t-18.42,5L291,701.51h-7.81l-17.8-22.28H242.8l-5.73,22.28h-6.19l13.69-52.77h29q14.19,0,20.29,4.57T298.75,664.16Zm-54.83,10.93h21c7.72,0,15.24-1,19.76-3s7.16-4.75,7.9-8.32q1-5-3.73-8c-3.15-2-9.33-3-15.72-3H249.64Z"/><path class="cls-1" d="M334.32,688.49a9,9,0,0,0-2-5.91,12.94,12.94,0,0,0-5-3.74q-3-1.27-6.51-2.8t-6.51-3a13.1,13.1,0,0,1-5-4.46,12.87,12.87,0,0,1,2.09-16.35q4.2-3.74,11.23-3.74,9.19,0,14.06,5.32l-2.24,3.06a15.8,15.8,0,0,0-11.67-4.48q-5.18,0-8.16,2.5a8.27,8.27,0,0,0-3,6.7,8.78,8.78,0,0,0,2,5.8,12.4,12.4,0,0,0,5,3.63c2,.79,4.16,1.68,6.51,2.65s4.51,2,6.51,3a12.81,12.81,0,0,1,7,11.82,12.1,12.1,0,0,1-4.79,10A18.43,18.43,0,0,1,322,702.19a24.24,24.24,0,0,1-9.58-2,13.83,13.83,0,0,1-6.51-5.54l2.47-2.84a16.34,16.34,0,0,0,6,4.71,17.25,17.25,0,0,0,7.55,1.8,14.74,14.74,0,0,0,8.76-2.62A8.25,8.25,0,0,0,334.32,688.49Z"/><path class="cls-1" d="M352.72,701.51H348.6V649.14h4.12Z"/><path class="cls-1" d="M406.89,649.14h4.19l-22,52.82h-2.92l-22.52-52.82h4.42l19.67,46.54Z"/><path class="cls-1" d="M149.63,897.4h-2v-47h2Zm26.16-47h2.75l-23.08,22.34,23.88,24.62h-2.88l-23.75-24.49Z"/><path class="cls-1" d="M222.94,850.44h2v27.24q0,10.05-5,15.16a16.67,16.67,0,0,1-12.48,5A18.09,18.09,0,0,1,194,892.5q-5.16-5.37-5.16-15.29V850.44h2v26.5q0,9,4.63,14.08a15.75,15.75,0,0,0,12.07,5q7.11,0,11.27-4.8t4.16-14Z"/><path class="cls-1" d="M241.86,876.87V897.4h-2v-47c1.88,0,3.72,0,5.51-.06s3.37-.07,4.62-.07q16.25,0,16.24,13.15a11.94,11.94,0,0,1-3.29,8.38,15.27,15.27,0,0,1-8.59,4.63l17,20.93h-2.48l-16.7-20.53Zm8-24.68q-2.09,0-8,.13V875H251a13.79,13.79,0,0,0,9.06-3.28,10.18,10.18,0,0,0,4.09-8.25Q264.13,852.18,249.84,852.19Z"/><path class="cls-1" d="M304.24,886a9.39,9.39,0,0,0-1.41-5.16,10.28,10.28,0,0,0-3.66-3.49,36.32,36.32,0,0,0-4.93-2.31l-5.4-2.12a31.38,31.38,0,0,1-5-2.45,10.44,10.44,0,0,1-5.06-9.28,10.32,10.32,0,0,1,3.62-8.19q3.62-3.15,9.79-3.15a19.26,19.26,0,0,1,7,1.27,13.71,13.71,0,0,1,5.3,3.49L303.43,856q-4.08-4.23-11.27-4.23a12.29,12.29,0,0,0-8.21,2.59,8.46,8.46,0,0,0-3.05,6.81,8.67,8.67,0,0,0,1.87,5.7,9.61,9.61,0,0,0,2.28,2.08,21.08,21.08,0,0,0,2.25,1.34c.56.27,1.65.71,3.25,1.34s2.62,1,3,1.21q4.5,1.74,6.17,2.55a11.05,11.05,0,0,1,4.77,4.09,11.49,11.49,0,0,1,1.81,6.44,10.66,10.66,0,0,1-4.23,8.78A16.12,16.12,0,0,1,291.63,898a20.47,20.47,0,0,1-8.25-1.81,12.1,12.1,0,0,1-5.84-4.83l1.28-1.34a15.13,15.13,0,0,0,5.56,4.43,17.5,17.5,0,0,0,7.11,1.6,15.15,15.15,0,0,0,9-2.61A8.74,8.74,0,0,0,304.24,886Z"/><path class="cls-1" d="M311.27,911l-2-.42,16.85-79,2,.42Z"/><path class="cls-1" d="M372.19,850.44h2.08l-20.06,47.43h-1.27l-20.53-47.43h2.15l19.11,44.27Z"/><path class="cls-1" d="M579.73,266.5V227.61h4.48V266.5Zm24.53,0-21.41-19.77,20.48-19.12h5.73l-21.95,20.48.21-2.89,22.78,21.3Z"/><path class="cls-1" d="M629,266.94q-7.59,0-11.52-4t-3.94-11.72V227.61H618v24c0,3.83.93,6.69,2.78,8.61s4.61,2.86,8.25,2.86,6.28-1,8.14-2.89,2.79-4.79,2.79-8.58v-24h4.48v23.65q0,7.69-3.94,11.69T629,266.94Z"/><path class="cls-1" d="M653.75,266.5V227.61H669.2q6.28,0,9.64,2.78t3.36,8a9.75,9.75,0,0,1-3.41,7.9q-3.42,2.87-9.59,2.86l4-.76a5.85,5.85,0,0,1,3.66,1.17,8.1,8.1,0,0,1,2.45,3.75l4.92,13.16h-4.75l-4.81-12.95a5.63,5.63,0,0,0-2.54-3.25,9.9,9.9,0,0,0-4.29-.79h-9.72v17Zm4.42-20.7h10.65q4.53,0,6.75-1.86a6.74,6.74,0,0,0,2.21-5.46,6.5,6.5,0,0,0-2.19-5.38q-2.18-1.78-6.77-1.78H658.17Z"/><path class="cls-1" d="M701.84,266.94a29.41,29.41,0,0,1-5.62-.52,19.06,19.06,0,0,1-4.86-1.64,18.1,18.1,0,0,1-4.05-2.76l1.7-3.44a19.11,19.11,0,0,0,5.92,3.49,21,21,0,0,0,7,1,12.28,12.28,0,0,0,7.21-1.83,6,6,0,0,0,2.57-5.16,4.28,4.28,0,0,0-1.29-3.25,9.1,9.1,0,0,0-3.49-2c-1.48-.5-3.14-1-5-1.4s-3.63-.86-5.3-1.39a19.77,19.77,0,0,1-4.45-2,8.39,8.39,0,0,1-4.13-7.71,10.13,10.13,0,0,1,1.75-5.87,11.61,11.61,0,0,1,4.92-4,18.12,18.12,0,0,1,7.48-1.42,22.68,22.68,0,0,1,5.14.57,19.63,19.63,0,0,1,4.56,1.67,15.81,15.81,0,0,1,3.74,2.68l-1.75,3.44a18.28,18.28,0,0,0-5.52-3.44,17,17,0,0,0-6.17-1.09,11.63,11.63,0,0,0-7.1,1.91,6.29,6.29,0,0,0-2.57,5.35,5.05,5.05,0,0,0,1.15,3.44,7.85,7.85,0,0,0,3.22,2.1,40.65,40.65,0,0,0,4.76,1.45q2.83.66,5.46,1.42a23.21,23.21,0,0,1,4.67,1.89,9.12,9.12,0,0,1,3.25,2.89,7.91,7.91,0,0,1,1.2,4.51,9.71,9.71,0,0,1-1.75,5.79,11.28,11.28,0,0,1-5,3.82A19.54,19.54,0,0,1,701.84,266.94Z"/><path class="cls-1" d="M715.53,281.25l16.59-70.45,4.38,1-16.59,70.44Z"/><path class="cls-1" d="M752,266.5l-15-38.89h4.76l13.08,35.28h-1.8l13.14-35.28h4.64L755.89,266.5Z"/><rect class="cls-1" x="726.09" y="210.69" width="22.88" height="4.27"/><rect class="cls-1" x="702.79" y="277.98" width="22.88" height="4.27"/><path class="cls-1" d="M579.88,383.71V344.82h4.48v38.89Zm24.52,0L583,363.93l20.49-19.11h5.73l-22,20.48.22-2.9,22.78,21.31Z"/><path class="cls-1" d="M629.15,384.14c-5.06,0-8.91-1.31-11.53-4s-3.93-6.54-3.93-11.71V344.82h4.42v24q0,5.73,2.79,8.6c1.86,1.92,4.61,2.87,8.25,2.87s6.28-1,8.14-2.89,2.78-4.79,2.78-8.58v-24h4.48v23.65q0,7.69-3.93,11.69T629.15,384.14Z"/><path class="cls-1" d="M653.89,383.71V344.82h15.46q6.28,0,9.64,2.78t3.36,8a9.76,9.76,0,0,1-3.41,7.89q-3.42,2.88-9.59,2.87l4-.76a5.85,5.85,0,0,1,3.66,1.17,8,8,0,0,1,2.46,3.74l4.92,13.17h-4.76l-4.8-12.95a5.6,5.6,0,0,0-2.54-3.25,10,10,0,0,0-4.29-.79h-9.72v17Zm4.43-20.7H669q4.53,0,6.74-1.86a6.72,6.72,0,0,0,2.22-5.46,6.5,6.5,0,0,0-2.19-5.38c-1.46-1.19-3.71-1.78-6.77-1.78H658.32Z"/><path class="cls-1" d="M702,384.14a29.54,29.54,0,0,1-5.63-.51A19.73,19.73,0,0,1,691.5,382a18,18,0,0,1-4-2.76l1.69-3.44a19.26,19.26,0,0,0,5.93,3.49,21,21,0,0,0,7,1q4.65,0,7.21-1.83a6,6,0,0,0,2.57-5.16,4.31,4.31,0,0,0-1.28-3.25,9.15,9.15,0,0,0-3.5-2q-2.2-.74-5-1.39c-1.85-.4-3.62-.86-5.29-1.39a19.87,19.87,0,0,1-4.46-2,8.87,8.87,0,0,1-3-3.06,9,9,0,0,1-1.09-4.64,10.06,10.06,0,0,1,1.75-5.87,11.52,11.52,0,0,1,4.91-4,18.17,18.17,0,0,1,7.49-1.42,22.66,22.66,0,0,1,5.13.57,19.19,19.19,0,0,1,4.56,1.67,15.86,15.86,0,0,1,3.75,2.68L714,352.74a18.33,18.33,0,0,0-5.52-3.44,17,17,0,0,0-6.17-1.1,11.63,11.63,0,0,0-7.1,1.92,6.25,6.25,0,0,0-2.57,5.35,5,5,0,0,0,1.15,3.44A8,8,0,0,0,697,361a40.45,40.45,0,0,0,4.75,1.45q2.85.66,5.46,1.42a23.56,23.56,0,0,1,4.67,1.88,9.16,9.16,0,0,1,3.25,2.9,7.89,7.89,0,0,1,1.21,4.51,9.77,9.77,0,0,1-1.75,5.79,11.41,11.41,0,0,1-5,3.82A19.55,19.55,0,0,1,702,384.14Z"/><path class="cls-1" d="M715.68,398.45,732.27,328l4.37,1-16.59,70.44Z"/><path class="cls-1" d="M752.1,383.71l-14.94-38.89h4.75L755,380.1h-1.81l13.14-35.28H771l-15,38.89Z"/><rect class="cls-1" x="726.23" y="327.9" width="22.88" height="4.27"/><rect class="cls-1" x="579.73" y="395.18" width="146.08" height="4.27"/><path class="cls-1" d="M579.73,70H586v39.59l17.07-16.51H612l-18.11,17.07,19.95,20.43h-9.22L586,110.86v19.71h-6.25Z"/><path class="cls-1" d="M652.5,121.68c0,1.71,0,3.31.16,4.81s.16,2.85.16,4.08h-5.93c0-1,0-2-.08-3s-.08-2.06-.08-3.13h-.16a10.87,10.87,0,0,1-1.81,2.65,13,13,0,0,1-2.76,2.28,14.65,14.65,0,0,1-3.61,1.6,15,15,0,0,1-4.33.6,16.45,16.45,0,0,1-6.37-1.12,11.85,11.85,0,0,1-4.44-3.12,12.61,12.61,0,0,1-2.61-4.85,21.89,21.89,0,0,1-.84-6.21V93.07h6.25v22.52a12,12,0,0,0,2.08,7.45c1.39,1.82,3.56,2.72,6.5,2.72a12.07,12.07,0,0,0,5.24-1,9.25,9.25,0,0,0,3.61-3,13.32,13.32,0,0,0,2.08-4.57,23.13,23.13,0,0,0,.69-5.85V93.07h6.25Z"/><path class="cls-1" d="M664.36,102c0-1.71-.06-3.31-.16-4.8S664,94.3,664,93.07H670c0,1,0,2,.08,3s.08,2.06.08,3.13h.16a10.54,10.54,0,0,1,1.8-2.65,13.26,13.26,0,0,1,2.76-2.28,14.65,14.65,0,0,1,3.61-1.6,15.06,15.06,0,0,1,4.33-.6,9.17,9.17,0,0,1,1.28.08,5.46,5.46,0,0,1,1.28.32l-.4,6.33a11.66,11.66,0,0,0-3.36-.48q-5.77,0-8.38,3.72t-2.6,10.22v18.27h-6.25Z"/><path class="cls-1" d="M693.37,120.72a15.62,15.62,0,0,0,4,3.68,10.43,10.43,0,0,0,5.57,1.36,13.48,13.48,0,0,0,2.93-.32,8.75,8.75,0,0,0,2.68-1,5.93,5.93,0,0,0,1.92-1.8,4.51,4.51,0,0,0,.73-2.6,4.24,4.24,0,0,0-.68-2.49,6,6,0,0,0-1.81-1.64,9.72,9.72,0,0,0-2.56-1.08c-1-.27-2-.51-3-.73q-2.64-.56-5.05-1.28a16.54,16.54,0,0,1-4.2-1.88,8.85,8.85,0,0,1-2.89-3,9.21,9.21,0,0,1-1.08-4.72,9.46,9.46,0,0,1,1.2-4.81,10.38,10.38,0,0,1,3.21-3.45,15.59,15.59,0,0,1,4.48-2.08,18.38,18.38,0,0,1,5.13-.72,17.2,17.2,0,0,1,7.42,1.6,11.57,11.57,0,0,1,5.33,5.21l-5.21,3.44a9.82,9.82,0,0,0-3.17-3.24,8.73,8.73,0,0,0-4.77-1.24,10.69,10.69,0,0,0-2.6.32,8.07,8.07,0,0,0-2.37,1,5.61,5.61,0,0,0-1.72,1.64,4,4,0,0,0-.68,2.29,2.92,2.92,0,0,0,.76,2,6.74,6.74,0,0,0,2.09,1.48,17.79,17.79,0,0,0,3,1.12q1.73.48,3.57.81a35.41,35.41,0,0,1,4.72,1.24,13.78,13.78,0,0,1,3.93,2A9.2,9.2,0,0,1,717,115a10.47,10.47,0,0,1,1,4.72,10.85,10.85,0,0,1-1.28,5.45,10.66,10.66,0,0,1-3.41,3.65,14.71,14.71,0,0,1-4.81,2,23.42,23.42,0,0,1-5.49.64,21.07,21.07,0,0,1-8.29-1.48,15,15,0,0,1-6.29-5.49Z"/><path class="cls-1" d="M737.13,75.81,740.77,77l-21.54,69.27-3.65-1.19Z"/><path class="cls-1" d="M763.11,130.57h-6.9l-15.3-37.5h7.29l11.7,29.41h.16L771.2,93.07h6.73Z"/><rect class="cls-1" x="730.12" y="75.81" width="22.99" height="3.94"/><rect class="cls-1" x="703.25" y="142.3" width="22.79" height="3.94"/><path class="cls-1" d="M573.23,896h-2V849.08h2Zm26.16-46.95h2.75l-23.08,22.33L602.94,896h-2.88l-23.75-24.48Z"/><path class="cls-1" d="M646.54,849.08h2v27.23q0,10.07-5,15.16a16.68,16.68,0,0,1-12.48,5,18.09,18.09,0,0,1-13.55-5.37q-5.16-5.36-5.16-15.29V849.08h2v26.49q0,9.06,4.63,14.09a15.73,15.73,0,0,0,12.07,5q7.11,0,11.27-4.79t4.16-14Z"/><path class="cls-1" d="M665.46,875.5V896h-2V849.08c1.88,0,3.72,0,5.5-.07s3.38-.07,4.63-.07q16.23,0,16.24,13.15a11.94,11.94,0,0,1-3.29,8.38,15.27,15.27,0,0,1-8.59,4.63L695,896h-2.48l-16.7-20.53Zm8-24.68q-2.09,0-8,.13v22.68h9.12a13.77,13.77,0,0,0,9-3.29,10.16,10.16,0,0,0,4.1-8.25Q687.73,850.83,673.44,850.82Z"/><path class="cls-1" d="M727.84,884.63a9.43,9.43,0,0,0-1.41-5.17,10.36,10.36,0,0,0-3.66-3.49,36.9,36.9,0,0,0-4.93-2.31l-5.4-2.11a32.26,32.26,0,0,1-5-2.45,10.86,10.86,0,0,1-3.66-3.72,10.62,10.62,0,0,1-1.41-5.57,10.35,10.35,0,0,1,3.63-8.19q3.62-3.15,9.79-3.15a19.3,19.3,0,0,1,7,1.28,13.77,13.77,0,0,1,5.3,3.48L727,854.64q-4.1-4.21-11.27-4.22a12.29,12.29,0,0,0-8.21,2.58,8.47,8.47,0,0,0-3.06,6.81,8.68,8.68,0,0,0,1.88,5.7,9.42,9.42,0,0,0,2.28,2.08,19.5,19.5,0,0,0,2.25,1.34c.56.27,1.64.72,3.25,1.34s2.62,1,3,1.21c3,1.16,5.05,2,6.17,2.55a11.12,11.12,0,0,1,4.77,4.09,11.49,11.49,0,0,1,1.81,6.44,10.69,10.69,0,0,1-4.23,8.79,16.19,16.19,0,0,1-10.46,3.28,20.47,20.47,0,0,1-8.25-1.81,12.1,12.1,0,0,1-5.84-4.83l1.27-1.34a15.15,15.15,0,0,0,5.57,4.43,17.51,17.51,0,0,0,7.11,1.61,15.11,15.11,0,0,0,9-2.62A8.73,8.73,0,0,0,727.84,884.63Z"/><path class="cls-1" d="M734.87,909.59l-2-.42,16.85-79,2,.42Z"/><path class="cls-1" d="M795.79,849.08h2.08L777.81,896.5h-1.27L756,849.08h2.15l19.11,44.27Z"/><rect class="cls-1" x="745.04" y="830.17" width="14.97" height="2.08"/><rect class="cls-1" x="724.64" y="907.64" width="14.97" height="2.08"/><path class="cls-1" d="M181.94,1081h-2.29v-29.09h2.29Zm15-29.09h2.79L186,1065.7,200.35,1081H197.4l-14.09-15.16Z"/><path class="cls-1" d="M226.24,1051.94h2.28v16.92q0,6.27-3.11,9.39a10.7,10.7,0,0,1-7.9,3.12,11.61,11.61,0,0,1-8.56-3.28q-3.24-3.28-3.24-9.52v-16.63H208v16.21c0,3.47.86,6.17,2.56,8.13a8.76,8.76,0,0,0,7,2.93,7.88,7.88,0,0,0,6.4-2.79q2.33-2.78,2.33-8.06Z"/><path class="cls-1" d="M239.62,1068.82V1081h-2.29v-29.09c1.25,0,2.51,0,3.79,0s2.34,0,3.2,0q10.17,0,10.18,8.4a7.87,7.87,0,0,1-1.95,5.27,8.91,8.91,0,0,1-5,2.83L257.78,1081H255l-9.69-12.21Zm4.57-14.8c-.61,0-2.13,0-4.57.08v12.56h5a7.93,7.93,0,0,0,5.15-1.79,5.58,5.58,0,0,0,2.29-4.61Q252.09,1054,244.19,1054Z"/><path class="cls-1" d="M277,1073.8a5,5,0,0,0-1.12-3.28,7.26,7.26,0,0,0-2.78-2.08l-3.62-1.56c-1.3-.56-2.51-1.12-3.62-1.68a7.36,7.36,0,0,1-2.78-2.47,7.15,7.15,0,0,1,1.16-9.08,9,9,0,0,1,6.24-2.08q5.12,0,7.81,3l-1.25,1.7a8.77,8.77,0,0,0-6.48-2.49,6.83,6.83,0,0,0-4.53,1.39,4.6,4.6,0,0,0-1.66,3.72,4.86,4.86,0,0,0,1.12,3.22,6.92,6.92,0,0,0,2.78,2c1.11.44,2.32.93,3.62,1.47s2.51,1.09,3.62,1.65a7.23,7.23,0,0,1,2.78,2.51,7.11,7.11,0,0,1,1.12,4,6.72,6.72,0,0,1-2.66,5.53,10.26,10.26,0,0,1-6.6,2.12,13.48,13.48,0,0,1-5.32-1.12,7.65,7.65,0,0,1-3.62-3.08l1.37-1.58a9,9,0,0,0,3.33,2.62,9.51,9.51,0,0,0,4.19,1,8.16,8.16,0,0,0,4.87-1.46A4.58,4.58,0,0,0,277,1073.8Z"/><path class="cls-1" d="M289.53,1081h-2.28v-29.09h2.28Z"/><path class="cls-1" d="M319.62,1051.94H322l-12.22,29.34h-1.62l-12.51-29.34h2.45L309,1077.79Z"/><path class="cls-1" d="M144.12,1119.29l-2.61-.56,22.31-104.55,2.61.56Z"/><rect class="cls-1" x="157.59" y="1014.12" width="19.82" height="2.76"/><rect class="cls-1" x="130.57" y="1116.71" width="19.82" height="2.76"/><path class="cls-1" d="M484.35,1044a3.19,3.19,0,0,0-.72-2.1,4.59,4.59,0,0,0-1.78-1.33l-2.32-1q-1.25-.54-2.31-1.08a4.56,4.56,0,0,1-1.78-1.58,4.57,4.57,0,0,1,.74-5.81,5.74,5.74,0,0,1,4-1.33,6.43,6.43,0,0,1,5,1.89l-.8,1.09a5.58,5.58,0,0,0-4.15-1.6,4.41,4.41,0,0,0-2.9.89,3,3,0,0,0-1.06,2.38,3.1,3.1,0,0,0,.72,2.06,4.33,4.33,0,0,0,1.78,1.29l2.31,1c.84.34,1.61.69,2.32,1a4.57,4.57,0,0,1,2.5,4.2,4.33,4.33,0,0,1-1.7,3.54,6.61,6.61,0,0,1-4.23,1.35,8.72,8.72,0,0,1-3.41-.71,4.88,4.88,0,0,1-2.31-2l.88-1a5.74,5.74,0,0,0,2.12,1.67,6.13,6.13,0,0,0,2.69.64,5.2,5.2,0,0,0,3.11-.93A2.92,2.92,0,0,0,484.35,1044Z"/><path class="cls-1" d="M488.76,1039.28a9.38,9.38,0,0,1,2.66-6.81,9.51,9.51,0,0,1,13.33,0,9.26,9.26,0,0,1,2.68,6.84,9.41,9.41,0,0,1-2.68,6.83,8.93,8.93,0,0,1-6.65,2.71,9.07,9.07,0,0,1-6.68-2.68A9.36,9.36,0,0,1,488.76,1039.28Zm1.54,0a8.17,8.17,0,0,0,2.24,5.82,7.43,7.43,0,0,0,5.56,2.34,7.28,7.28,0,0,0,5.58-2.34,8.19,8.19,0,0,0,2.21-5.82,8,8,0,0,0-2.26-5.83,7.74,7.74,0,0,0-11.09,0A8.06,8.06,0,0,0,490.3,1039.28Z"/><path class="cls-1" d="M513.28,1048.58h-1.46V1030h10.4v1.38h-8.94V1039h8.14v1.38h-8.14Z"/><path class="cls-1" d="M530.44,1031.35h-6.89V1030h15.24v1.38H531.9v17.23h-1.46Z"/><path class="cls-1" d="M465.37,1078.84h-.24v-18.62h.29c.76,0,1.47,0,2.13,0,1.31,0,2.09,0,2.34,0a14.15,14.15,0,0,1,4.75.73,8.11,8.11,0,0,1,3.28,2,8.38,8.38,0,0,1,1.83,2.9,10.07,10.07,0,0,1,.59,3.47,9.22,9.22,0,0,1-2.79,6.91c-1.84,1.81-4.47,2.72-7.87,2.72-.76,0-1.47,0-2.1,0S466.2,1078.84,465.37,1078.84Zm4.47-17.31c-.39,0-1,0-1.72,0l-1.53,0v15.85h1.65l1.12,0h.37a9.25,9.25,0,0,0,6.7-2.28,8,8,0,0,0,2.37-6,7.37,7.37,0,0,0-2.26-5.59C475,1062.25,472.78,1061.53,469.84,1061.53Z"/><path class="cls-1" d="M497.61,1060.22h1.46v10.83q0,4-2,6a6.84,6.84,0,0,1-5.05,2,7.42,7.42,0,0,1-5.48-2.1,8.36,8.36,0,0,1-2.07-6.1v-10.64h1.46v10.38a7.66,7.66,0,0,0,1.64,5.2,5.59,5.59,0,0,0,4.45,1.87,5.06,5.06,0,0,0,4.1-1.78,7.88,7.88,0,0,0,1.49-5.16Z"/><path class="cls-1" d="M506.17,1078.84h-1.46v-18.62h10.4v1.39h-8.94v7.66h8.14v1.38h-8.14Z"/><path class="cls-1" d="M523.32,1061.61h-6.88v-1.39h15.24v1.39h-6.89v17.23h-1.47Z"/><path class="cls-1" d="M459.76,1109.1H458.3v-18.61h1.49l7.5,10.21,7.21-10.21h1.41v18.61h-1.46v-16.33l-7.16,10.06h-.24l-7.29-10Z"/><path class="cls-1" d="M480.3,1099.8A9.34,9.34,0,0,1,483,1093a9.5,9.5,0,0,1,13.32,0,9.27,9.27,0,0,1,2.69,6.84,9.42,9.42,0,0,1-2.69,6.83,8.92,8.92,0,0,1-6.65,2.71,9,9,0,0,1-6.67-2.68A9.32,9.32,0,0,1,480.3,1099.8Zm1.54,0a8.16,8.16,0,0,0,2.23,5.82,7.43,7.43,0,0,0,5.56,2.34,7.31,7.31,0,0,0,5.59-2.34,8.22,8.22,0,0,0,2.2-5.82,8,8,0,0,0-2.26-5.83,7.74,7.74,0,0,0-11.09,0A8,8,0,0,0,481.84,1099.8Z"/><path class="cls-1" d="M503.6,1109.1h-.24v-18.61h.29q1.14,0,2.13,0c1.31,0,2.09,0,2.34,0a14.15,14.15,0,0,1,4.75.73,8.18,8.18,0,0,1,3.28,2,8.45,8.45,0,0,1,1.82,2.9,9.84,9.84,0,0,1,.6,3.47,9.22,9.22,0,0,1-2.79,6.91c-1.85,1.81-4.47,2.72-7.88,2.72q-1.14,0-2.1,0C505.17,1109.11,504.43,1109.1,503.6,1109.1Zm4.46-17.31c-.39,0-1,0-1.71,0s-1.26,0-1.53,0v15.85h1.65l1.12,0H508a9.27,9.27,0,0,0,6.7-2.28,8,8,0,0,0,2.37-6,7.41,7.41,0,0,0-2.26-5.59C513.24,1092.51,511,1091.79,508.06,1091.79Z"/><path class="cls-1" d="M533.52,1109.1H523v-18.61h10.29v1.38h-8.83v7.1h8v1.38h-8v7.37h9.1Z"/><path class="cls-1" d="M539.72,1101.28v7.82h-1.47v-18.61l2.42,0,2.05,0q6.53,0,6.52,5.38a5,5,0,0,1-1.25,3.37,5.64,5.64,0,0,1-3.17,1.81l6.52,8.11h-1.81l-6.2-7.82Zm2.92-9.47-2.92.06v8h3.21a5.09,5.09,0,0,0,3.3-1.14,3.57,3.57,0,0,0,1.47-3C547.7,1093.15,546,1091.81,542.64,1091.81Z"/><path class="cls-1" d="M570.33,1090.49v18.61h-1.17l-12.74-16v16H555v-18.61h1.17L569,1106.55v-16.06Z"/><path class="cls-1" d="M441.56,1119.29l-2.6-.56,22.31-104.55,2.6.56Z"/><rect class="cls-1" x="455.04" y="1014.12" width="19.82" height="2.76"/><rect class="cls-1" x="428.01" y="1116.71" width="19.82" height="2.76"/><path class="cls-1" d="M726.62,1042.59a1.55,1.55,0,0,0-.68-1.33,5.07,5.07,0,0,0-1.65-.8c-.64-.2-1.29-.41-1.95-.65a3.86,3.86,0,0,1-1.66-1.15,2.87,2.87,0,0,1-.68-2,2.81,2.81,0,0,1,1.06-2.3,4.28,4.28,0,0,1,2.8-.86,5,5,0,0,1,3.75,1.33l-.59,1a4.43,4.43,0,0,0-3.14-1.14,2.7,2.7,0,0,0-1.74.54,1.75,1.75,0,0,0,0,2.77,5,5,0,0,0,1.65.85c.65.21,1.3.42,2,.65a4.11,4.11,0,0,1,1.67,1.09,2.72,2.72,0,0,1,.67,1.89,3,3,0,0,1-1.21,2.53,5,5,0,0,1-3.09.9,6.27,6.27,0,0,1-2.45-.53,3.5,3.5,0,0,1-1.65-1.2l.77-.9a3.58,3.58,0,0,0,1.52,1,5.41,5.41,0,0,0,2,.4,3.08,3.08,0,0,0,1.92-.57A1.86,1.86,0,0,0,726.62,1042.59Z"/><path class="cls-1" d="M737,1046a6.1,6.1,0,0,1-4.52-1.75,6.56,6.56,0,0,1,0-8.94A6.36,6.36,0,1,1,737,1046Zm0-1.3a4.57,4.57,0,0,0,3.46-1.36,5.34,5.34,0,0,0,0-7.1,5,5,0,0,0-6.92,0,5.29,5.29,0,0,0,0,7.08A4.64,4.64,0,0,0,737,1044.66Z"/><path class="cls-1" d="M748.38,1045.72H747v-13.91q0-4.93,4.12-4.94a4.57,4.57,0,0,1,3.11,1l-.53,1.06a3.76,3.76,0,0,0-2.37-.77q-3,0-3,3.88v1.71H753v1.3h-4.57Z"/><path class="cls-1" d="M755.27,1041.18v-10.75h1.38v3.33h4.81v1.3h-4.81v5.9c0,2.42.89,3.62,2.69,3.62a3.1,3.1,0,0,0,1.91-.64l.45,1.09a4.19,4.19,0,0,1-2.68.85C756.52,1045.88,755.27,1044.32,755.27,1041.18Z"/><path class="cls-1" d="M725.45,1078.84h-1.38v-1.7a5.26,5.26,0,0,1-4.12,1.92,5.59,5.59,0,0,1-4.26-1.68,6.24,6.24,0,0,1-1.59-4.47,6,6,0,0,1,1.83-4.52,6.55,6.55,0,0,1,4.68-1.75,5.6,5.6,0,0,1,3.46,1v-7.45h1.38Zm-5.24-1.09a4.61,4.61,0,0,0,2.14-.53,4.88,4.88,0,0,0,1.72-1.36V1069a6.1,6.1,0,0,0-3.43-1.09,5.08,5.08,0,0,0-3.62,1.38,4.64,4.64,0,0,0-1.46,3.54,4.87,4.87,0,0,0,1.28,3.56A4.44,4.44,0,0,0,720.21,1077.75Z"/><path class="cls-1" d="M738.51,1066.87h1.39v12h-1.39V1077a5.4,5.4,0,0,1-2,1.52,5.8,5.8,0,0,1-2.57.6q-4.58,0-4.57-5.26v-7h1.38v6.65c0,2.84,1.24,4.26,3.7,4.26a4.8,4.8,0,0,0,2.25-.6,5.38,5.38,0,0,0,1.79-1.47Z"/><path class="cls-1" d="M745.88,1078.84H744.5v-13.91q0-4.93,4.12-4.94a4.57,4.57,0,0,1,3.11,1l-.53,1.06a3.76,3.76,0,0,0-2.37-.77q-3,0-3,3.88v1.7h4.58v1.31h-4.58Z"/><path class="cls-1" d="M752.77,1074.29v-10.74h1.38v3.32H759v1.31h-4.82v5.9q0,3.62,2.69,3.62a3.08,3.08,0,0,0,1.91-.64l.45,1.09a4.19,4.19,0,0,1-2.68.85Q752.77,1079,752.77,1074.29Z"/><path class="cls-1" d="M726.19,1101.26v7.84h-1.38v-7.47q0-3.41-3-3.4a4,4,0,0,0-3.67,2,5.53,5.53,0,0,1,0,.85v8h-1.38V1101a2.68,2.68,0,0,0-.8-2,3.09,3.09,0,0,0-2.21-.74,4.22,4.22,0,0,0-3.64,1.88v9h-1.39v-12h1.39v1.68a4.92,4.92,0,0,1,1.82-1.37,5.61,5.61,0,0,1,2.33-.52,4.54,4.54,0,0,1,2.38.59,2.87,2.87,0,0,1,1.29,1.62,4.7,4.7,0,0,1,1.85-1.61,5.43,5.43,0,0,1,2.51-.6Q726.2,1096.92,726.19,1101.26Z"/><path class="cls-1" d="M735.58,1109.34a6,6,0,1,1,4.52-1.75A6.12,6.12,0,0,1,735.58,1109.34Zm0-1.3a4.56,4.56,0,0,0,3.46-1.36,5.31,5.31,0,0,0,0-7.1,4.64,4.64,0,0,0-3.46-1.38,4.72,4.72,0,0,0-3.46,1.38,5.32,5.32,0,0,0,0,7.08A4.66,4.66,0,0,0,735.58,1108Z"/><path class="cls-1" d="M755.74,1109.1h-1.38v-1.7a5.26,5.26,0,0,1-4.12,1.92,5.59,5.59,0,0,1-4.26-1.68,6.24,6.24,0,0,1-1.6-4.47,6,6,0,0,1,1.84-4.52,6.55,6.55,0,0,1,4.68-1.75,5.62,5.62,0,0,1,3.46,1v-7.44h1.38ZM750.5,1108a4.61,4.61,0,0,0,2.14-.53,5.17,5.17,0,0,0,1.72-1.35v-6.84a6.13,6.13,0,0,0-3.43-1.09,5.06,5.06,0,0,0-3.62,1.38,4.6,4.6,0,0,0-1.46,3.54,4.91,4.91,0,0,0,1.27,3.56A4.46,4.46,0,0,0,750.5,1108Z"/><path class="cls-1" d="M769.41,1106.58l.46,1.06a5.82,5.82,0,0,1-4.42,1.7,6.25,6.25,0,0,1-4.6-1.7,6,6,0,0,1-1.76-4.52,6.41,6.41,0,0,1,1.6-4.47,5.78,5.78,0,0,1,4.47-1.75,5.43,5.43,0,0,1,3.88,1.48,5.14,5.14,0,0,1,1.54,3.92,6.15,6.15,0,0,1-.08,1.11h-9.86a4.61,4.61,0,0,0,1.41,3.39,4.86,4.86,0,0,0,3.48,1.24A5.09,5.09,0,0,0,769.41,1106.58ZM765,1098.2a4.31,4.31,0,0,0-3.1,1.12,4.5,4.5,0,0,0-1.37,3h8.61a4,4,0,0,0-1.14-3A4.1,4.1,0,0,0,765,1098.2Z"/><path class="cls-1" d="M775.26,1109.1h-1.38v-12h1.38v1.6a3.71,3.71,0,0,1,3.22-1.81,3.16,3.16,0,0,1,1.87.45l-.48,1.31a3.31,3.31,0,0,0-1.68-.45,3.36,3.36,0,0,0-2.93,1.94Z"/><path class="cls-1" d="M784,1109.1h-1.38v-12H784v1.68a6.12,6.12,0,0,1,4.31-1.89,5,5,0,0,1,3.75,1.31,5.6,5.6,0,0,1,1.25,4v6.83h-1.38v-6.57q0-4.3-3.94-4.3a5.4,5.4,0,0,0-4,1.83Z"/><path class="cls-1" d="M689.94,1119.29l-2.6-.56,22.31-104.55,2.6.56Z"/><rect class="cls-1" x="703.42" y="1014.12" width="19.82" height="2.76"/><rect class="cls-1" x="676.39" y="1116.71" width="19.82" height="2.76"/><path class="cls-1" d="M136.62,206.07h5.69v39.59h.24l17.23-21.24h6.49l-13,15.55L168,263.29H161.7l-11.78-19.24-7.61,9v10.26h-5.69Z"/><path class="cls-1" d="M176.93,260.44q-2.88-3.79-2.88-11.34V224.42h5.77v24q0,5.61,1.84,8.22c1.23,1.73,3.2,2.6,5.93,2.6a9.64,9.64,0,0,0,5.41-1.6,26.52,26.52,0,0,0,5.49-5.29V224.42h5.85v38.87h-4.89l-.48-6.17h-.24a25.57,25.57,0,0,1-6,5.29,13.19,13.19,0,0,1-6.85,1.84Q179.82,264.25,176.93,260.44Z"/><path class="cls-1" d="M217.88,224.42h4.81l.48,7.13h.24a17.5,17.5,0,0,1,4.89-5.93,10.1,10.1,0,0,1,6.17-2.16,9.34,9.34,0,0,1,4,.8l-1.13,5.13a12.6,12.6,0,0,0-3.68-.64,8.46,8.46,0,0,0-5.41,2.24,17.52,17.52,0,0,0-4.61,7v25.33h-5.77Z"/><path class="cls-1" d="M247.05,262.77a24.14,24.14,0,0,1-6.65-3.89l3-3.93a25.68,25.68,0,0,0,5.61,3.53,15,15,0,0,0,6.09,1.2,8.65,8.65,0,0,0,5.93-1.84,6,6,0,0,0,2.09-4.65,5.24,5.24,0,0,0-2.37-4.49,27.17,27.17,0,0,0-6.69-3.2,33.29,33.29,0,0,1-8.65-4.37,8,8,0,0,1-3.13-6.77,9.9,9.9,0,0,1,3.57-7.82q3.56-3.07,9.65-3.08a17.2,17.2,0,0,1,6.34,1.2,20.66,20.66,0,0,1,5.44,3.13l-2.8,3.76A22.92,22.92,0,0,0,260,229a11.56,11.56,0,0,0-4.57-.88,8.13,8.13,0,0,0-5.6,1.72,5.42,5.42,0,0,0-1.93,4.21,4.39,4.39,0,0,0,1.16,3,8.6,8.6,0,0,0,2.85,2c1.12.5,2.7,1.16,4.73,2a62.56,62.56,0,0,1,6.41,2.72,11.93,11.93,0,0,1,4,3.41,9,9,0,0,1,1.69,5.65,10.51,10.51,0,0,1-1.65,5.73,11.25,11.25,0,0,1-4.8,4.13,17.25,17.25,0,0,1-7.5,1.52A21.2,21.2,0,0,1,247.05,262.77Z"/><path class="cls-1" d="M280.71,218a5.66,5.66,0,0,1,.15-7.94,6.44,6.44,0,0,1,8.38.16,5.65,5.65,0,0,1-.15,7.93,6.45,6.45,0,0,1-8.38-.15Zm-2.27,6.64h11.07l-6.66,39.1H271.74Z"/><path class="cls-1" d="M294.17,224.42h6l7.69,22.68,3.69,11.38h.32l3.69-11.38,7.69-22.68H329l-13.95,38.87h-6.73Z"/><path class="cls-1" d="M136.62,87.07h5.91V121.3h.28l18.57-18.15h6.76l-25.61,25.19v9.39h-5.91Zm13.31,32.31,3.55-3.85L170,137.73h-6.54Z"/><path class="cls-1" d="M174.23,124.64V103.15h5.9v20.71c0,6.47,2.28,9.6,8,9.6,4,0,6.9-1.85,10.75-6.33v-24h5.9v34.58h-4.91l-.5-6h-.28c-3.49,4.05-7.54,6.9-12.88,6.9C178,138.59,174.23,133.75,174.23,124.64Z"/><path class="cls-1" d="M212,103.15h5.93l0,7.72-.32.47c3.62-5.63,7.2-8.92,13.6-8.92a14.59,14.59,0,0,1,6.83,1.42l-1.35,5.06a17.19,17.19,0,0,0-6.4-1.14c-5.2,0-8.27,2.51-12.4,9.77v20.2H212Z"/><path class="cls-1" d="M239.1,133.18l2.71-3.91a24.7,24.7,0,0,0,15,4.69c5.84,0,8.68-2.42,8.68-5.33,0-2.64-1.35-4.49-10.74-6.41-9-1.85-13.52-4.91-13.52-10.1,0-5.55,4.91-9.82,14.37-9.82a26,26,0,0,1,13.95,4.41l-2.85,3.77a20.43,20.43,0,0,0-11.6-3.63c-5.83,0-8,2.35-8,5,0,3,3,4.27,10.11,5.77,11.45,2.49,14.23,5.33,14.23,10.67,0,5.62-5.48,10.32-15.37,10.32A30.39,30.39,0,0,1,239.1,133.18Z"/><path class="cls-1" d="M283.17,128.47a17.1,17.1,0,0,1,.65-4.25L287.35,110H275.71l1.59-7.6h21.36l-5.22,22.25a7.25,7.25,0,0,0-.29,1.85c0,2.91,1.73,4.09,4.24,4.09a14.42,14.42,0,0,0,5.54-1.41l2,7.31a25.5,25.5,0,0,1-10.54,2.07C287.61,138.59,283.17,134.78,283.17,128.47Zm5.16-37.21a7,7,0,0,1,7.12-6.76c3.62,0,6.23,1.94,6.23,5.54a6.9,6.9,0,0,1-7.19,6.76C291.29,96.8,288.33,95,288.33,91.26Z"/><path class="cls-1" d="M305.17,103.15h6.05l8,19.57q2,5.23,3.84,10.25h.28c1.21-3.35,2.35-6.76,3.77-10.25l8-19.57h5.7l-14.38,34.58h-6.61Z"/><path class="cls-1" d="M136.62,331.73h5.69v39.59h.24l17.23-21.24h6.49l-13,15.55L168,389H161.7l-11.78-19.23-7.61,9V389h-5.69Z"/><path class="cls-1" d="M176.93,386.1q-2.88-3.8-2.88-11.33V350.08h5.77v24q0,5.61,1.84,8.22c1.23,1.73,3.2,2.6,5.93,2.6a9.64,9.64,0,0,0,5.41-1.6,26.52,26.52,0,0,0,5.49-5.29V350.08h5.85V389h-4.89l-.48-6.17h-.24a25.35,25.35,0,0,1-6,5.29,13.1,13.1,0,0,1-6.85,1.84Q179.82,389.91,176.93,386.1Z"/><path class="cls-1" d="M217.88,350.08h4.81l.48,7.13h.24a17.5,17.5,0,0,1,4.89-5.93,10.1,10.1,0,0,1,6.17-2.16,9.34,9.34,0,0,1,4,.8l-1.13,5.13a12.6,12.6,0,0,0-3.68-.64,8.46,8.46,0,0,0-5.41,2.24,17.49,17.49,0,0,0-4.61,7V389h-5.77Z"/><path class="cls-1" d="M247.05,388.43a24.14,24.14,0,0,1-6.65-3.89l3-3.92a26,26,0,0,0,5.61,3.52,15,15,0,0,0,6.09,1.2A8.65,8.65,0,0,0,261,383.5a6,6,0,0,0,2.09-4.65,5.26,5.26,0,0,0-2.37-4.49,27.17,27.17,0,0,0-6.69-3.2,33.29,33.29,0,0,1-8.65-4.37,8,8,0,0,1-3.13-6.77,9.87,9.87,0,0,1,3.57-7.81q3.56-3.09,9.65-3.09a17.2,17.2,0,0,1,6.34,1.2,20.94,20.94,0,0,1,5.44,3.13l-2.8,3.76a22.92,22.92,0,0,0-4.41-2.56,11.56,11.56,0,0,0-4.57-.88,8.13,8.13,0,0,0-5.6,1.72,5.42,5.42,0,0,0-1.93,4.21,4.39,4.39,0,0,0,1.16,3,8.6,8.6,0,0,0,2.85,2.05q1.68.76,4.73,2a60.1,60.1,0,0,1,6.41,2.73,11.79,11.79,0,0,1,4,3.4,9,9,0,0,1,1.69,5.65,10.46,10.46,0,0,1-1.65,5.73,11.25,11.25,0,0,1-4.8,4.13,17.25,17.25,0,0,1-7.5,1.52A21,21,0,0,1,247.05,388.43Z"/><path class="cls-1" d="M283.2,345a3.41,3.41,0,0,1-1-2.52,3.19,3.19,0,0,1,1-2.42,3.72,3.72,0,0,1,4.9,0,3.19,3.19,0,0,1,.95,2.42,3.4,3.4,0,0,1-.95,2.52,3.63,3.63,0,0,1-4.9,0Z"/><polygon class="cls-1" points="281.64 350.08 287.62 350.08 276.3 388.97 270.28 388.97 281.64 350.08"/><path class="cls-1" d="M291.76,350.08h6l7.7,22.68,3.68,11.38h.32l3.69-11.38,7.69-22.68h5.77L312.68,389H306Z"/><path class="cls-1" d="M199.19,1315.18h-4.88L230.52,1259h4.89ZM267.56,1259h5.95L206,1292.73l32.51,22.45h-6.31l-32-22.1Z"/><path class="cls-1" d="M313.4,1259.05h4.88l-31.06,31.6q0,13.41-6.66,20.07t-16.88,6.66q-11.28,0-18.29-7c-4.62-4.68-7.1-12.19-7.1-21.07l31.23-30.25h4.88l-31.06,30.09q0,11.1,5.46,17.36t14.88,6.26q8.7,0,13.68-6t5-17.23Z"/><path class="cls-1" d="M475,1266h8.09l-28.76,25.45,11.75,36.6h-6.5l-10.34-32.36-8.9,7.37-7.35,25h-6.46l18.16-62h6l-7.55,27"/><path class="cls-1" d="M471.38,1249.27l-5.3,35c-2,13.27,4.67,20,12.58,21.22,8.78,1.33,16.92-3.37,18.9-16.45l5.3-35,6.09.92-5.22,34.52c-2.75,18.18-13.46,24.2-26.28,22.26-12.12-1.84-20.21-10.16-17.43-28.51l5.27-34.87Z"/><path class="cls-1" d="M707.66,1249.82h2.79l-23.88,76.77h-2.81Z"/><path class="cls-1" d="M723.27,1249.82h2.79l-23.88,76.77h-2.8Z"/><path class="cls-1" d="M738.89,1249.82h2.79l-23.88,76.77H715Z"/><path class="cls-1" d="M754.5,1249.82h2.79l-23.88,76.77h-2.8Z"/><path class="cls-1" d="M770.12,1249.82h2.79L749,1326.59h-2.81Z"/><path class="cls-1" d="M785.73,1249.82h2.79l-23.88,76.77h-2.8Z"/><text class="cls-2" transform="translate(368.92 164.53)">01</text><text class="cls-2" transform="translate(368.92 281.17)">02</text><text class="cls-2" transform="translate(368.92 414.72)">03</text><text class="cls-2" transform="translate(799.14 164.53)">04</text><text class="cls-2" transform="translate(799.14 281.17)">05</text><text class="cls-2" transform="translate(799.14 414.72)">06</text><text class="cls-2" transform="translate(458.52 607.44)">07</text><text class="cls-2" transform="translate(458.52 719.01)">08</text><text class="cls-2" transform="translate(380.49 914.57)">09</text><text class="cls-2" transform="translate(809.11 914.57)">10</text><text class="cls-2" transform="translate(304.49 1369.54)">11</text><text class="cls-2" transform="translate(550.72 1369.54)">12</text></svg>