<svg id="Layer_1" data-name="Layer 1" xmlns="http://www.w3.org/2000/svg" viewBox="0 0 960 1043.8"><defs><style>.cls-1{fill:#231f20;}.cls-2{font-size:23.82px;fill:#828282;font-family:Circe-Light, Circe;font-weight:300;}</style></defs><title>курсив</title><rect class="cls-1" x="333.78" y="170.39" width="86.86" height="28.03" transform="translate(561.61 -192.8) rotate(90)"/><rect class="cls-1" x="432.71" y="141.09" width="45.71" height="45.78" transform="translate(619.54 -291.59) rotate(90)"/><rect class="cls-1" x="374.92" y="170.89" width="87.55" height="28.03" transform="translate(603.6 -233.79) rotate(90)"/><rect class="cls-1" x="517.87" y="141.09" width="45.71" height="45.78" transform="translate(704.7 -376.74) rotate(90)"/><rect class="cls-1" x="460.15" y="170.89" width="87.55" height="28.03" transform="translate(688.83 -319.03) rotate(90)"/><polygon class="cls-1" points="741.21 228.95 650.72 165.87 647.23 197.32 691.29 228.7 741.21 228.95"/><rect class="cls-1" x="613.83" y="170.81" width="87.7" height="28.03" transform="translate(842.51 -472.86) rotate(90)"/><rect class="cls-1" x="671.7" y="140.91" width="45.71" height="45.78" transform="translate(858.36 -530.75) rotate(90)"/><rect class="cls-1" x="545.32" y="170.74" width="87.57" height="28.03" transform="translate(773.87 -404.35) rotate(90)"/><rect class="cls-1" x="604.47" y="139.54" width="25.25" height="28.03" transform="translate(770.66 -463.54) rotate(90)"/><rect class="cls-1" x="604.5" y="201.9" width="25.25" height="28.03" transform="translate(833.05 -401.21) rotate(90)"/><rect class="cls-1" x="606.1" y="170.72" width="22" height="28.03" transform="translate(801.84 -432.36) rotate(90)"/><rect class="cls-1" x="257.34" y="170.31" width="92.76" height="28.03" transform="translate(658.2 160.65) rotate(144.93)"/><rect class="cls-1" x="257.68" y="199.51" width="92.01" height="28.03"/><rect class="cls-1" x="257.68" y="140.97" width="92.01" height="28.03"/><rect class="cls-1" x="192.85" y="587.37" width="92.01" height="28.03"/><rect class="cls-1" x="151.66" y="559.29" width="92.01" height="28.03"/><rect class="cls-1" x="162.36" y="862.24" width="42.67" height="34.18"/><rect class="cls-1" x="146.66" y="828" width="42.67" height="34.18"/><rect class="cls-1" x="198.43" y="844.03" width="68.88" height="34.18" transform="translate(1093.99 628.26) rotate(90)"/><rect class="cls-1" x="247.2" y="847.99" width="61.32" height="34.18" transform="translate(1142.94 587.22) rotate(90)"/><rect class="cls-1" x="271.88" y="830.88" width="41.82" height="34.18" transform="translate(1140.75 555.18) rotate(90)"/><rect class="cls-1" x="306.68" y="847.99" width="61.32" height="34.18" transform="translate(1202.42 527.75) rotate(90)"/><rect class="cls-1" x="331.36" y="830.88" width="41.82" height="34.18" transform="translate(1200.23 495.7) rotate(90)"/><rect class="cls-1" x="427.89" y="847.99" width="61.32" height="34.18" transform="translate(1323.63 406.53) rotate(90)"/><rect class="cls-1" x="452.57" y="830.88" width="41.82" height="34.18" transform="translate(1321.45 374.49) rotate(90)"/><polyline class="cls-1" points="496.03 895.71 470.98 895.71 470.98 860.65"/><rect class="cls-1" x="365.51" y="847.99" width="61.32" height="34.18" transform="translate(1261.25 468.91) rotate(90)"/><rect class="cls-1" x="403.26" y="817.8" width="15.67" height="34.18" transform="translate(1245.99 423.8) rotate(90)"/><rect class="cls-1" x="403.26" y="840.74" width="15.67" height="34.18" transform="translate(1268.93 446.74) rotate(90)"/><rect class="cls-1" x="403.26" y="870.84" width="15.67" height="34.18" transform="translate(1299.03 476.84) rotate(90)"/><rect class="cls-1" x="338.25" y="581.91" width="92.01" height="28.03" transform="translate(980.18 211.67) rotate(90)"/><rect class="cls-1" x="366.2" y="538.85" width="92.01" height="28.03" transform="translate(965.07 140.66) rotate(90)"/><rect class="cls-1" x="604.3" y="572.98" width="69.08" height="21.05" transform="translate(1222.34 -55.34) rotate(90)"/><rect class="cls-1" x="625.29" y="540.65" width="69.08" height="21.05" transform="translate(1211 -108.66) rotate(90)"/><rect class="cls-1" x="646.2" y="572.98" width="69.08" height="21.05" transform="translate(1264.24 -97.24) rotate(90)"/><rect class="cls-1" x="667.18" y="540.65" width="69.08" height="21.05" transform="translate(1252.9 -150.56) rotate(90)"/><rect class="cls-1" x="688.1" y="572.98" width="69.08" height="21.05" transform="translate(1306.14 -139.14) rotate(90)"/><rect class="cls-1" x="709.08" y="540.65" width="69.08" height="21.05" transform="translate(1294.8 -192.45) rotate(90)"/><rect class="cls-1" x="730" y="572.98" width="69.08" height="21.05" transform="translate(1348.04 -181.04) rotate(90)"/><rect class="cls-1" x="750.98" y="540.65" width="69.08" height="21.05" transform="translate(1336.69 -234.35) rotate(90)"/><rect class="cls-1" x="771.89" y="572.98" width="69.08" height="21.05" transform="translate(1389.94 -222.93) rotate(90)"/><text class="cls-2" transform="translate(780.22 250.72)">13</text><text class="cls-2" transform="translate(540.39 917.42)">14</text></svg>